<svg xmlns="http://www.w3.org/2000/svg" xmlns:xlink="http://www.w3.org/1999/xlink" contentStyleType="text/css" data-diagram-type="CLASS" height="440px" preserveAspectRatio="none" style="width:711px;height:440px;background:#FFFFFF;" version="1.1" viewBox="0 0 711 440" width="711px" zoomAndPan="magnify"><?plantuml 1.2026.5?><defs/><g><g class="title" data-source-line="3"><text fill="#000000" font-family="sans-serif" font-size="14" font-weight="700" lengthAdjust="spacing" textLength="429.2764" x="137.3975" y="23.5352">Handlers that add their help to the help of the next handler</text></g><!--class Handler--><g class="entity" data-qualified-name="Handler" data-source-line="4" id="ent0001"><rect fill="#F1F1F1" height="56.4883" rx="2.5" ry="2.5" style="stroke:#181818;stroke-width:0.5;" width="230.3945" x="254.13" y="60.9783"/><ellipse cx="338.5299" cy="76.9783" fill="#B4A7E5" rx="11" ry="11" style="stroke:#181818;stroke-width:1;"/><path d="M334.9576,73.2434 L334.9576,71.0852 L342.337,71.0852 L342.337,73.2434 L339.8717,73.2434 L339.8717,81.3201 L342.337,81.3201 L342.337,83.4783 L334.9576,83.4783 L334.9576,81.3201 L337.423,81.3201 L337.423,73.2434 Z " fill="#000000"/><text fill="#000000" font-family="sans-serif" font-size="14" font-style="italic" lengthAdjust="spacing" textLength="53.0947" x="359.0299" y="82.2693">Handler</text><line style="stroke:#181818;stroke-width:0.5;" x1="255.13" x2="483.5245" y1="92.9783" y2="92.9783"/><text fill="#000000" font-family="sans-serif" font-size="14" lengthAdjust="spacing" textLength="218.3945" x="260.13" y="110.5134">+handleRequest(Context) : Help</text></g><!--class AbstractHandler--><g class="entity" data-qualified-name="AbstractHandler" data-source-line="7" id="ent0002"><rect fill="#F1F1F1" height="80.9766" rx="2.5" ry="2.5" style="stroke:#181818;stroke-width:0.5;" width="153.8047" x="292.43" y="210.9583"/><ellipse cx="312.8296" cy="226.9583" fill="#A9DCDF" rx="11" ry="11" style="stroke:#181818;stroke-width:1;"/><path d="M312.6928,222.3064 L311.539,227.3782 L313.855,227.3782 Z M311.1987,220.0652 L314.1953,220.0652 L317.5405,232.4583 L315.0918,232.4583 L314.3281,229.3953 L311.0493,229.3953 L310.3022,232.4583 L307.8535,232.4583 Z " fill="#000000"/><text fill="#000000" font-family="sans-serif" font-size="14" font-style="italic" lengthAdjust="spacing" textLength="109.8057" x="328.0295" y="232.2493">AbstractHandler</text><line style="stroke:#181818;stroke-width:0.5;" x1="293.43" x2="445.2347" y1="242.9583" y2="242.9583"/><text fill="#000000" font-family="sans-serif" font-size="14" lengthAdjust="spacing" textLength="141.8047" x="298.43" y="260.4934">#successor : Handler</text><line style="stroke:#181818;stroke-width:0.5;" x1="293.43" x2="445.2347" y1="267.4466" y2="267.4466"/><text fill="#000000" font-family="sans-serif" font-size="14" lengthAdjust="spacing" textLength="120.415" x="298.43" y="284.9817">#newHelp() : Help</text></g><!--class ConcreteHandler1--><g class="entity" data-qualified-name="ConcreteHandler1" data-source-line="11" id="ent0003"><rect fill="#F1F1F1" height="32" rx="2.5" ry="2.5" style="stroke:#181818;stroke-width:0.5;" width="154.6572" x="7" y="373.4183"/><ellipse cx="22" cy="389.4183" fill="#ADD1B2" rx="11" ry="11" style="stroke:#181818;stroke-width:1;"/><path d="M24.4731,395.5613 Q23.8921,395.8602 23.2529,396.0096 Q22.6138,396.159 21.9082,396.159 Q19.4014,396.159 18.0815,394.5071 Q16.7617,392.8553 16.7617,389.7342 Q16.7617,386.6048 18.0815,384.9529 Q19.4014,383.3011 21.9082,383.3011 Q22.6138,383.3011 23.2612,383.4505 Q23.9087,383.5999 24.4731,383.8988 L24.4731,386.6214 Q23.8423,386.0404 23.2488,385.7706 Q22.6553,385.5008 22.0244,385.5008 Q20.6797,385.5008 19.9949,386.5675 Q19.3101,387.6341 19.3101,389.7342 Q19.3101,391.826 19.9949,392.8926 Q20.6797,393.9593 22.0244,393.9593 Q22.6553,393.9593 23.2488,393.6895 Q23.8423,393.4197 24.4731,392.8387 Z " fill="#000000"/><text fill="#000000" font-family="sans-serif" font-size="14" lengthAdjust="spacing" textLength="122.6572" x="36" y="394.7093">ConcreteHandler1</text></g><!--class ConcreteHandler2--><g class="entity" data-qualified-name="ConcreteHandler2" data-source-line="12" id="ent0004"><rect fill="#F1F1F1" height="32" rx="2.5" ry="2.5" style="stroke:#181818;stroke-width:0.5;" width="154.6572" x="197" y="373.4183"/><ellipse cx="212" cy="389.4183" fill="#ADD1B2" rx="11" ry="11" style="stroke:#181818;stroke-width:1;"/><path d="M214.4731,395.5613 Q213.8921,395.8602 213.2529,396.0096 Q212.6138,396.159 211.9082,396.159 Q209.4014,396.159 208.0815,394.5071 Q206.7617,392.8553 206.7617,389.7342 Q206.7617,386.6048 208.0815,384.9529 Q209.4014,383.3011 211.9082,383.3011 Q212.6138,383.3011 213.2612,383.4505 Q213.9087,383.5999 214.4731,383.8988 L214.4731,386.6214 Q213.8423,386.0404 213.2488,385.7706 Q212.6553,385.5008 212.0244,385.5008 Q210.6797,385.5008 209.9949,386.5675 Q209.3101,387.6341 209.3101,389.7342 Q209.3101,391.826 209.9949,392.8926 Q210.6797,393.9593 212.0244,393.9593 Q212.6553,393.9593 213.2488,393.6895 Q213.8423,393.4197 214.4731,392.8387 Z " fill="#000000"/><text fill="#000000" font-family="sans-serif" font-size="14" lengthAdjust="spacing" textLength="122.6572" x="226" y="394.7093">ConcreteHandler2</text></g><!--class ConcreteHandler3--><g class="entity" data-qualified-name="ConcreteHandler3" data-source-line="13" id="ent0005"><rect fill="#F1F1F1" height="32" rx="2.5" ry="2.5" style="stroke:#181818;stroke-width:0.5;" width="154.6572" x="387" y="373.4183"/><ellipse cx="402" cy="389.4183" fill="#ADD1B2" rx="11" ry="11" style="stroke:#181818;stroke-width:1;"/><path d="M404.4731,395.5613 Q403.8921,395.8602 403.2529,396.0096 Q402.6138,396.159 401.9082,396.159 Q399.4014,396.159 398.0815,394.5071 Q396.7617,392.8553 396.7617,389.7342 Q396.7617,386.6048 398.0815,384.9529 Q399.4014,383.3011 401.9082,383.3011 Q402.6138,383.3011 403.2612,383.4505 Q403.9087,383.5999 404.4731,383.8988 L404.4731,386.6214 Q403.8423,386.0404 403.2488,385.7706 Q402.6553,385.5008 402.0244,385.5008 Q400.6797,385.5008 399.9949,386.5675 Q399.3101,387.6341 399.3101,389.7342 Q399.3101,391.826 399.9949,392.8926 Q400.6797,393.9593 402.0244,393.9593 Q402.6553,393.9593 403.2488,393.6895 Q403.8423,393.4197 404.4731,392.8387 Z " fill="#000000"/><text fill="#000000" font-family="sans-serif" font-size="14" lengthAdjust="spacing" textLength="122.6572" x="416" y="394.7093">ConcreteHandler3</text></g><!--class Help--><g class="entity" data-qualified-name="Help" data-source-line="14" id="ent0006"><rect fill="#F1F1F1" height="72.9766" rx="2.5" ry="2.5" style="stroke:#181818;stroke-width:0.5;" width="119.4814" x="576.59" y="352.9283"/><ellipse cx="617.0308" cy="368.9283" fill="#B4A7E5" rx="11" ry="11" style="stroke:#181818;stroke-width:1;"/><path d="M613.4586,365.1934 L613.4586,363.0352 L620.8379,363.0352 L620.8379,365.1934 L618.3726,365.1934 L618.3726,373.2701 L620.8379,373.2701 L620.8379,375.4283 L613.4586,375.4283 L613.4586,373.2701 L615.9239,373.2701 L615.9239,365.1934 Z " fill="#000000"/><text fill="#000000" font-family="sans-serif" font-size="14" font-style="italic" lengthAdjust="spacing" textLength="30.9463" x="636.6843" y="374.2193">Help</text><line style="stroke:#181818;stroke-width:0.5;" x1="577.59" x2="695.0714" y1="384.9283" y2="384.9283"/><text fill="#000000" font-family="sans-serif" font-size="14" lengthAdjust="spacing" textLength="55.4463" x="582.59" y="402.4634">+show()</text><text fill="#000000" font-family="sans-serif" font-size="14" lengthAdjust="spacing" textLength="107.4814" x="582.59" y="418.9517">+addHelp(Help)</text></g><!--class Context--><g class="entity" data-qualified-name="Context" data-source-line="18" id="ent0007"><rect fill="#F1F1F1" height="89.4648" rx="2.5" ry="2.5" style="stroke:#181818;stroke-width:0.5;" width="116.1865" x="519.24" y="44.4883"/><ellipse cx="547.8991" cy="60.4883" fill="#EB937F" rx="11" ry="11" style="stroke:#181818;stroke-width:1;"/><path d="M551.5133,66.9883 L543.7936,66.9883 L543.7936,54.5952 L551.5133,54.5952 L551.5133,56.7534 L546.2423,56.7534 L546.2423,59.4263 L551.0153,59.4263 L551.0153,61.5845 L546.2423,61.5845 L546.2423,64.8301 L551.5133,64.8301 Z " fill="#000000"/><text fill="#000000" font-family="sans-serif" font-size="14" lengthAdjust="spacing" textLength="53.833" x="564.9344" y="65.7793">Context</text><line style="stroke:#181818;stroke-width:0.5;" x1="520.24" x2="634.4265" y1="76.4883" y2="76.4883"/><text fill="#000000" font-family="sans-serif" font-size="14" lengthAdjust="spacing" textLength="58.208" x="525.24" y="94.0234">GENERIC</text><text fill="#000000" font-family="sans-serif" font-size="14" lengthAdjust="spacing" textLength="57.8115" x="525.24" y="110.5117">SPECIFIC</text><text fill="#000000" font-family="sans-serif" font-size="14" lengthAdjust="spacing" textLength="104.1865" x="525.24" y="127">MORE_SPECIFIC</text></g><!--reverse link Handler to AbstractHandler--><g class="link" data-entity-1="ent0001" data-entity-2="ent0002" data-link-type="extension" data-source-line="23" id="lnk8"><path codeLine="23" d="M363.2738,135.4723 C361.1338,153.4623 361.26,159.6583 362.33,180.9583 C362.82,190.6383 363.68,201.0583 364.64,210.8083" fill="none" id="Handler-backto-AbstractHandler" style="stroke:#181818;stroke-width:1;stroke-dasharray:7,7;"/><polygon fill="none" points="365.4,117.5983,357.3158,134.7635,369.2318,136.181,365.4,117.5983" style="stroke:#181818;stroke-width:1;stroke-linejoin:miter;stroke-miterlimit:10;"/></g><!--link AbstractHandler to Handler--><g class="link" data-entity-1="ent0002" data-entity-2="ent0001" data-link-type="dependency" data-source-line="27" id="lnk12"><path codeLine="27" d="M369.33,210.6683 C369.33,181.7583 369.33,148.3583 369.33,122.7683" fill="none" id="AbstractHandler-to-Handler" style="stroke:#181818;stroke-width:1;"/><polygon fill="#181818" points="369.33,117.7683,365.33,126.7683,369.33,122.7683,373.33,126.7683,369.33,117.7683" style="stroke:#181818;stroke-width:1;stroke-linejoin:miter;stroke-miterlimit:10;"/><text fill="#000000" font-family="sans-serif" font-size="13" lengthAdjust="spacing" textLength="61.8135" x="370.33" y="177.5266">successor</text></g><!--reverse link AbstractHandler to ConcreteHandler1--><g class="link" data-entity-1="ent0002" data-entity-2="ent0003" data-link-type="extension" data-source-line="24" id="lnk9"><path codeLine="24" d="M275.9545,296.9897 C218.4245,324.4397 158.99,352.7983 116.63,373.0083" fill="none" id="AbstractHandler-backto-ConcreteHandler1" style="stroke:#181818;stroke-width:1;"/><polygon fill="none" points="292.2,289.2383,273.3707,291.5745,278.5383,302.4048,292.2,289.2383" style="stroke:#181818;stroke-width:1;stroke-linejoin:miter;stroke-miterlimit:10;"/></g><!--reverse link AbstractHandler to ConcreteHandler2--><g class="link" data-entity-1="ent0002" data-entity-2="ent0004" data-link-type="extension" data-source-line="25" id="lnk10"><path codeLine="25" d="M331.2901,306.8931 C312.3401,334.0131 298.59,353.6983 284.98,373.1783" fill="none" id="AbstractHandler-backto-ConcreteHandler2" style="stroke:#181818;stroke-width:1;"/><polygon fill="none" points="341.6,292.1383,326.3718,303.4565,336.2084,310.3298,341.6,292.1383" style="stroke:#181818;stroke-width:1;stroke-linejoin:miter;stroke-miterlimit:10;"/></g><!--reverse link AbstractHandler to ConcreteHandler3--><g class="link" data-entity-1="ent0002" data-entity-2="ent0005" data-link-type="extension" data-source-line="26" id="lnk11"><path codeLine="26" d="M407.3699,306.8931 C426.3199,334.0131 440.07,353.6983 453.68,373.1783" fill="none" id="AbstractHandler-backto-ConcreteHandler3" style="stroke:#181818;stroke-width:1;"/><polygon fill="none" points="397.06,292.1383,402.4516,310.3298,412.2882,303.4565,397.06,292.1383" style="stroke:#181818;stroke-width:1;stroke-linejoin:miter;stroke-miterlimit:10;"/></g><!--link AbstractHandler to Help--><g class="link" data-entity-1="ent0002" data-entity-2="ent0006" data-link-type="dependency" data-source-line="28" id="lnk13"><path codeLine="28" d="M446.56,291.7783 C487.83,312.7983 533.4347,336.0188 571.7747,355.5488" fill="none" id="AbstractHandler-to-Help" style="stroke:#181818;stroke-width:1;"/><polygon fill="#181818" points="576.23,357.8183,570.0261,350.169,571.7747,355.5488,566.3949,357.2975,576.23,357.8183" style="stroke:#181818;stroke-width:1;stroke-linejoin:miter;stroke-miterlimit:10;"/></g><?plantuml-src ZL7BQiCm4BphAnPwiIaERN8BeH2Cs_ZG1yu755dUO55RSgKrITlatoi_wfh4Xrp4x6eqezcr7r9LtF0IHC6jNHCPcTQ4iT1gAxyHxbWkCmGiA_g24iiKZMKagK3OS9KLhWJAEG7FCWTG6iYng81qKtLOxrgiy42GTu-OL8HcnyKW0pyCuBQ_J_2pHajUg1tjG3uiOUEKs8dnr9BXWhh_mhelno8tO6iXq5fjcdUzOTDNk6zal95U9-DyX472ddm_tPvFjnVZC4tUBedDzTxpM-Xcq_esX-zCKTKbzDbQzbFq4YLnwD3sBGhZnnO-loRH-r2Vs5_6rN4sEm_EpWUnEWR1PQnhMFEhM8iBLX0y3BjS_gzWckS6yGi0?></g></svg>