<svg xmlns="http://www.w3.org/2000/svg" xmlns:xlink="http://www.w3.org/1999/xlink" contentStyleType="text/css" data-diagram-type="CLASS" height="524px" preserveAspectRatio="none" style="width:490px;height:524px;background:#FFFFFF;" version="1.1" viewBox="0 0 490 524" width="490px" zoomAndPan="magnify"><?plantuml 1.2026.5?><defs/><g><g class="title" data-source-line="3"><text fill="#000000" font-family="sans-serif" font-size="14" font-weight="700" lengthAdjust="spacing" textLength="252.9707" x="115.4408" y="23.5352">A traffic police officer at a junction</text></g><!--class TrafficMediator--><g class="entity" data-qualified-name="TrafficMediator" data-source-line="4" id="ent0001"><rect fill="#F1F1F1" height="98.0859" rx="2.5" ry="2.5" style="stroke:#181818;stroke-width:0.5;" width="194.8066" x="182.64" y="44.4883"/><ellipse cx="224.1759" cy="64.7988" fill="#B4A7E5" rx="11" ry="11" style="stroke:#181818;stroke-width:1;"/><path d="M220.6037,61.064 L220.6037,58.9058 L227.9831,58.9058 L227.9831,61.064 L225.5177,61.064 L225.5177,69.1406 L227.9831,69.1406 L227.9831,71.2988 L220.6037,71.2988 L220.6037,69.1406 L223.069,69.1406 L223.069,61.064 Z " fill="#000000"/><text fill="#000000" font-family="sans-serif" font-size="12" font-style="italic" lengthAdjust="spacing" textLength="64.0137" x="263.9849" y="61.0898">&#171;Mediator&#187;</text><text fill="#000000" font-family="sans-serif" font-size="14" font-style="italic" lengthAdjust="spacing" textLength="103.8379" x="244.0728" y="77.1563">TrafficMediator</text><line style="stroke:#181818;stroke-width:0.5;" x1="183.64" x2="376.4466" y1="85.1094" y2="85.1094"/><text fill="#000000" font-family="sans-serif" font-size="14" lengthAdjust="spacing" textLength="116.5322" x="188.64" y="102.6445">+receive(Vehicle)</text><text fill="#000000" font-family="sans-serif" font-size="14" lengthAdjust="spacing" textLength="182.8066" x="188.64" y="119.1328">+askPermitToPass(Vehicle)</text><text fill="#000000" font-family="sans-serif" font-size="14" lengthAdjust="spacing" textLength="102.8398" x="188.64" y="135.6211">+done(Vehicle)</text></g><!--class TrafficPolice--><g class="entity" data-qualified-name="TrafficPolice" data-source-line="9" id="ent0002"><rect fill="#F1F1F1" height="40.6211" rx="2.5" ry="2.5" style="stroke:#181818;stroke-width:0.5;" width="144.0508" x="146.02" y="202.5683"/><ellipse cx="161.02" cy="222.8788" fill="#ADD1B2" rx="11" ry="11" style="stroke:#181818;stroke-width:1;"/><path d="M163.4931,229.0219 Q162.9121,229.3207 162.2729,229.4701 Q161.6338,229.6196 160.9282,229.6196 Q158.4214,229.6196 157.1015,227.9677 Q155.7817,226.3158 155.7817,223.1947 Q155.7817,220.0654 157.1015,218.4135 Q158.4214,216.7616 160.9282,216.7616 Q161.6338,216.7616 162.2812,216.9111 Q162.9287,217.0605 163.4931,217.3593 L163.4931,220.082 Q162.8623,219.5009 162.2688,219.2311 Q161.6753,218.9613 161.0444,218.9613 Q159.6997,218.9613 159.0149,220.028 Q158.3301,221.0946 158.3301,223.1947 Q158.3301,225.2865 159.0149,226.3532 Q159.6997,227.4198 161.0444,227.4198 Q161.6753,227.4198 162.2688,227.1501 Q162.8623,226.8803 163.4931,226.2992 Z " fill="#000000"/><text fill="#000000" font-family="sans-serif" font-size="12" font-style="italic" lengthAdjust="spacing" textLength="116.0508" x="173.02" y="219.1698">&#171;ConcreteMediator&#187;</text><text fill="#000000" font-family="sans-serif" font-size="14" lengthAdjust="spacing" textLength="83.2275" x="189.4316" y="235.2362">TrafficPolice</text></g><!--class Vehicle--><g class="entity" data-qualified-name="Vehicle" data-source-line="10" id="ent0003"><rect fill="#F1F1F1" height="114.5742" rx="2.5" ry="2.5" style="stroke:#181818;stroke-width:0.5;" width="128.0879" x="7" y="303.1983"/><ellipse cx="35.4886" cy="323.5088" fill="#B4A7E5" rx="11" ry="11" style="stroke:#181818;stroke-width:1;"/><path d="M31.9163,319.774 L31.9163,317.6158 L39.2957,317.6158 L39.2957,319.774 L36.8304,319.774 L36.8304,327.8506 L39.2957,327.8506 L39.2957,330.0088 L31.9163,330.0088 L31.9163,327.8506 L34.3816,327.8506 L34.3816,319.774 Z " fill="#000000"/><text fill="#000000" font-family="sans-serif" font-size="12" font-style="italic" lengthAdjust="spacing" textLength="70.1133" x="50.486" y="319.7998">&#171;Colleague&#187;</text><text fill="#000000" font-family="sans-serif" font-size="14" font-style="italic" lengthAdjust="spacing" textLength="48.7061" x="61.1896" y="335.8663">Vehicle</text><line style="stroke:#181818;stroke-width:0.5;" x1="8" x2="134.0879" y1="343.8194" y2="343.8194"/><text fill="#000000" font-family="sans-serif" font-size="14" lengthAdjust="spacing" textLength="83.5078" x="13" y="361.3545">+approach()</text><text fill="#000000" font-family="sans-serif" font-size="14" lengthAdjust="spacing" textLength="74.9561" x="13" y="377.8428">+proceed()</text><text fill="#000000" font-family="sans-serif" font-size="14" lengthAdjust="spacing" textLength="58.8301" x="13" y="394.3311">+stopp()</text><text fill="#000000" font-family="sans-serif" font-size="14" lengthAdjust="spacing" textLength="116.0879" x="13" y="410.8194">+waitForAWhile()</text></g><!--class Car--><g class="entity" data-qualified-name="Car" data-source-line="16" id="ent0004"><rect fill="#F1F1F1" height="32" rx="2.5" ry="2.5" style="stroke:#181818;stroke-width:0.5;" width="55.1465" x="315.47" y="477.7683"/><ellipse cx="330.47" cy="493.7683" fill="#ADD1B2" rx="11" ry="11" style="stroke:#181818;stroke-width:1;"/><path d="M332.9431,499.9113 Q332.3621,500.2102 331.7229,500.3596 Q331.0838,500.509 330.3782,500.509 Q327.8714,500.509 326.5515,498.8571 Q325.2317,497.2053 325.2317,494.0842 Q325.2317,490.9548 326.5515,489.3029 Q327.8714,487.6511 330.3782,487.6511 Q331.0838,487.6511 331.7312,487.8005 Q332.3787,487.9499 332.9431,488.2488 L332.9431,490.9714 Q332.3123,490.3904 331.7188,490.1206 Q331.1253,489.8508 330.4944,489.8508 Q329.1497,489.8508 328.4649,490.9175 Q327.7801,491.9841 327.7801,494.0842 Q327.7801,496.176 328.4649,497.2426 Q329.1497,498.3093 330.4944,498.3093 Q331.1253,498.3093 331.7188,498.0395 Q332.3123,497.7697 332.9431,497.1887 Z " fill="#000000"/><text fill="#000000" font-family="sans-serif" font-size="14" lengthAdjust="spacing" textLength="23.1465" x="344.47" y="499.0593">Car</text></g><!--class Thread--><g class="entity" data-qualified-name="Thread" data-source-line="17" id="ent0005"><rect fill="#F1F1F1" height="32" rx="2.5" ry="2.5" style="stroke:#181818;stroke-width:0.5;" width="79.6123" x="396.24" y="344.4783"/><ellipse cx="411.24" cy="360.4783" fill="#ADD1B2" rx="11" ry="11" style="stroke:#181818;stroke-width:1;"/><path d="M413.7131,366.6213 Q413.1321,366.9202 412.4929,367.0696 Q411.8538,367.219 411.1482,367.219 Q408.6414,367.219 407.3215,365.5671 Q406.0017,363.9153 406.0017,360.7942 Q406.0017,357.6648 407.3215,356.0129 Q408.6414,354.3611 411.1482,354.3611 Q411.8538,354.3611 412.5012,354.5105 Q413.1487,354.6599 413.7131,354.9588 L413.7131,357.6814 Q413.0823,357.1004 412.4888,356.8306 Q411.8953,356.5608 411.2644,356.5608 Q409.9197,356.5608 409.2349,357.6275 Q408.5501,358.6941 408.5501,360.7942 Q408.5501,362.886 409.2349,363.9526 Q409.9197,365.0193 411.2644,365.0193 Q411.8953,365.0193 412.4888,364.7495 Q413.0823,364.4797 413.7131,363.8987 Z " fill="#000000"/><text fill="#000000" font-family="sans-serif" font-size="14" lengthAdjust="spacing" textLength="47.6123" x="425.24" y="365.7693">Thread</text></g><!--class Junction--><g class="entity" data-qualified-name="Junction" data-source-line="18" id="ent0006"><rect fill="#F1F1F1" height="56.4883" rx="2.5" ry="2.5" style="stroke:#181818;stroke-width:0.5;" width="119.6182" x="170.23" y="332.2383"/><ellipse cx="199.695" cy="348.2383" fill="#ADD1B2" rx="11" ry="11" style="stroke:#181818;stroke-width:1;"/><path d="M202.1682,354.3813 Q201.5871,354.6802 200.948,354.8296 Q200.3088,354.979 199.6032,354.979 Q197.0964,354.979 195.7766,353.3271 Q194.4568,351.6753 194.4568,348.5542 Q194.4568,345.4248 195.7766,343.7729 Q197.0964,342.1211 199.6032,342.1211 Q200.3088,342.1211 200.9563,342.2705 Q201.6037,342.4199 202.1682,342.7188 L202.1682,345.4414 Q201.5373,344.8604 200.9438,344.5906 Q200.3503,344.3208 199.7195,344.3208 Q198.3747,344.3208 197.6899,345.3875 Q197.0051,346.4541 197.0051,348.5542 Q197.0051,350.646 197.6899,351.7126 Q198.3747,352.7793 199.7195,352.7793 Q200.3503,352.7793 200.9438,352.5095 Q201.5373,352.2397 202.1682,351.6587 Z " fill="#000000"/><text fill="#000000" font-family="sans-serif" font-size="14" lengthAdjust="spacing" textLength="55.4736" x="216.9095" y="353.5293">Junction</text><line style="stroke:#181818;stroke-width:0.5;" x1="171.23" x2="288.8482" y1="364.2383" y2="364.2383"/><text fill="#000000" font-family="sans-serif" font-size="14" lengthAdjust="spacing" textLength="107.6182" x="176.23" y="381.7734">-busy : boolean</text></g><!--reverse link TrafficMediator to TrafficPolice--><g class="link" data-entity-1="ent0001" data-entity-2="ent0002" data-link-type="extension" data-source-line="21" id="lnk7"><path codeLine="21" d="M248.5477,159.2207 C238.5477,179.7507 235.36,186.3283 227.68,202.0883" fill="none" id="TrafficMediator-backto-TrafficPolice" style="stroke:#181818;stroke-width:1;stroke-dasharray:7,7;"/><polygon fill="none" points="256.43,143.0383,243.1536,156.5932,253.9418,161.8481,256.43,143.0383" style="stroke:#181818;stroke-width:1;stroke-linejoin:miter;stroke-miterlimit:10;"/></g><!--reverse link Vehicle to Car--><g class="link" data-entity-1="ent0003" data-entity-2="ent0004" data-link-type="extension" data-source-line="22" id="lnk8"><path codeLine="22" d="M150.908,417.1225 C156.718,420.6825 147.25,414.6883 153.04,417.7683 C208.15,447.0783 277.29,471.5383 315.12,483.9583" fill="none" id="Vehicle-backto-Car" style="stroke:#181818;stroke-width:1;stroke-dasharray:7,7;"/><polygon fill="none" points="135.56,407.7183,147.7732,422.2385,154.0427,412.0066,135.56,407.7183" style="stroke:#181818;stroke-width:1;stroke-linejoin:miter;stroke-miterlimit:10;"/></g><!--reverse link Thread to Car--><g class="link" data-entity-1="ent0005" data-entity-2="ent0004" data-link-type="extension" data-source-line="23" id="lnk9"><path codeLine="23" d="M414.786,391.487 C396.866,416.787 371.7,452.3183 353.83,477.5483" fill="none" id="Thread-backto-Car" style="stroke:#181818;stroke-width:1;"/><polygon fill="none" points="425.19,376.7983,409.8898,388.019,419.6822,394.9549,425.19,376.7983" style="stroke:#181818;stroke-width:1;stroke-linejoin:miter;stroke-miterlimit:10;"/></g><!--link TrafficPolice to Junction--><g class="link" data-entity-1="ent0002" data-entity-2="ent0006" data-link-type="dependency" data-source-line="24" id="lnk10"><path codeLine="24" d="M219.79,243.5983 C221.84,266.8083 224.8295,300.5277 227.1495,326.7577" fill="none" id="TrafficPolice-to-Junction" style="stroke:#181818;stroke-width:1;"/><polygon fill="#181818" points="227.59,331.7383,230.7815,322.4209,227.1495,326.7577,222.8126,323.1257,227.59,331.7383" style="stroke:#181818;stroke-width:1;stroke-linejoin:miter;stroke-miterlimit:10;"/></g><!--link TrafficPolice to Vehicle--><g class="link" data-entity-1="ent0002" data-entity-2="ent0003" data-link-type="aggregation" data-source-line="25" id="lnk11"><path codeLine="25" d="M187.8494,251.7344 C170.9694,267.3044 159.0258,278.3288 136.1758,299.3988" fill="none" id="TrafficPolice-Vehicle" style="stroke:#181818;stroke-width:1;"/><polygon fill="none" points="196.67,243.5983,189.5476,244.7261,187.8494,251.7344,194.9717,250.6065,196.67,243.5983" style="stroke:#181818;stroke-width:1;stroke-linejoin:miter;stroke-miterlimit:10;"/><polygon fill="#181818" points="132.5,302.7883,141.828,299.6279,136.1758,299.3988,136.4049,293.7466,132.5,302.7883" style="stroke:#181818;stroke-width:1;stroke-linejoin:miter;stroke-miterlimit:10;"/><text fill="#000000" font-family="sans-serif" font-size="13" lengthAdjust="spacing" textLength="6.2651" x="133.6405" y="292.4297">*</text></g><!--link Car to TrafficMediator--><g class="link" data-entity-1="ent0004" data-entity-2="ent0001" data-link-type="dependency" data-source-line="26" id="lnk12"><path codeLine="26" d="M341.93,477.5583 C338.6,434.2583 327.74,306.7883 308.04,202.5683 C304.32,182.8683 300.3264,166.2673 295.3464,147.7173" fill="none" id="Car-to-TrafficMediator" style="stroke:#181818;stroke-width:1;"/><polygon fill="#181818" points="294.05,142.8883,292.5203,152.6176,295.3464,147.7173,300.2467,150.5434,294.05,142.8883" style="stroke:#181818;stroke-width:1;stroke-linejoin:miter;stroke-miterlimit:10;"/></g><?plantuml-src PP1RImCn48NVyok6FgtA5fzbAPI2e20KBFeycvswOxD9I6QLUldlPc-z-PQJSuRlpCGTMuy16z06OroA12vReGVjx3D_4TogcYi2QhpieQ6cf12Li1Y29KZ0xPOrU6TO4xXEK00KG7XlhHPsLh4L2bjC_cQ8Fr75A2v0KKpFnGA-5S0D1DB47vIzKCtQq5N_YN6tfj2mRDmwbJmtAsTFuh-gtsD2hOTYHR5oLWSIEW9FUetJVSmOmhUM3eNG--1Grzb0Iq8JLQEAuhmVtv_8Sk_2yhLcGzcnoGh3rAaEXDKe7iVpz9WSoZRkuGvAvnBVfk5_j_gPpy-tKeVQdTLX1a3IUJxeioFa-U90lR1SvyskPzCbL9hkynSj_W00?></g></svg>