<svg xmlns="http://www.w3.org/2000/svg" xmlns:xlink="http://www.w3.org/1999/xlink" contentStyleType="text/css" data-diagram-type="CLASS" height="405px" preserveAspectRatio="none" style="width:558px;height:405px;background:#FFFFFF;" version="1.1" viewBox="0 0 558 405" width="558px" zoomAndPan="magnify"><?plantuml 1.2026.5?><defs/><g><g class="title" data-source-line="3"><text fill="#000000" font-family="sans-serif" font-size="14" font-weight="700" lengthAdjust="spacing" textLength="113.6475" x="218.9065" y="23.5352">A repeated task</text></g><!--class Task--><g class="entity" data-qualified-name="Task" data-source-line="5" id="ent0001"><rect fill="#F1F1F1" height="196.3945" rx="2.5" ry="2.5" style="stroke:#181818;stroke-width:0.5;" width="118.1074" x="106.72" y="44.4883"/><ellipse cx="146.1118" cy="60.4883" fill="#A9DCDF" rx="11" ry="11" style="stroke:#181818;stroke-width:1;"/><path d="M145.9751,55.8364 L144.8213,60.9082 L147.1372,60.9082 Z M144.481,53.5952 L147.4776,53.5952 L150.8228,65.9883 L148.3741,65.9883 L147.6104,62.9253 L144.3316,62.9253 L143.5845,65.9883 L141.1358,65.9883 Z " fill="#000000"/><text fill="#000000" font-family="sans-serif" font-size="14" font-style="italic" lengthAdjust="spacing" textLength="31.9033" x="165.5323" y="65.7793">Task</text><line style="stroke:#181818;stroke-width:0.5;" x1="107.72" x2="223.8274" y1="76.4883" y2="76.4883"/><text fill="#000000" font-family="sans-serif" font-size="14" lengthAdjust="spacing" textLength="99.4014" x="112.72" y="94.0234">#name : String</text><text fill="#000000" font-family="sans-serif" font-size="14" lengthAdjust="spacing" textLength="90.6377" x="112.72" y="110.5117">#interval : int</text><text fill="#000000" font-family="sans-serif" font-size="14" lengthAdjust="spacing" textLength="106.1074" x="112.72" y="127">#repetition : int</text><line style="stroke:#181818;stroke-width:0.5;" x1="107.72" x2="223.8274" y1="133.9531" y2="133.9531"/><text fill="#000000" font-family="sans-serif" font-size="14" lengthAdjust="spacing" textLength="86.5361" x="112.72" y="151.4883">+{final} run()</text><text fill="#000000" font-family="sans-serif" font-size="14" lengthAdjust="spacing" textLength="72.6455" x="112.72" y="167.9766">+prepare()</text><text fill="#000000" font-family="sans-serif" font-size="14" lengthAdjust="spacing" textLength="64.1211" x="112.72" y="184.4648">+before()</text><text fill="#000000" font-family="sans-serif" font-size="14" font-style="italic" lengthAdjust="spacing" textLength="69.5488" x="112.72" y="200.9531">+doTask()</text><text fill="#000000" font-family="sans-serif" font-size="14" lengthAdjust="spacing" textLength="51.8779" x="112.72" y="217.4414">+after()</text><text fill="#000000" font-family="sans-serif" font-size="14" lengthAdjust="spacing" textLength="55.6719" x="112.72" y="233.9297">+clean()</text></g><!--class Fax--><g class="entity" data-qualified-name="Fax" data-source-line="16" id="ent0002"><rect fill="#F1F1F1" height="56.4883" rx="2.5" ry="2.5" style="stroke:#181818;stroke-width:0.5;" width="81.5488" x="7" y="317.3683"/><ellipse cx="33.5765" cy="333.3683" fill="#ADD1B2" rx="11" ry="11" style="stroke:#181818;stroke-width:1;"/><path d="M36.0497,339.5113 Q35.4686,339.8102 34.8294,339.9596 Q34.1903,340.109 33.4847,340.109 Q30.9779,340.109 29.6581,338.4571 Q28.3382,336.8053 28.3382,333.6842 Q28.3382,330.5548 29.6581,328.9029 Q30.9779,327.2511 33.4847,327.2511 Q34.1903,327.2511 34.8377,327.4005 Q35.4852,327.5499 36.0497,327.8488 L36.0497,330.5714 Q35.4188,329.9904 34.8253,329.7206 Q34.2318,329.4508 33.6009,329.4508 Q32.2562,329.4508 31.5714,330.5175 Q30.8866,331.5841 30.8866,333.6842 Q30.8866,335.776 31.5714,336.8426 Q32.2562,337.9093 33.6009,337.9093 Q34.2318,337.9093 34.8253,337.6395 Q35.4188,337.3697 36.0497,336.7887 Z " fill="#000000"/><text fill="#000000" font-family="sans-serif" font-size="14" lengthAdjust="spacing" textLength="23.8232" x="50.1491" y="338.6593">Fax</text><line style="stroke:#181818;stroke-width:0.5;" x1="8" x2="87.5488" y1="349.3683" y2="349.3683"/><text fill="#000000" font-family="sans-serif" font-size="14" lengthAdjust="spacing" textLength="69.5488" x="13" y="366.9034">+doTask()</text></g><!--class Print--><g class="entity" data-qualified-name="Print" data-source-line="19" id="ent0003"><rect fill="#F1F1F1" height="89.4648" rx="2.5" ry="2.5" style="stroke:#181818;stroke-width:0.5;" width="84.6455" x="123.45" y="300.8883"/><ellipse cx="147.9932" cy="316.8883" fill="#ADD1B2" rx="11" ry="11" style="stroke:#181818;stroke-width:1;"/><path d="M150.4663,323.0313 Q149.8853,323.3302 149.2461,323.4796 Q148.6069,323.629 147.9014,323.629 Q145.3945,323.629 144.0747,321.9771 Q142.7549,320.3253 142.7549,317.2042 Q142.7549,314.0748 144.0747,312.4229 Q145.3945,310.7711 147.9014,310.7711 Q148.6069,310.7711 149.2544,310.9205 Q149.9019,311.0699 150.4663,311.3688 L150.4663,314.0914 Q149.8354,313.5104 149.2419,313.2406 Q148.6484,312.9708 148.0176,312.9708 Q146.6729,312.9708 145.988,314.0375 Q145.3032,315.1041 145.3032,317.2042 Q145.3032,319.296 145.988,320.3626 Q146.6729,321.4293 148.0176,321.4293 Q148.6484,321.4293 149.2419,321.1595 Q149.8354,320.8897 150.4663,320.3087 Z " fill="#000000"/><text fill="#000000" font-family="sans-serif" font-size="14" lengthAdjust="spacing" textLength="31.4385" x="164.1139" y="322.1793">Print</text><line style="stroke:#181818;stroke-width:0.5;" x1="124.45" x2="207.0955" y1="332.8883" y2="332.8883"/><text fill="#000000" font-family="sans-serif" font-size="14" lengthAdjust="spacing" textLength="72.6455" x="129.45" y="350.4234">+prepare()</text><text fill="#000000" font-family="sans-serif" font-size="14" lengthAdjust="spacing" textLength="69.5488" x="129.45" y="366.9117">+doTask()</text><text fill="#000000" font-family="sans-serif" font-size="14" lengthAdjust="spacing" textLength="55.6719" x="129.45" y="383.4">+clean()</text></g><!--class Scan--><g class="entity" data-qualified-name="Scan" data-source-line="24" id="ent0004"><rect fill="#F1F1F1" height="56.4883" rx="2.5" ry="2.5" style="stroke:#181818;stroke-width:0.5;" width="81.5488" x="243" y="317.3683"/><ellipse cx="266.2881" cy="333.3683" fill="#ADD1B2" rx="11" ry="11" style="stroke:#181818;stroke-width:1;"/><path d="M268.7612,339.5113 Q268.1802,339.8102 267.541,339.9596 Q266.9019,340.109 266.1963,340.109 Q263.6895,340.109 262.3696,338.4571 Q261.0498,336.8053 261.0498,333.6842 Q261.0498,330.5548 262.3696,328.9029 Q263.6895,327.2511 266.1963,327.2511 Q266.9019,327.2511 267.5493,327.4005 Q268.1968,327.5499 268.7612,327.8488 L268.7612,330.5714 Q268.1304,329.9904 267.5369,329.7206 Q266.9434,329.4508 266.3125,329.4508 Q264.9678,329.4508 264.283,330.5175 Q263.5981,331.5841 263.5981,333.6842 Q263.5981,335.776 264.283,336.8426 Q264.9678,337.9093 266.3125,337.9093 Q266.9434,337.9093 267.5369,337.6395 Q268.1304,337.3697 268.7612,336.7887 Z " fill="#000000"/><text fill="#000000" font-family="sans-serif" font-size="14" lengthAdjust="spacing" textLength="31.1309" x="282.1299" y="338.6593">Scan</text><line style="stroke:#181818;stroke-width:0.5;" x1="244" x2="323.5488" y1="349.3683" y2="349.3683"/><text fill="#000000" font-family="sans-serif" font-size="14" lengthAdjust="spacing" textLength="69.5488" x="249" y="366.9034">+doTask()</text></g><g class="entity" data-qualified-name="GMN8" data-source-line="33" id="ent0009"><path d="M260.08,99.4083 L260.08,138.6883 L225.24,142.6883 L260.08,146.6883 L260.08,185.961 A0,0 0 0 0 260.08,185.961 L543.4604,185.961 A0,0 0 0 0 543.4604,185.961 L543.4604,109.4083 L533.4604,99.4083 L260.08,99.4083 A0,0 0 0 0 260.08,99.4083" fill="#FEFFDD" style="stroke:#181818;stroke-width:0.5;"/><path d="M533.4604,99.4083 L533.4604,109.4083 L543.4604,109.4083 L533.4604,99.4083" fill="#FEFFDD" style="stroke:#181818;stroke-width:0.5;"/><text fill="#000000" font-family="sans-serif" font-size="13" font-weight="700" lengthAdjust="spacing" textLength="262.3804" x="266.08" y="116.9766">run() is the template method, and final.</text><text fill="#000000" font-family="sans-serif" font-size="13" lengthAdjust="spacing" textLength="248.0029" x="266.08" y="132.2872">prepare, then (before, doTask, after) as</text><text fill="#000000" font-family="sans-serif" font-size="13" lengthAdjust="spacing" textLength="209.3774" x="266.08" y="147.5977">many times as asked, then clean.</text><text fill="#000000" font-family="sans-serif" font-size="13" lengthAdjust="spacing" textLength="254.3062" x="266.08" y="162.9083">doTask() must be written; the others are</text><text fill="#000000" font-family="sans-serif" font-size="13" lengthAdjust="spacing" textLength="132.6724" x="266.08" y="178.2188">hooks with a default.</text></g><!--reverse link Task to Fax--><g class="link" data-entity-1="ent0001" data-entity-2="ent0002" data-link-type="extension" data-source-line="28" id="lnk5"><path codeLine="28" d="M99.3873,256.7311 C83.0673,284.5311 75.68,297.0983 64,316.9783" fill="none" id="Task-backto-Fax" style="stroke:#181818;stroke-width:1;"/><polygon fill="none" points="108.5,241.2083,94.213,253.6936,104.5616,259.7687,108.5,241.2083" style="stroke:#181818;stroke-width:1;stroke-linejoin:miter;stroke-miterlimit:10;"/></g><!--reverse link Task to Print--><g class="link" data-entity-1="ent0001" data-entity-2="ent0003" data-link-type="extension" data-source-line="29" id="lnk6"><path codeLine="29" d="M165.77,259.2083 C165.77,280.0083 165.77,282.9683 165.77,300.5383" fill="none" id="Task-backto-Print" style="stroke:#181818;stroke-width:1;"/><polygon fill="none" points="165.77,241.2083,159.77,259.2083,171.77,259.2083,165.77,241.2083" style="stroke:#181818;stroke-width:1;stroke-linejoin:miter;stroke-miterlimit:10;"/></g><!--reverse link Task to Scan--><g class="link" data-entity-1="ent0001" data-entity-2="ent0004" data-link-type="extension" data-source-line="30" id="lnk7"><path codeLine="30" d="M232.1627,256.7311 C248.4827,284.5311 255.87,297.0983 267.54,316.9783" fill="none" id="Task-backto-Scan" style="stroke:#181818;stroke-width:1;"/><polygon fill="none" points="223.05,241.2083,226.9884,259.7687,237.337,253.6936,223.05,241.2083" style="stroke:#181818;stroke-width:1;stroke-linejoin:miter;stroke-miterlimit:10;"/></g><?plantuml-src PL5DJyCm3BtdLpo9owPzm1acf5sGk26DF-2sxXgjJQh4POon_uwRTcC3AOhY5_lv-Jdkh6ifK8EyfXZN8i5cdV1hxjt6VZ4UJ6KB1ZUj7D1mat68HgpKZ3K2jqp21OJYpXZAeWJAPU32ku8u6k0EZXh68pRAxhO9iKuuV52jg3uJrBCfi_Nk0ivmBAsZ-eJGkSaq8QtcKU0nohZqb-1uLd12uVls8qwbDXlVUStKKvtCeFA5FfF8sM_9-UjDrShuUTlrXlqluoOdzv_I93jMtuj5t_8gIbskuhxS6EU54Uos4lWoMQc4g-mv-G0R8HL3T2srBa0N8vKlvY1N81csNDrdprenofxtwGwJmQtvg6i-63C5HKrjo1qWjk6eiPuT5sDP6d2fAUTnq7HHr7hiWnLXzvJKUBs2LWRMrChxNSJUIWL2mILrjImDgxv-iXy0?></g></svg>