<svg xmlns="http://www.w3.org/2000/svg" xmlns:xlink="http://www.w3.org/1999/xlink" contentStyleType="text/css" data-diagram-type="CLASS" height="421px" preserveAspectRatio="none" style="width:683px;height:421px;background:#FFFFFF;" version="1.1" viewBox="0 0 683 421" width="683px" zoomAndPan="magnify"><?plantuml 1.2026.5?><defs/><g><g class="title" data-source-line="3"><text fill="#000000" font-family="sans-serif" font-size="14" font-weight="700" lengthAdjust="spacing" textLength="491.7842" x="92.6077" y="23.5352">Composite &#8212; GoF's equipment example, where the roll-up is money</text></g><!--class Equipment--><g class="entity" data-qualified-name="Equipment" data-source-line="6" id="ent0001"><rect fill="#F1F1F1" height="114.5742" rx="2.5" ry="2.5" style="stroke:#181818;stroke-width:0.5;" width="197.1924" x="21.88" y="191.7283"/><ellipse cx="78.0045" cy="212.0388" fill="#A9DCDF" rx="11" ry="11" style="stroke:#181818;stroke-width:1;"/><path d="M77.8678,207.387 L76.714,212.4588 L79.0299,212.4588 Z M76.3737,205.1458 L79.3702,205.1458 L82.7154,217.5388 L80.2667,217.5388 L79.503,214.4758 L76.2242,214.4758 L75.4772,217.5388 L73.0284,217.5388 Z " fill="#000000"/><text fill="#000000" font-family="sans-serif" font-size="12" font-style="italic" lengthAdjust="spacing" textLength="80.4434" x="96.5045" y="208.3298">&#171;Component&#187;</text><text fill="#000000" font-family="sans-serif" font-size="14" font-style="italic" lengthAdjust="spacing" textLength="72.7412" x="100.3556" y="224.3963">Equipment</text><line style="stroke:#181818;stroke-width:0.5;" x1="22.88" x2="218.0724" y1="232.3494" y2="232.3494"/><text fill="#000000" font-family="sans-serif" font-size="14" lengthAdjust="spacing" textLength="110.7832" x="27.88" y="249.8845">+name() : String</text><text fill="#000000" font-family="sans-serif" font-size="14" lengthAdjust="spacing" textLength="93.2217" x="27.88" y="266.3728">+power() : int</text><text fill="#000000" font-family="sans-serif" font-size="14" lengthAdjust="spacing" textLength="148.5381" x="27.88" y="282.8611">+netPrice() : Currency</text><text fill="#000000" font-family="sans-serif" font-size="14" lengthAdjust="spacing" textLength="185.1924" x="27.88" y="299.3494">+discountPrice() : Currency</text></g><!--class FloppyDisk--><g class="entity" data-qualified-name="FloppyDisk" data-source-line="13" id="ent0002"><rect fill="#F1F1F1" height="40.6211" rx="2.5" ry="2.5" style="stroke:#181818;stroke-width:0.5;" width="106.9424" x="7" y="367.3083"/><ellipse cx="22" cy="387.6188" fill="#ADD1B2" rx="11" ry="11" style="stroke:#181818;stroke-width:1;"/><path d="M24.4731,393.7619 Q23.8921,394.0607 23.2529,394.2101 Q22.6138,394.3596 21.9082,394.3596 Q19.4014,394.3596 18.0815,392.7077 Q16.7617,391.0558 16.7617,387.9347 Q16.7617,384.8054 18.0815,383.1535 Q19.4014,381.5016 21.9082,381.5016 Q22.6138,381.5016 23.2612,381.6511 Q23.9087,381.8005 24.4731,382.0993 L24.4731,384.822 Q23.8423,384.2409 23.2488,383.9711 Q22.6553,383.7013 22.0244,383.7013 Q20.6797,383.7013 19.9949,384.768 Q19.3101,385.8346 19.3101,387.9347 Q19.3101,390.0265 19.9949,391.0932 Q20.6797,392.1598 22.0244,392.1598 Q22.6553,392.1598 23.2488,391.8901 Q23.8423,391.6203 24.4731,391.0392 Z " fill="#000000"/><text fill="#000000" font-family="sans-serif" font-size="12" font-style="italic" lengthAdjust="spacing" textLength="36.6973" x="55.1226" y="383.9098">&#171;Leaf&#187;</text><text fill="#000000" font-family="sans-serif" font-size="14" lengthAdjust="spacing" textLength="74.9424" x="36" y="399.9763">FloppyDisk</text></g><!--class Card--><g class="entity" data-qualified-name="Card" data-source-line="14" id="ent0003"><rect fill="#F1F1F1" height="40.6211" rx="2.5" ry="2.5" style="stroke:#181818;stroke-width:0.5;" width="64.6973" x="149.12" y="367.3083"/><ellipse cx="164.12" cy="387.6188" fill="#ADD1B2" rx="11" ry="11" style="stroke:#181818;stroke-width:1;"/><path d="M166.5931,393.7619 Q166.0121,394.0607 165.3729,394.2101 Q164.7338,394.3596 164.0282,394.3596 Q161.5214,394.3596 160.2015,392.7077 Q158.8817,391.0558 158.8817,387.9347 Q158.8817,384.8054 160.2015,383.1535 Q161.5214,381.5016 164.0282,381.5016 Q164.7338,381.5016 165.3812,381.6511 Q166.0287,381.8005 166.5931,382.0993 L166.5931,384.822 Q165.9623,384.2409 165.3688,383.9711 Q164.7753,383.7013 164.1444,383.7013 Q162.7997,383.7013 162.1149,384.768 Q161.4301,385.8346 161.4301,387.9347 Q161.4301,390.0265 162.1149,391.0932 Q162.7997,392.1598 164.1444,392.1598 Q164.7753,392.1598 165.3688,391.8901 Q165.9623,391.6203 166.5931,391.0392 Z " fill="#000000"/><text fill="#000000" font-family="sans-serif" font-size="12" font-style="italic" lengthAdjust="spacing" textLength="36.6973" x="176.12" y="383.9098">&#171;Leaf&#187;</text><text fill="#000000" font-family="sans-serif" font-size="14" lengthAdjust="spacing" textLength="31.958" x="178.4896" y="399.9763">Card</text></g><!--class CompositeEquipment--><g class="entity" data-qualified-name="CompositeEquipment" data-source-line="15" id="ent0004"><rect fill="#F1F1F1" height="65.1094" rx="2.5" ry="2.5" style="stroke:#181818;stroke-width:0.5;" width="186.918" x="202.01" y="46.5583"/><ellipse cx="221.1453" cy="66.8688" fill="#A9DCDF" rx="11" ry="11" style="stroke:#181818;stroke-width:1;"/><path d="M221.0085,62.217 L219.8547,67.2888 L222.1706,67.2888 Z M219.5144,59.9758 L222.511,59.9758 L225.8562,72.3688 L223.4075,72.3688 L222.6438,69.3058 L219.365,69.3058 L218.6179,72.3688 L216.1692,72.3688 Z " fill="#000000"/><text fill="#000000" font-family="sans-serif" font-size="12" font-style="italic" lengthAdjust="spacing" textLength="75.1348" x="271.3611" y="63.1598">&#171;Composite&#187;</text><text fill="#000000" font-family="sans-serif" font-size="14" font-style="italic" lengthAdjust="spacing" textLength="145.7285" x="236.0642" y="79.2263">CompositeEquipment</text><line style="stroke:#181818;stroke-width:0.5;" x1="203.01" x2="387.928" y1="87.1794" y2="87.1794"/><text fill="#000000" font-family="sans-serif" font-size="14" lengthAdjust="spacing" textLength="174.918" x="208.01" y="104.7145">-parts : List&lt;Equipment&gt;</text></g><!--class Chassis--><g class="entity" data-qualified-name="Chassis" data-source-line="18" id="ent0005"><rect fill="#F1F1F1" height="32" rx="2.5" ry="2.5" style="stroke:#181818;stroke-width:0.5;" width="83.5635" x="253.69" y="233.0183"/><ellipse cx="268.69" cy="249.0183" fill="#ADD1B2" rx="11" ry="11" style="stroke:#181818;stroke-width:1;"/><path d="M271.1631,255.1613 Q270.5821,255.4602 269.9429,255.6096 Q269.3038,255.759 268.5982,255.759 Q266.0914,255.759 264.7715,254.1071 Q263.4517,252.4553 263.4517,249.3342 Q263.4517,246.2048 264.7715,244.5529 Q266.0914,242.9011 268.5982,242.9011 Q269.3038,242.9011 269.9512,243.0505 Q270.5987,243.1999 271.1631,243.4987 L271.1631,246.2214 Q270.5323,245.6404 269.9388,245.3706 Q269.3453,245.1008 268.7144,245.1008 Q267.3697,245.1008 266.6849,246.1675 Q266.0001,247.2341 266.0001,249.3342 Q266.0001,251.426 266.6849,252.4926 Q267.3697,253.5593 268.7144,253.5593 Q269.3453,253.5593 269.9388,253.2895 Q270.5323,253.0197 271.1631,252.4387 Z " fill="#000000"/><text fill="#000000" font-family="sans-serif" font-size="14" lengthAdjust="spacing" textLength="51.5635" x="282.69" y="254.3093">Chassis</text></g><!--class Cabinet--><g class="entity" data-qualified-name="Cabinet" data-source-line="19" id="ent0006"><rect fill="#F1F1F1" height="32" rx="2.5" ry="2.5" style="stroke:#181818;stroke-width:0.5;" width="84.001" x="372.47" y="233.0183"/><ellipse cx="387.47" cy="249.0183" fill="#ADD1B2" rx="11" ry="11" style="stroke:#181818;stroke-width:1;"/><path d="M389.9431,255.1613 Q389.3621,255.4602 388.7229,255.6096 Q388.0838,255.759 387.3782,255.759 Q384.8714,255.759 383.5515,254.1071 Q382.2317,252.4553 382.2317,249.3342 Q382.2317,246.2048 383.5515,244.5529 Q384.8714,242.9011 387.3782,242.9011 Q388.0838,242.9011 388.7312,243.0505 Q389.3787,243.1999 389.9431,243.4987 L389.9431,246.2214 Q389.3123,245.6404 388.7188,245.3706 Q388.1253,245.1008 387.4944,245.1008 Q386.1497,245.1008 385.4649,246.1675 Q384.7801,247.2341 384.7801,249.3342 Q384.7801,251.426 385.4649,252.4926 Q386.1497,253.5593 387.4944,253.5593 Q388.1253,253.5593 388.7188,253.2895 Q389.3123,253.0197 389.9431,252.4387 Z " fill="#000000"/><text fill="#000000" font-family="sans-serif" font-size="14" lengthAdjust="spacing" textLength="52.001" x="401.47" y="254.3093">Cabinet</text></g><!--class Bus--><g class="entity" data-qualified-name="Bus" data-source-line="20" id="ent0007"><rect fill="#F1F1F1" height="32" rx="2.5" ry="2.5" style="stroke:#181818;stroke-width:0.5;" width="55.8779" x="491.53" y="233.0183"/><ellipse cx="506.53" cy="249.0183" fill="#ADD1B2" rx="11" ry="11" style="stroke:#181818;stroke-width:1;"/><path d="M509.0031,255.1613 Q508.4221,255.4602 507.7829,255.6096 Q507.1438,255.759 506.4382,255.759 Q503.9314,255.759 502.6115,254.1071 Q501.2917,252.4553 501.2917,249.3342 Q501.2917,246.2048 502.6115,244.5529 Q503.9314,242.9011 506.4382,242.9011 Q507.1438,242.9011 507.7912,243.0505 Q508.4387,243.1999 509.0031,243.4987 L509.0031,246.2214 Q508.3723,245.6404 507.7788,245.3706 Q507.1853,245.1008 506.5544,245.1008 Q505.2097,245.1008 504.5249,246.1675 Q503.8401,247.2341 503.8401,249.3342 Q503.8401,251.426 504.5249,252.4926 Q505.2097,253.5593 506.5544,253.5593 Q507.1853,253.5593 507.7788,253.2895 Q508.3723,253.0197 509.0031,252.4387 Z " fill="#000000"/><text fill="#000000" font-family="sans-serif" font-size="14" lengthAdjust="spacing" textLength="23.8779" x="520.53" y="254.3093">Bus</text></g><g class="entity" data-qualified-name="GMN15" data-source-line="31" id="ent0016"><path d="M423.94,43.4883 L423.94,75.1083 L389.11,79.1083 L423.94,83.1083 L423.94,114.7305 A0,0 0 0 0 423.94,114.7305 L668.9996,114.7305 A0,0 0 0 0 668.9996,114.7305 L668.9996,53.4883 L658.9996,43.4883 L423.94,43.4883 A0,0 0 0 0 423.94,43.4883" fill="#FEFFDD" style="stroke:#181818;stroke-width:0.5;"/><path d="M658.9996,43.4883 L658.9996,53.4883 L668.9996,53.4883 L658.9996,43.4883" fill="#FEFFDD" style="stroke:#181818;stroke-width:0.5;"/><text fill="#000000" font-family="sans-serif" font-size="13" lengthAdjust="spacing" textLength="178.1216" x="429.94" y="61.0566">netPrice() adds up the parts.</text><text fill="#000000" font-family="sans-serif" font-size="13" lengthAdjust="spacing" textLength="224.0596" x="429.94" y="76.3672">A cabinet holding a chassis holding</text><text fill="#000000" font-family="sans-serif" font-size="13" lengthAdjust="spacing" textLength="221.5205" x="429.94" y="91.6777">cards answers one number, and no</text><text fill="#000000" font-family="sans-serif" font-size="13" lengthAdjust="spacing" textLength="136.7095" x="429.94" y="106.9883">client writes the loop.</text></g><!--reverse link Equipment to FloppyDisk--><g class="link" data-entity-1="ent0001" data-entity-2="ent0002" data-link-type="extension" data-source-line="22" id="lnk8"><path codeLine="22" d="M88.3139,323.2397 C78.9139,344.6497 76.06,351.1283 69.13,366.9083" fill="none" id="Equipment-backto-FloppyDisk" style="stroke:#181818;stroke-width:1;"/><polygon fill="none" points="95.55,306.7583,82.82,320.8277,93.8077,325.6518,95.55,306.7583" style="stroke:#181818;stroke-width:1;stroke-linejoin:miter;stroke-miterlimit:10;"/></g><!--reverse link Equipment to Card--><g class="link" data-entity-1="ent0001" data-entity-2="ent0003" data-link-type="extension" data-source-line="23" id="lnk9"><path codeLine="23" d="M153.149,323.1942 C162.709,344.6042 165.62,351.1283 172.67,366.9083" fill="none" id="Equipment-backto-Card" style="stroke:#181818;stroke-width:1;"/><polygon fill="none" points="145.81,306.7583,147.6703,325.6405,158.6276,320.7479,145.81,306.7583" style="stroke:#181818;stroke-width:1;stroke-linejoin:miter;stroke-miterlimit:10;"/></g><!--reverse link Equipment to CompositeEquipment--><g class="link" data-entity-1="ent0001" data-entity-2="ent0004" data-link-type="extension" data-source-line="24" id="lnk10"><path codeLine="24" d="M192.527,178.8848 C220.067,152.4548 238.84,134.4483 262.14,112.0883" fill="none" id="Equipment-backto-CompositeEquipment" style="stroke:#181818;stroke-width:1;"/><polygon fill="none" points="179.54,191.3483,196.6815,183.2138,188.3724,174.5558,179.54,191.3483" style="stroke:#181818;stroke-width:1;stroke-linejoin:miter;stroke-miterlimit:10;"/></g><!--link CompositeEquipment to Equipment--><g class="link" data-entity-1="ent0004" data-entity-2="ent0001" data-link-type="aggregation" data-source-line="25" id="lnk11"><path codeLine="25" d="M205.4541,117.8432 C189.4241,126.7632 184.12,131.8083 171.47,144.7283 C158.6,157.8883 150.5433,170.4009 142.7433,186.8409" fill="none" id="CompositeEquipment-Equipment" style="stroke:#181818;stroke-width:1;"/><polygon fill="none" points="215.94,112.0083,208.7521,111.4305,205.4541,117.8432,212.642,118.421,215.94,112.0083" style="stroke:#181818;stroke-width:1;stroke-linejoin:miter;stroke-miterlimit:10;"/><polygon fill="#181818" points="140.6,191.3583,148.0718,184.9417,142.7433,186.8409,140.844,181.5124,140.6,191.3583" style="stroke:#181818;stroke-width:1;stroke-linejoin:miter;stroke-miterlimit:10;"/><text fill="#000000" font-family="sans-serif" font-size="13" lengthAdjust="spacing" textLength="32.1699" x="172.47" y="158.2966">parts</text><text fill="#000000" font-family="sans-serif" font-size="13" lengthAdjust="spacing" textLength="6.2651" x="136.7031" y="181.0045">*</text></g><!--reverse link CompositeEquipment to Chassis--><g class="link" data-entity-1="ent0004" data-entity-2="ent0005" data-link-type="extension" data-source-line="26" id="lnk12"><path codeLine="26" d="M295.47,130.0883 C295.47,166.2483 295.47,205.6083 295.47,232.7883" fill="none" id="CompositeEquipment-backto-Chassis" style="stroke:#181818;stroke-width:1;"/><polygon fill="none" points="295.47,112.0883,289.47,130.0883,301.47,130.0883,295.47,112.0883" style="stroke:#181818;stroke-width:1;stroke-linejoin:miter;stroke-miterlimit:10;"/></g><!--reverse link CompositeEquipment to Cabinet--><g class="link" data-entity-1="ent0004" data-entity-2="ent0006" data-link-type="extension" data-source-line="27" id="lnk13"><path codeLine="27" d="M328.5388,126.7735 C354.1688,162.9335 384.41,205.6083 403.67,232.7883" fill="none" id="CompositeEquipment-backto-Cabinet" style="stroke:#181818;stroke-width:1;"/><polygon fill="none" points="318.13,112.0883,323.6437,130.2431,333.4339,123.3039,318.13,112.0883" style="stroke:#181818;stroke-width:1;stroke-linejoin:miter;stroke-miterlimit:10;"/></g><!--reverse link CompositeEquipment to Bus--><g class="link" data-entity-1="ent0004" data-entity-2="ent0007" data-link-type="extension" data-source-line="28" id="lnk14"><path codeLine="28" d="M373.5804,120.8557 C409.7104,141.0057 439.17,160.3383 474.47,191.7283 C488.31,204.0383 501.18,220.9283 509.59,232.9883" fill="none" id="CompositeEquipment-backto-Bus" style="stroke:#181818;stroke-width:1;"/><polygon fill="none" points="357.86,112.0883,370.658,126.0959,376.5029,115.6156,357.86,112.0883" style="stroke:#181818;stroke-width:1;stroke-linejoin:miter;stroke-miterlimit:10;"/></g><?plantuml-src TP99Rjj044NtVOeFRvp1DB8s10AEOWS1l0ZW4xIQPRFWdjBLXA8CG0wH4-OaAGvH14lU4EJ_drMlkakUE6PRR83pLkIwriAReT8db-8zVoEyCprt10gvxX0eRAY8gLmzOPr2JiALyEVNRtnCj-S2-Z9m3XGhwAiDsTC5jZqLGkq99NdV31ai22dIpXXZDrABTNLkZvlzxwlLL3xgUzlYkm7U8jf0hrxZ2lTA6HydBQSjbKdaMESKrS-5tPnS3wLGTBl9wLXS6k8f-wSnCy6jJpdlFh0yAS8TsOUsNPorBTr_xHdu_YoE9XZ5PO86UjHLjEyTIrtjewssNyhq-cJPTzomJhDylH_4c8FoFvhcWFQvCz8UQKUGvWHtQfeMPs_E3YxZQWO_bPuBBzWl-iiWB_dJQ37f9XL-x1NXuHGh3g_MTfr0TsdSgmdkKlrhkBaJ-kGxNH5Ok9djdw8ffqSZi55qSmIwOeZ3kDSNgdM8QOnu7k6sHG5awk5JofU6fa0bynS0?></g></svg>