<svg xmlns="http://www.w3.org/2000/svg" xmlns:xlink="http://www.w3.org/1999/xlink" contentStyleType="text/css" data-diagram-type="CLASS" height="415px" preserveAspectRatio="none" style="width:503px;height:415px;background:#FFFFFF;" version="1.1" viewBox="0 0 503 415" width="503px" zoomAndPan="magnify"><?plantuml 1.2026.5?><defs/><g><g class="title" data-source-line="3"><text fill="#000000" font-family="sans-serif" font-size="14" font-weight="700" lengthAdjust="spacing" textLength="400.4082" x="47.9525" y="23.5352">An invoice and two observers, with java.util.Observable</text></g><!--class Observable--><g class="entity" data-qualified-name="Observable" data-source-line="4" id="ent0001"><rect fill="#F1F1F1" height="114.5742" rx="2.5" ry="2.5" style="stroke:#181818;stroke-width:0.5;" width="195.9824" x="164.47" y="44.4883"/><ellipse cx="193.0368" cy="64.7988" fill="#ADD1B2" rx="11" ry="11" style="stroke:#181818;stroke-width:1;"/><path d="M195.5099,70.9419 Q194.9289,71.2407 194.2897,71.3901 Q193.6506,71.5396 192.945,71.5396 Q190.4382,71.5396 189.1183,69.8877 Q187.7985,68.2358 187.7985,65.1147 Q187.7985,61.9854 189.1183,60.3335 Q190.4382,58.6816 192.945,58.6816 Q193.6506,58.6816 194.298,58.8311 Q194.9455,58.9805 195.5099,59.2793 L195.5099,62.002 Q194.8791,61.4209 194.2856,61.1511 Q193.6921,60.8813 193.0612,60.8813 Q191.7165,60.8813 191.0317,61.948 Q190.3469,63.0146 190.3469,65.1147 Q190.3469,67.2065 191.0317,68.2732 Q191.7165,69.3398 193.0612,69.3398 Q193.6921,69.3398 194.2856,69.0701 Q194.8791,68.8003 195.5099,68.2192 Z " fill="#000000"/><text fill="#000000" font-family="sans-serif" font-size="12" font-style="italic" lengthAdjust="spacing" textLength="122.5078" x="215.7147" y="61.0898">&#171;deprecated since 9&#187;</text><text fill="#000000" font-family="sans-serif" font-size="14" lengthAdjust="spacing" textLength="133.834" x="210.0516" y="77.1563">java.util.Observable</text><line style="stroke:#181818;stroke-width:0.5;" x1="165.47" x2="359.4524" y1="85.1094" y2="85.1094"/><text fill="#000000" font-family="sans-serif" font-size="14" lengthAdjust="spacing" textLength="167.8428" x="170.47" y="102.6445">+addObserver(Observer)</text><text fill="#000000" font-family="sans-serif" font-size="14" lengthAdjust="spacing" textLength="183.9824" x="170.47" y="119.1328">+deleteObserver(Observer)</text><text fill="#000000" font-family="sans-serif" font-size="14" lengthAdjust="spacing" textLength="98.2666" x="170.47" y="135.6211">#setChanged()</text><text fill="#000000" font-family="sans-serif" font-size="14" lengthAdjust="spacing" textLength="127.5313" x="170.47" y="152.1094">+notifyObservers()</text></g><!--class Observer--><g class="entity" data-qualified-name="Observer" data-source-line="10" id="ent0002"><rect fill="#F1F1F1" height="65.1094" rx="2.5" ry="2.5" style="stroke:#181818;stroke-width:0.5;" width="208.3145" x="50.31" y="219.0683"/><ellipse cx="91.1138" cy="239.3788" fill="#B4A7E5" rx="11" ry="11" style="stroke:#181818;stroke-width:1;"/><path d="M87.5415,235.644 L87.5415,233.4858 L94.9209,233.4858 L94.9209,235.644 L92.4556,235.644 L92.4556,243.7206 L94.9209,243.7206 L94.9209,245.8788 L87.5415,245.8788 L87.5415,243.7206 L90.0069,243.7206 L90.0069,235.644 Z " fill="#000000"/><text fill="#000000" font-family="sans-serif" font-size="12" font-style="italic" lengthAdjust="spacing" textLength="122.5078" x="109.0804" y="235.6698">&#171;deprecated since 9&#187;</text><text fill="#000000" font-family="sans-serif" font-size="14" font-style="italic" lengthAdjust="spacing" textLength="118.9727" x="110.848" y="251.7363">java.util.Observer</text><line style="stroke:#181818;stroke-width:0.5;" x1="51.31" x2="257.6245" y1="259.6894" y2="259.6894"/><text fill="#000000" font-family="sans-serif" font-size="14" lengthAdjust="spacing" textLength="196.3145" x="56.31" y="277.2245">+update(Observable, Object)</text></g><!--class Invoice--><g class="entity" data-qualified-name="Invoice" data-source-line="13" id="ent0003"><rect fill="#F1F1F1" height="56.4883" rx="2.5" ry="2.5" style="stroke:#181818;stroke-width:0.5;" width="154.0713" x="293.43" y="223.3783"/><ellipse cx="342.4232" cy="239.3783" fill="#ADD1B2" rx="11" ry="11" style="stroke:#181818;stroke-width:1;"/><path d="M344.8963,245.5213 Q344.3153,245.8202 343.6761,245.9696 Q343.0369,246.119 342.3314,246.119 Q339.8245,246.119 338.5047,244.4671 Q337.1849,242.8153 337.1849,239.6942 Q337.1849,236.5648 338.5047,234.9129 Q339.8245,233.2611 342.3314,233.2611 Q343.0369,233.2611 343.6844,233.4105 Q344.3319,233.5599 344.8963,233.8588 L344.8963,236.5814 Q344.2654,236.0004 343.6719,235.7306 Q343.0784,235.4608 342.4476,235.4608 Q341.1029,235.4608 340.418,236.5275 Q339.7332,237.5941 339.7332,239.6942 Q339.7332,241.786 340.418,242.8526 Q341.1029,243.9193 342.4476,243.9193 Q343.0784,243.9193 343.6719,243.6495 Q344.2654,243.3797 344.8963,242.7987 Z " fill="#000000"/><text fill="#000000" font-family="sans-serif" font-size="14" lengthAdjust="spacing" textLength="47.585" x="362.9232" y="244.6693">Invoice</text><line style="stroke:#181818;stroke-width:0.5;" x1="294.43" x2="446.5013" y1="255.3783" y2="255.3783"/><text fill="#000000" font-family="sans-serif" font-size="14" lengthAdjust="spacing" textLength="142.0713" x="299.43" y="272.9134">+payBalance(double)</text></g><!--class Boss--><g class="entity" data-qualified-name="Boss" data-source-line="16" id="ent0004"><rect fill="#F1F1F1" height="32" rx="2.5" ry="2.5" style="stroke:#181818;stroke-width:0.5;" width="62.9258" x="7" y="356.1383"/><ellipse cx="22" cy="372.1383" fill="#ADD1B2" rx="11" ry="11" style="stroke:#181818;stroke-width:1;"/><path d="M24.4731,378.2813 Q23.8921,378.5802 23.2529,378.7296 Q22.6138,378.879 21.9082,378.879 Q19.4014,378.879 18.0815,377.2271 Q16.7617,375.5753 16.7617,372.4542 Q16.7617,369.3248 18.0815,367.6729 Q19.4014,366.0211 21.9082,366.0211 Q22.6138,366.0211 23.2612,366.1705 Q23.9087,366.3199 24.4731,366.6188 L24.4731,369.3414 Q23.8423,368.7604 23.2488,368.4906 Q22.6553,368.2208 22.0244,368.2208 Q20.6797,368.2208 19.9949,369.2875 Q19.3101,370.3541 19.3101,372.4542 Q19.3101,374.546 19.9949,375.6126 Q20.6797,376.6793 22.0244,376.6793 Q22.6553,376.6793 23.2488,376.4095 Q23.8423,376.1397 24.4731,375.5587 Z " fill="#000000"/><text fill="#000000" font-family="sans-serif" font-size="14" lengthAdjust="spacing" textLength="30.9258" x="36" y="377.4293">Boss</text></g><!--class Accountant--><g class="entity" data-qualified-name="Accountant" data-source-line="17" id="ent0005"><rect fill="#F1F1F1" height="32" rx="2.5" ry="2.5" style="stroke:#181818;stroke-width:0.5;" width="108.8701" x="105.03" y="356.1383"/><ellipse cx="120.03" cy="372.1383" fill="#ADD1B2" rx="11" ry="11" style="stroke:#181818;stroke-width:1;"/><path d="M122.5031,378.2813 Q121.9221,378.5802 121.2829,378.7296 Q120.6438,378.879 119.9382,378.879 Q117.4314,378.879 116.1115,377.2271 Q114.7917,375.5753 114.7917,372.4542 Q114.7917,369.3248 116.1115,367.6729 Q117.4314,366.0211 119.9382,366.0211 Q120.6438,366.0211 121.2912,366.1705 Q121.9387,366.3199 122.5031,366.6188 L122.5031,369.3414 Q121.8723,368.7604 121.2788,368.4906 Q120.6853,368.2208 120.0544,368.2208 Q118.7097,368.2208 118.0249,369.2875 Q117.3401,370.3541 117.3401,372.4542 Q117.3401,374.546 118.0249,375.6126 Q118.7097,376.6793 120.0544,376.6793 Q120.6853,376.6793 121.2788,376.4095 Q121.8723,376.1397 122.5031,375.5587 Z " fill="#000000"/><text fill="#000000" font-family="sans-serif" font-size="14" lengthAdjust="spacing" textLength="76.8701" x="134.03" y="377.4293">Accountant</text></g><g class="entity" data-qualified-name="GMN10" data-source-line="23" id="ent0011"><path d="M252.61,344.1783 L252.61,400.1099 A0,0 0 0 0 252.61,400.1099 L488.3131,400.1099 A0,0 0 0 0 488.3131,400.1099 L488.3131,354.1783 L478.3131,344.1783 L374.46,344.1783 L370.46,280.1083 L366.46,344.1783 L252.61,344.1783 A0,0 0 0 0 252.61,344.1783" fill="#FEFFDD" style="stroke:#181818;stroke-width:0.5;"/><path d="M478.3131,344.1783 L478.3131,354.1783 L488.3131,354.1783 L478.3131,344.1783" fill="#FEFFDD" style="stroke:#181818;stroke-width:0.5;"/><text fill="#000000" font-family="sans-serif" font-size="13" lengthAdjust="spacing" textLength="214.7031" x="258.61" y="361.7466">Must extend Observable, so it can</text><text fill="#000000" font-family="sans-serif" font-size="13" lengthAdjust="spacing" textLength="212.3799" x="258.61" y="377.0572">extend nothing else. The order of</text><text fill="#000000" font-family="sans-serif" font-size="13" lengthAdjust="spacing" textLength="182.5332" x="258.61" y="392.3677">notifications is not specified.</text></g><!--reverse link Observable to Invoice--><g class="link" data-entity-1="ent0001" data-entity-2="ent0003" data-link-type="extension" data-source-line="18" id="lnk6"><path codeLine="18" d="M314.528,174.053 C330.468,195.873 337.34,205.2783 350.39,223.1383" fill="none" id="Observable-backto-Invoice" style="stroke:#181818;stroke-width:1;"/><polygon fill="none" points="303.91,159.5183,309.683,177.5924,319.3729,170.5137,303.91,159.5183" style="stroke:#181818;stroke-width:1;stroke-linejoin:miter;stroke-miterlimit:10;"/></g><!--reverse link Observer to Boss--><g class="link" data-entity-1="ent0002" data-entity-2="ent0004" data-link-type="extension" data-source-line="19" id="lnk7"><path codeLine="19" d="M110.786,297.2487 C88.096,320.4187 70.95,337.9483 53.36,355.9183" fill="none" id="Observer-backto-Boss" style="stroke:#181818;stroke-width:1;stroke-dasharray:7,7;"/><polygon fill="none" points="123.38,284.3883,106.4992,293.0507,115.0728,301.4467,123.38,284.3883" style="stroke:#181818;stroke-width:1;stroke-linejoin:miter;stroke-miterlimit:10;"/></g><!--reverse link Observer to Accountant--><g class="link" data-entity-1="ent0002" data-entity-2="ent0005" data-link-type="extension" data-source-line="20" id="lnk8"><path codeLine="20" d="M156.5606,302.3722 C157.5406,325.5422 158.06,337.9483 158.82,355.9183" fill="none" id="Observer-backto-Accountant" style="stroke:#181818;stroke-width:1;stroke-dasharray:7,7;"/><polygon fill="none" points="155.8,284.3883,150.566,302.6258,162.5553,302.1187,155.8,284.3883" style="stroke:#181818;stroke-width:1;stroke-linejoin:miter;stroke-miterlimit:10;"/></g><!--link Observable to Observer--><g class="link" data-entity-1="ent0001" data-entity-2="ent0002" data-link-type="aggregation" data-source-line="21" id="lnk9"><path codeLine="21" d="M213.939,169.2064 C199.299,189.2364 193.3996,197.321 180.7896,214.581" fill="none" id="Observable-Observer" style="stroke:#181818;stroke-width:1;"/><polygon fill="none" points="221.02,159.5183,214.2501,162.002,213.939,169.2064,220.7088,166.7227,221.02,159.5183" style="stroke:#181818;stroke-width:1;stroke-linejoin:miter;stroke-miterlimit:10;"/><polygon fill="#181818" points="177.84,218.6183,186.3791,213.7108,180.7896,214.581,179.9195,208.9915,177.84,218.6183" style="stroke:#181818;stroke-width:1;stroke-linejoin:miter;stroke-miterlimit:10;"/><text fill="#000000" font-family="sans-serif" font-size="13" lengthAdjust="spacing" textLength="6.2651" x="175.877" y="208.2428">*</text></g><?plantuml-src VL71Ji904BtlLqpmWWgDLnD3Wfuu60xw0zFTmOwskytE54JntnsW24RYRVlUc_TcNkMDOuiP6_0rYanLCvUTqiod-CGV13Ukua10JQjhQAWfAOjJrffW6e7ZCh4dm1X0LmbIAPIN9Xd1YhM2LrnYqIdNnNp7O5cJsoN1u1mt01GuViBTNQ0saqUb0CBHecud4_Xq0DU08SpxlE7XSRbZ0jMaT9Qy025zg32-K1ZkrJ4fBzO7aHZwvJWgvGLQtfyzAPziIVd_7Ris63uydZIomLVokWtP5p7hEzmFjBY-nnhDPHXIPmD7uNqIwPzJxrCN5QEwqxOsu_71pXttsnJ5VlOtTDuZZSSJ65mDVkvpLWz1cLHJ0sdnum_ms8a2lIlPppyzK1AmWiTecfusZuhZ2r0jLC1pPJavs29fOPfT_spzSOe2B5i0f2LlA8N2zGRq3G00?></g></svg>