<svg xmlns="http://www.w3.org/2000/svg" xmlns:xlink="http://www.w3.org/1999/xlink" contentStyleType="text/css" data-diagram-type="CLASS" height="640px" preserveAspectRatio="none" style="width:1429px;height:640px;background:#FFFFFF;" version="1.1" viewBox="0 0 1429 640" width="1429px" zoomAndPan="magnify"><?plantuml 1.2026.5?><defs/><g><g class="title" data-source-line="3"><text fill="#000000" font-family="sans-serif" font-size="14" font-weight="700" lengthAdjust="spacing" textLength="322.3896" x="550.0522" y="23.5352">Flyweight &#8212; the same example written twice</text></g><!--cluster book--><g class="cluster" data-qualified-name="book" data-source-line="7" id="ent0003"><path d="M8.5,43.4883 L45.5186,43.4883 A3.75,3.75 0 0 1 48.0186,45.9883 L55.0186,65.9766 L966.5,65.9766 A2.5,2.5 0 0 1 969,68.4766 L969,489.0083 A2.5,2.5 0 0 1 966.5,491.5083 L8.5,491.5083 A2.5,2.5 0 0 1 6,489.0083 L6,45.9883 A2.5,2.5 0 0 1 8.5,43.4883" fill="none" style="stroke:#000000;stroke-width:1.5;"/><line style="stroke:#000000;stroke-width:1.5;" x1="6" x2="55.0186" y1="65.9766" y2="65.9766"/><text fill="#000000" font-family="sans-serif" font-size="14" font-weight="700" lengthAdjust="spacing" textLength="36.0186" x="10" y="59.0234">book</text></g><!--cluster wrong ? not the pattern--><g class="cluster" data-qualified-name="book.wrong . not the pattern" data-source-line="6" id="ent0001"><path d="M32.5,99.0483 L211.2686,99.0483 A3.75,3.75 0 0 1 213.7686,101.5483 L220.7686,121.5366 L333.5,121.5366 A2.5,2.5 0 0 1 336,124.0366 L336,465.0083 A2.5,2.5 0 0 1 333.5,467.5083 L32.5,467.5083 A2.5,2.5 0 0 1 30,465.0083 L30,101.5483 A2.5,2.5 0 0 1 32.5,99.0483" fill="none" style="stroke:#000000;stroke-width:1.5;"/><line style="stroke:#000000;stroke-width:1.5;" x1="30" x2="220.7686" y1="121.5366" y2="121.5366"/><text fill="#000000" font-family="sans-serif" font-size="14" font-weight="700" lengthAdjust="spacing" textLength="177.7686" x="34" y="114.5834">wrong &#8212; not the pattern</text></g><!--cluster correct ? the pattern--><g class="cluster" data-qualified-name="book.correct . the pattern" data-source-line="22" id="ent0006"><path d="M362.5,86.4883 L517.4795,86.4883 A3.75,3.75 0 0 1 519.9795,88.9883 L526.9795,108.9766 L942.5,108.9766 A2.5,2.5 0 0 1 945,111.4766 L945,444.5883 A2.5,2.5 0 0 1 942.5,447.0883 L362.5,447.0883 A2.5,2.5 0 0 1 360,444.5883 L360,88.9883 A2.5,2.5 0 0 1 362.5,86.4883" fill="none" style="stroke:#000000;stroke-width:1.5;"/><line style="stroke:#000000;stroke-width:1.5;" x1="360" x2="526.9795" y1="108.9766" y2="108.9766"/><text fill="#000000" font-family="sans-serif" font-size="14" font-weight="700" lengthAdjust="spacing" textLength="153.9795" x="364" y="102.0234">correct &#8212; the pattern</text></g><!--class WC--><g class="entity" data-qualified-name="book.wrong . not the pattern.WC" data-source-line="7" id="ent0002"><rect fill="#F1F1F1" height="146.9297" rx="2.5" ry="2.5" style="stroke:#181818;stroke-width:0.5;" width="159.8613" x="103.07" y="304.5783"/><ellipse cx="146.1317" cy="320.5783" fill="#ADD1B2" rx="11" ry="11" style="stroke:#181818;stroke-width:1;"/><path d="M148.6049,326.7213 Q148.0238,327.0202 147.3846,327.1696 Q146.7455,327.319 146.0399,327.319 Q143.5331,327.319 142.2133,325.6671 Q140.8934,324.0153 140.8934,320.8942 Q140.8934,317.7648 142.2133,316.1129 Q143.5331,314.4611 146.0399,314.4611 Q146.7455,314.4611 147.3929,314.6105 Q148.0404,314.7599 148.6049,315.0588 L148.6049,317.7814 Q147.974,317.2004 147.3805,316.9306 Q146.787,316.6608 146.1561,316.6608 Q144.8114,316.6608 144.1266,317.7275 Q143.4418,318.7941 143.4418,320.8942 Q143.4418,322.986 144.1266,324.0526 Q144.8114,325.1193 146.1561,325.1193 Q146.787,325.1193 147.3805,324.8495 Q147.974,324.5797 148.6049,323.9987 Z " fill="#000000"/><text fill="#000000" font-family="sans-serif" font-size="14" lengthAdjust="spacing" textLength="65.502" x="166.3677" y="325.8693">Character</text><line style="stroke:#181818;stroke-width:0.5;" x1="104.07" x2="261.9313" y1="336.5783" y2="336.5783"/><text fill="#000000" font-family="sans-serif" font-size="14" lengthAdjust="spacing" textLength="86.2217" x="109.07" y="354.1134">-value : char</text><text fill="#000000" font-family="sans-serif" font-size="14" lengthAdjust="spacing" textLength="147.8613" x="109.07" y="370.6017">-upperCase : boolean</text><text fill="#000000" font-family="sans-serif" font-size="14" lengthAdjust="spacing" textLength="73.9717" x="109.07" y="387.09">-line : Line</text><text fill="#000000" font-family="sans-serif" font-size="14" lengthAdjust="spacing" textLength="94.5273" x="109.07" y="403.5783">-position : int</text><line style="stroke:#181818;stroke-width:0.5;" x1="104.07" x2="261.9313" y1="410.5314" y2="410.5314"/><text fill="#000000" font-family="sans-serif" font-size="14" lengthAdjust="spacing" textLength="92.9893" x="109.07" y="428.0666">+setLine(line)</text><text fill="#000000" font-family="sans-serif" font-size="14" lengthAdjust="spacing" textLength="112.4717" x="109.07" y="444.5548">+setPosition(int)</text></g><!--class WF--><g class="entity" data-qualified-name="book.wrong . not the pattern.WF" data-source-line="15" id="ent0004"><rect fill="#F1F1F1" height="80.9766" rx="2.5" ry="2.5" style="stroke:#181818;stroke-width:0.5;" width="273.8643" x="46.07" y="134.0483"/><ellipse cx="137.3913" cy="150.0483" fill="#ADD1B2" rx="11" ry="11" style="stroke:#181818;stroke-width:1;"/><path d="M139.8644,156.1913 Q139.2834,156.4902 138.6442,156.6396 Q138.0051,156.789 137.2995,156.789 Q134.7927,156.789 133.4728,155.1371 Q132.153,153.4853 132.153,150.3642 Q132.153,147.2348 133.4728,145.5829 Q134.7927,143.9311 137.2995,143.9311 Q138.0051,143.9311 138.6525,144.0805 Q139.3,144.2299 139.8644,144.5288 L139.8644,147.2514 Q139.2336,146.6704 138.6401,146.4006 Q138.0466,146.1308 137.4157,146.1308 Q136.071,146.1308 135.3862,147.1975 Q134.7013,148.2641 134.7013,150.3642 Q134.7013,152.456 135.3862,153.5226 Q136.071,154.5893 137.4157,154.5893 Q138.0466,154.5893 138.6401,154.3195 Q139.2336,154.0497 139.8644,153.4687 Z " fill="#000000"/><text fill="#000000" font-family="sans-serif" font-size="14" lengthAdjust="spacing" textLength="82.7217" x="157.8913" y="155.3393">BookFactory</text><line style="stroke:#181818;stroke-width:0.5;" x1="47.07" x2="318.9343" y1="166.0483" y2="166.0483"/><text fill="#000000" font-family="sans-serif" font-size="14" lengthAdjust="spacing" textLength="147.9023" x="52.07" y="183.5834">-as : List&lt;Character&gt;</text><line style="stroke:#181818;stroke-width:0.5;" x1="47.07" x2="318.9343" y1="190.5366" y2="190.5366"/><text fill="#000000" font-family="sans-serif" font-size="14" lengthAdjust="spacing" textLength="261.8643" x="52.07" y="208.0717">+createCharacter(c, upper) : Character</text></g><!--class CC--><g class="entity" data-qualified-name="book.correct . the pattern.CC" data-source-line="23" id="ent0007"><rect fill="#F1F1F1" height="106.0859" rx="2.5" ry="2.5" style="stroke:#181818;stroke-width:0.5;" width="159.8613" x="550.07" y="324.9983"/><ellipse cx="570.5869" cy="345.3088" fill="#ADD1B2" rx="11" ry="11" style="stroke:#181818;stroke-width:1;"/><path d="M573.06,351.4519 Q572.479,351.7507 571.8398,351.9001 Q571.2007,352.0496 570.4951,352.0496 Q567.9883,352.0496 566.6684,350.3977 Q565.3486,348.7458 565.3486,345.6247 Q565.3486,342.4954 566.6684,340.8435 Q567.9883,339.1916 570.4951,339.1916 Q571.2007,339.1916 571.8481,339.3411 Q572.4956,339.4905 573.06,339.7893 L573.06,342.512 Q572.4292,341.9309 571.8357,341.6611 Q571.2422,341.3913 570.6113,341.3913 Q569.2666,341.3913 568.5818,342.458 Q567.897,343.5246 567.897,345.6247 Q567.897,347.7165 568.5818,348.7832 Q569.2666,349.8498 570.6113,349.8498 Q571.2422,349.8498 571.8357,349.5801 Q572.4292,349.3103 573.06,348.7292 Z " fill="#000000"/><text fill="#000000" font-family="sans-serif" font-size="12" font-style="italic" lengthAdjust="spacing" textLength="119.6016" x="583.8129" y="341.5998">&#171;ConcreteFlyweight&#187;</text><text fill="#000000" font-family="sans-serif" font-size="14" lengthAdjust="spacing" textLength="65.502" x="610.8627" y="357.6663">Character</text><line style="stroke:#181818;stroke-width:0.5;" x1="551.07" x2="708.9313" y1="365.6194" y2="365.6194"/><text fill="#000000" font-family="sans-serif" font-size="14" lengthAdjust="spacing" textLength="86.2217" x="556.07" y="383.1545">-value : char</text><text fill="#000000" font-family="sans-serif" font-size="14" lengthAdjust="spacing" textLength="147.8613" x="556.07" y="399.6428">-upperCase : boolean</text><line style="stroke:#181818;stroke-width:0.5;" x1="551.07" x2="708.9313" y1="406.5959" y2="406.5959"/><text fill="#000000" font-family="sans-serif" font-size="14" lengthAdjust="spacing" textLength="122.0283" x="556.07" y="424.1311">+getValue() : char</text></g><!--class CF--><g class="entity" data-qualified-name="book.correct . the pattern.CF" data-source-line="28" id="ent0008"><rect fill="#F1F1F1" height="106.0859" rx="2.5" ry="2.5" style="stroke:#181818;stroke-width:0.5;" width="273.8643" x="376.07" y="121.4883"/><ellipse cx="451.3576" cy="141.7988" fill="#ADD1B2" rx="11" ry="11" style="stroke:#181818;stroke-width:1;"/><path d="M453.8307,147.9419 Q453.2497,148.2407 452.6105,148.3901 Q451.9714,148.5396 451.2658,148.5396 Q448.759,148.5396 447.4391,146.8877 Q446.1193,145.2358 446.1193,142.1147 Q446.1193,138.9854 447.4391,137.3335 Q448.759,135.6816 451.2658,135.6816 Q451.9714,135.6816 452.6188,135.8311 Q453.2663,135.9805 453.8307,136.2793 L453.8307,139.002 Q453.1999,138.4209 452.6064,138.1511 Q452.0129,137.8813 451.382,137.8813 Q450.0373,137.8813 449.3525,138.948 Q448.6677,140.0146 448.6677,142.1147 Q448.6677,144.2065 449.3525,145.2732 Q450.0373,146.3398 451.382,146.3398 Q452.0129,146.3398 452.6064,146.0701 Q453.1999,145.8003 453.8307,145.2192 Z " fill="#000000"/><text fill="#000000" font-family="sans-serif" font-size="12" font-style="italic" lengthAdjust="spacing" textLength="109.8105" x="474.3469" y="138.0898">&#171;FlyweightFactory&#187;</text><text fill="#000000" font-family="sans-serif" font-size="14" lengthAdjust="spacing" textLength="114.7891" x="471.8576" y="154.1563">CharacterFactory</text><line style="stroke:#181818;stroke-width:0.5;" x1="377.07" x2="648.9343" y1="162.1094" y2="162.1094"/><text fill="#000000" font-family="sans-serif" font-size="14" lengthAdjust="spacing" textLength="256.7031" x="382.07" y="179.6445">-characters : Map&lt;String, Character&gt;</text><line style="stroke:#181818;stroke-width:0.5;" x1="377.07" x2="648.9343" y1="186.5977" y2="186.5977"/><text fill="#000000" font-family="sans-serif" font-size="14" lengthAdjust="spacing" textLength="261.8643" x="382.07" y="204.1328">+createCharacter(c, upper) : Character</text><text fill="#000000" font-family="sans-serif" font-size="14" lengthAdjust="spacing" textLength="142.6729" x="382.07" y="220.6211">+createdCount() : int</text></g><!--class CL--><g class="entity" data-qualified-name="book.correct . the pattern.CL" data-source-line="33" id="ent0009"><rect fill="#F1F1F1" height="80.9766" rx="2.5" ry="2.5" style="stroke:#181818;stroke-width:0.5;" width="244.0732" x="684.96" y="134.0483"/><ellipse cx="788.7466" cy="150.0483" fill="#ADD1B2" rx="11" ry="11" style="stroke:#181818;stroke-width:1;"/><path d="M791.2198,156.1913 Q790.6387,156.4902 789.9996,156.6396 Q789.3604,156.789 788.6548,156.789 Q786.148,156.789 784.8282,155.1371 Q783.5083,153.4853 783.5083,150.3642 Q783.5083,147.2348 784.8282,145.5829 Q786.148,143.9311 788.6548,143.9311 Q789.3604,143.9311 790.0079,144.0805 Q790.6553,144.2299 791.2198,144.5288 L791.2198,147.2514 Q790.5889,146.6704 789.9954,146.4006 Q789.4019,146.1308 788.771,146.1308 Q787.4263,146.1308 786.7415,147.1975 Q786.0567,148.2641 786.0567,150.3642 Q786.0567,152.456 786.7415,153.5226 Q787.4263,154.5893 788.771,154.5893 Q789.4019,154.5893 789.9954,154.3195 Q790.5889,154.0497 791.2198,153.4687 Z " fill="#000000"/><text fill="#000000" font-family="sans-serif" font-size="14" lengthAdjust="spacing" textLength="28" x="809.2466" y="155.3393">Line</text><line style="stroke:#181818;stroke-width:0.5;" x1="685.96" x2="928.0332" y1="166.0483" y2="166.0483"/><text fill="#000000" font-family="sans-serif" font-size="14" lengthAdjust="spacing" textLength="169.4902" x="690.96" y="183.5834">-chars : List&lt;Character&gt;</text><line style="stroke:#181818;stroke-width:0.5;" x1="685.96" x2="928.0332" y1="190.5366" y2="190.5366"/><text fill="#000000" font-family="sans-serif" font-size="14" lengthAdjust="spacing" textLength="232.0732" x="690.96" y="208.0717">+characterAt(position) : Character</text></g><g class="entity" data-qualified-name="GMN12" data-source-line="42" id="ent0013"><path d="M35.56,538.5083 L35.56,625.061 A0,0 0 0 0 35.56,625.061 L330.4423,625.061 A0,0 0 0 0 330.4423,625.061 L330.4423,548.5083 L320.4423,538.5083 L187,538.5083 L183,451.8783 L179,538.5083 L35.56,538.5083 A0,0 0 0 0 35.56,538.5083" fill="#FEFFDD" style="stroke:#181818;stroke-width:0.5;"/><path d="M320.4423,538.5083 L320.4423,548.5083 L330.4423,548.5083 L320.4423,538.5083" fill="#FEFFDD" style="stroke:#181818;stroke-width:0.5;"/><text fill="#000000" font-family="sans-serif" font-size="13" font-weight="700" lengthAdjust="spacing" textLength="213.8589" x="41.56" y="556.0766">Two defects, and they interlock.</text><text fill="#000000" font-family="sans-serif" font-size="13" lengthAdjust="spacing" textLength="273.8823" x="41.56" y="571.3872">The factory never pools &#8212; and it could not,</text><text fill="#000000" font-family="sans-serif" font-size="13" lengthAdjust="spacing" textLength="165.3691" x="41.56" y="586.6977">because position is stored</text><text fill="#000000" font-family="sans-serif" font-size="13" font-style="italic" lengthAdjust="spacing" textLength="27.8726" x="211.0424" y="586.6977">here</text><text fill="#000000" font-family="sans-serif" font-size="13" lengthAdjust="spacing" textLength="4.1133" x="238.915" y="586.6977">.</text><text fill="#000000" font-family="sans-serif" font-size="13" lengthAdjust="spacing" textLength="216.9248" x="41.56" y="602.0083">Two occurrences of 'o' would fight</text><text fill="#000000" font-family="sans-serif" font-size="13" lengthAdjust="spacing" textLength="90.6318" x="41.56" y="617.3188">over one field.</text></g><g class="entity" data-qualified-name="GMN15" data-source-line="50" id="ent0016"><path d="M985.3,357.7283 L985.3,398.3494 L1152.7023,398.3494 L1152.7023,367.7283 L1142.7023,357.7283 L985.3,357.7283" fill="#FEFFDD" style="stroke:#181818;stroke-width:0.5;"/><path d="M1142.7023,357.7283 L1142.7023,367.7283 L1152.7023,367.7283 L1142.7023,357.7283" fill="#FEFFDD" style="stroke:#181818;stroke-width:1;"/><text fill="#000000" font-family="sans-serif" font-size="13" lengthAdjust="spacing" textLength="101.8862" x="991.3" y="375.2966">The pool field is</text><text fill="#000000" font-family="sans-serif" font-size="13" font-weight="700" lengthAdjust="spacing" textLength="142.2891" x="991.3" y="390.6072">never read or written</text><text fill="#000000" font-family="sans-serif" font-size="13" lengthAdjust="spacing" textLength="4.1133" x="1133.5891" y="390.6072">.</text></g><g class="entity" data-qualified-name="GMN18" data-source-line="55" id="ent0019"><path d="M1187.5,342.4183 L1187.5,413.6605 L1414.4941,413.6605 L1414.4941,352.4183 L1404.4941,342.4183 L1187.5,342.4183" fill="#FEFFDD" style="stroke:#181818;stroke-width:0.5;"/><path d="M1404.4941,342.4183 L1404.4941,352.4183 L1414.4941,352.4183 L1404.4941,342.4183" fill="#FEFFDD" style="stroke:#181818;stroke-width:1;"/><text fill="#000000" font-family="sans-serif" font-size="13" lengthAdjust="spacing" textLength="89.0132" x="1193.5" y="359.9866">Position is the</text><text fill="#000000" font-family="sans-serif" font-size="13" font-weight="700" lengthAdjust="spacing" textLength="108.7544" x="1286.6265" y="359.9866">index in this list</text><text fill="#000000" font-family="sans-serif" font-size="13" lengthAdjust="spacing" textLength="4.1133" x="1395.3809" y="359.9866">.</text><text fill="#000000" font-family="sans-serif" font-size="13" lengthAdjust="spacing" textLength="157.6694" x="1193.5" y="375.2972">It needed no home at all.</text><text fill="#000000" font-family="sans-serif" font-size="13" lengthAdjust="spacing" textLength="4.1133" x="1193.5" y="390.6077">&#160;</text><text fill="#000000" font-family="sans-serif" font-size="13" lengthAdjust="spacing" textLength="115.8574" x="1193.5" y="405.9183">236 characters -&gt;</text><text fill="#000000" font-family="sans-serif" font-size="13" font-weight="700" lengthAdjust="spacing" textLength="17.1514" x="1313.4707" y="405.9183">29</text><text fill="#000000" font-family="sans-serif" font-size="13" lengthAdjust="spacing" textLength="49.626" x="1334.7354" y="405.9183">objects.</text></g><!--link WF to WC--><g class="link" data-entity-1="ent0004" data-entity-2="ent0002" data-link-type="dependency" data-source-line="19" id="lnk5"><path codeLine="19" d="M183,215.3483 C183,240.6883 183,269.2883 183,299.2783" fill="none" id="WF-to-WC" style="stroke:#181818;stroke-width:1;stroke-dasharray:7,7;"/><polygon fill="#181818" points="183,304.2783,187,295.2783,183,299.2783,179,295.2783,183,304.2783" style="stroke:#181818;stroke-width:1;stroke-linejoin:miter;stroke-miterlimit:10;"/><text fill="#000000" font-family="sans-serif" font-size="13" lengthAdjust="spacing" textLength="98.9917" x="184" y="271.1466">new, every time</text></g><!--link CF to CC--><g class="link" data-entity-1="ent0008" data-entity-2="ent0007" data-link-type="dependency" data-source-line="37" id="lnk10"><path codeLine="37" d="M543.43,227.9483 C560.7,257.6883 579.7298,290.4641 596.9998,320.2141" fill="none" id="CF-to-CC" style="stroke:#181818;stroke-width:1;stroke-dasharray:7,7;"/><polygon fill="#181818" points="599.51,324.5383,598.451,314.7465,596.9998,320.2141,591.5322,318.7629,599.51,324.5383" style="stroke:#181818;stroke-width:1;stroke-linejoin:miter;stroke-miterlimit:10;"/><text fill="#000000" font-family="sans-serif" font-size="13" lengthAdjust="spacing" textLength="135.1035" x="568.99" y="271.1466">pools by (value, case)</text></g><!--reverse link CL to CC--><g class="link" data-entity-1="ent0009" data-entity-2="ent0007" data-link-type="aggregation" data-source-line="38" id="lnk11"><path codeLine="38" d="M764.111,224.3644 C736.611,255.6744 705.97,290.5483 675.97,324.6983" fill="none" id="CL-backto-CC" style="stroke:#181818;stroke-width:1;"/><polygon fill="none" points="772.03,215.3483,765.0652,217.2167,764.111,224.3644,771.0759,222.496,772.03,215.3483" style="stroke:#181818;stroke-width:1;stroke-linejoin:miter;stroke-miterlimit:10;"/><text fill="#000000" font-family="sans-serif" font-size="13" lengthAdjust="spacing" textLength="42.6182" x="735.35" y="271.1466">shared</text></g><!--link WF to GMN15--><g class="link" data-entity-1="ent0004" data-entity-2="ent0016" data-link-type="association" data-source-line="50" id="lnk17"><path d="M304.96,215.4283 C323.24,220.2283 342,224.5083 360,227.5783 C488.33,249.4183 825.57,205.8083 945,257.5783 C994.37,278.9783 1035.62,329.3483 1055.76,357.3683" fill="none" id="WF-GMN15" style="stroke:#181818;stroke-width:1;stroke-dasharray:7,7;"/></g><!--link CL to GMN18--><g class="link" data-entity-1="ent0009" data-entity-2="ent0019" data-link-type="association" data-source-line="55" id="lnk20"><path d="M929.46,203.2483 C981.51,216.8483 1042.24,235.1783 1095,257.5783 C1149.99,280.9283 1208.53,315.9783 1249.1,342.0783" fill="none" id="CL-GMN18" style="stroke:#181818;stroke-width:1;stroke-dasharray:7,7;"/></g><?plantuml-src dLJRQjj047tNLmnwYKrifQHGI122L608k118Q9zNgx6zjRGhTaTHt1BeH_GB-oMTaUHBsv12diIUFJDpPiwimjROHdbLWwvK23T4tXGjuQrszjvyGtWNRKo9W7L3EwYnBj27Y0nL28jgrw5PRmX-_VW9j448gcRgaweRlkwy8K8Br1cDKHGrIc_L6Y4kdDicdNTstGTQHtrmevZkRGpV8nZKG9nlM9jcE0OLu4lUtm7CuL5LBS8rQ2QCKDiqw7CL1EOI5IextbJ62hZapuWqBXWopZ9gBFNWEGGaeKo4FZrYToDtmao1du_oFd8d2zRd_6uGk3W8v9DK39GUUiZ6dDgZ8Zp04pqRj4yvue2EXJXZacJI-JN45hiPu2Fw7P2fCOwU_vwgTjwZFXho_vdcEQHfxYoB8ZmuccLlcVGvh94-2tyoFKOylr3wT6ZvWXKSAeyt9mBqFaWc-aarwJtlg5tFuCs3FNBBtBMMUhN37fo8bLqO12x_qFAAiNlWXYRx3Nl9r7mmDUzDRNY00OeTJFf9pq3pOAUnq9RWvlEH5ZW7bhtb_62GvqxaQd0htWtcfaNsq3aeSSNsXnaeMye2xAGjz9NJsoIzA4Je0w_5QXWoM5ac61J8oaYK8T2khKfvbpFc5wXLorOVdem943WQIqXDja6FwON94idC0fpMBQ-WrHX4svaxWwxFjX9pcUIaekFtk39ObKc4jg-4_xQr6CMAl87DfOTM1ztiO0dExtyqqjyh-V8bnzwTD27lWtCPM-8JZudF35PYR9y8u9PuG5YY98IDur-R8b1LbKHyUVd-m-bcpZF9TNabiU2Ah-B2YPZV?></g></svg>