<svg xmlns="http://www.w3.org/2000/svg" xmlns:xlink="http://www.w3.org/1999/xlink" contentStyleType="text/css" data-diagram-type="CLASS" height="457px" preserveAspectRatio="none" style="width:781px;height:457px;background:#FFFFFF;" version="1.1" viewBox="0 0 781 457" width="781px" zoomAndPan="magnify"><?plantuml 1.2026.5?><defs/><g><g class="title" data-source-line="3"><text fill="#000000" font-family="sans-serif" font-size="14" font-weight="700" lengthAdjust="spacing" textLength="205.2559" x="284.45" y="23.5352">A feed that tells its listeners</text></g><!--class PriceFeed--><g class="entity" data-qualified-name="PriceFeed" data-source-line="4" id="ent0001"><rect fill="#F1F1F1" height="122.5742" rx="2.5" ry="2.5" style="stroke:#181818;stroke-width:0.5;" width="223.5381" x="246.73" y="44.4883"/><ellipse cx="322.0484" cy="64.7988" fill="#ADD1B2" rx="11" ry="11" style="stroke:#181818;stroke-width:1;"/><path d="M324.5215,70.9419 Q323.9404,71.2407 323.3013,71.3901 Q322.6621,71.5396 321.9566,71.5396 Q319.4497,71.5396 318.1299,69.8877 Q316.8101,68.2358 316.8101,65.1147 Q316.8101,61.9854 318.1299,60.3335 Q319.4497,58.6816 321.9566,58.6816 Q322.6621,58.6816 323.3096,58.8311 Q323.9571,58.9805 324.5215,59.2793 L324.5215,62.002 Q323.8906,61.4209 323.2971,61.1511 Q322.7036,60.8813 322.0728,60.8813 Q320.728,60.8813 320.0432,61.948 Q319.3584,63.0146 319.3584,65.1147 Q319.3584,67.2065 320.0432,68.2732 Q320.728,69.3398 322.0728,69.3398 Q322.7036,69.3398 323.2971,69.0701 Q323.8906,68.8003 324.5215,68.2192 Z " fill="#000000"/><text fill="#000000" font-family="sans-serif" font-size="12" font-style="italic" lengthAdjust="spacing" textLength="55.0078" x="347.2451" y="61.0898">&#171;Subject&#187;</text><text fill="#000000" font-family="sans-serif" font-size="14" lengthAdjust="spacing" textLength="64.4014" x="342.5484" y="77.1563">PriceFeed</text><line style="stroke:#181818;stroke-width:0.5;" x1="247.73" x2="469.2681" y1="85.1094" y2="85.1094"/><text fill="#000000" font-family="sans-serif" font-size="14" lengthAdjust="spacing" textLength="211.5381" x="252.73" y="102.6445">-listeners : List&lt;PriceListener&gt;</text><line style="stroke:#181818;stroke-width:0.5;" x1="247.73" x2="469.2681" y1="109.5977" y2="109.5977"/><text fill="#000000" font-family="sans-serif" font-size="14" lengthAdjust="spacing" textLength="171.9512" x="252.73" y="127.1328">+subscribe(PriceListener)</text><text fill="#000000" font-family="sans-serif" font-size="14" lengthAdjust="spacing" textLength="189.3281" x="252.73" y="143.6211">+unsubscribe(PriceListener)</text><text fill="#000000" font-family="sans-serif" font-size="14" lengthAdjust="spacing" textLength="90.8633" x="252.73" y="160.1094">+setPrice(int)</text></g><!--class PriceListener--><g class="entity" data-qualified-name="PriceListener" data-source-line="10" id="ent0002"><rect fill="#F1F1F1" height="65.1094" rx="2.5" ry="2.5" style="stroke:#181818;stroke-width:0.5;" width="209.7363" x="154.63" y="260.5483"/><ellipse cx="212.0553" cy="280.8588" fill="#B4A7E5" rx="11" ry="11" style="stroke:#181818;stroke-width:1;"/><path d="M208.483,277.124 L208.483,274.9658 L215.8624,274.9658 L215.8624,277.124 L213.3971,277.124 L213.3971,285.2006 L215.8624,285.2006 L215.8624,287.3588 L208.483,287.3588 L208.483,285.2006 L210.9484,285.2006 L210.9484,277.124 Z " fill="#000000"/><text fill="#000000" font-family="sans-serif" font-size="12" font-style="italic" lengthAdjust="spacing" textLength="64.9688" x="243.2638" y="277.1498">&#171;Observer&#187;</text><text fill="#000000" font-family="sans-serif" font-size="14" font-style="italic" lengthAdjust="spacing" textLength="86.3857" x="232.5553" y="293.2162">PriceListener</text><line style="stroke:#181818;stroke-width:0.5;" x1="155.63" x2="363.3663" y1="301.1694" y2="301.1694"/><text fill="#000000" font-family="sans-serif" font-size="14" lengthAdjust="spacing" textLength="197.7363" x="160.63" y="318.7045">+priceChanged(PriceChange)</text></g><!--class PriceChange--><g class="entity" data-qualified-name="PriceChange" data-source-line="13" id="ent0003"><rect fill="#F1F1F1" height="98.0859" rx="2.5" ry="2.5" style="stroke:#181818;stroke-width:0.5;" width="115.8086" x="399.6" y="244.0583"/><ellipse cx="414.6" cy="264.3688" fill="#ADD1B2" rx="11" ry="11" style="stroke:#181818;stroke-width:1;"/><path d="M417.0731,270.5119 Q416.4921,270.8107 415.8529,270.9601 Q415.2138,271.1096 414.5082,271.1096 Q412.0014,271.1096 410.6815,269.4577 Q409.3617,267.8058 409.3617,264.6847 Q409.3617,261.5554 410.6815,259.9035 Q412.0014,258.2516 414.5082,258.2516 Q415.2138,258.2516 415.8612,258.4011 Q416.5087,258.5505 417.0731,258.8493 L417.0731,261.572 Q416.4423,260.9909 415.8488,260.7211 Q415.2553,260.4513 414.6244,260.4513 Q413.2797,260.4513 412.5949,261.518 Q411.9101,262.5846 411.9101,264.6847 Q411.9101,266.7765 412.5949,267.8432 Q413.2797,268.9098 414.6244,268.9098 Q415.2553,268.9098 415.8488,268.6401 Q416.4423,268.3703 417.0731,267.7892 Z " fill="#000000"/><text fill="#000000" font-family="sans-serif" font-size="12" font-style="italic" lengthAdjust="spacing" textLength="50.1504" x="445.4291" y="260.6598">&#171;record&#187;</text><text fill="#000000" font-family="sans-serif" font-size="14" lengthAdjust="spacing" textLength="83.8086" x="428.6" y="276.7262">PriceChange</text><line style="stroke:#181818;stroke-width:0.5;" x1="400.6" x2="514.4086" y1="284.6794" y2="284.6794"/><text fill="#000000" font-family="sans-serif" font-size="14" lengthAdjust="spacing" textLength="102.2383" x="405.6" y="302.2145">symbol : String</text><text fill="#000000" font-family="sans-serif" font-size="14" lengthAdjust="spacing" textLength="85.2031" x="405.6" y="318.7028">oldPrice : int</text><text fill="#000000" font-family="sans-serif" font-size="14" lengthAdjust="spacing" textLength="91.0205" x="405.6" y="335.1911">newPrice : int</text></g><!--class Chart--><g class="entity" data-qualified-name="Chart" data-source-line="18" id="ent0004"><rect fill="#F1F1F1" height="40.6211" rx="2.5" ry="2.5" style="stroke:#181818;stroke-width:0.5;" width="145.0059" x="7" y="403.1483"/><ellipse cx="22" cy="423.4588" fill="#ADD1B2" rx="11" ry="11" style="stroke:#181818;stroke-width:1;"/><path d="M24.4731,429.6019 Q23.8921,429.9007 23.2529,430.0501 Q22.6138,430.1996 21.9082,430.1996 Q19.4014,430.1996 18.0815,428.5477 Q16.7617,426.8958 16.7617,423.7747 Q16.7617,420.6454 18.0815,418.9935 Q19.4014,417.3416 21.9082,417.3416 Q22.6138,417.3416 23.2612,417.4911 Q23.9087,417.6405 24.4731,417.9393 L24.4731,420.662 Q23.8423,420.0809 23.2488,419.8111 Q22.6553,419.5413 22.0244,419.5413 Q20.6797,419.5413 19.9949,420.608 Q19.3101,421.6746 19.3101,423.7747 Q19.3101,425.8665 19.9949,426.9332 Q20.6797,427.9998 22.0244,427.9998 Q22.6553,427.9998 23.2488,427.7301 Q23.8423,427.4603 24.4731,426.8792 Z " fill="#000000"/><text fill="#000000" font-family="sans-serif" font-size="12" font-style="italic" lengthAdjust="spacing" textLength="117.0059" x="34" y="419.7498">&#171;ConcreteObserver&#187;</text><text fill="#000000" font-family="sans-serif" font-size="14" lengthAdjust="spacing" textLength="37.0713" x="73.9673" y="435.8162">Chart</text></g><!--class Ticker--><g class="entity" data-qualified-name="Ticker" data-source-line="19" id="ent0005"><rect fill="#F1F1F1" height="40.6211" rx="2.5" ry="2.5" style="stroke:#181818;stroke-width:0.5;" width="145.0059" x="187" y="403.1483"/><ellipse cx="202" cy="423.4588" fill="#ADD1B2" rx="11" ry="11" style="stroke:#181818;stroke-width:1;"/><path d="M204.4731,429.6019 Q203.8921,429.9007 203.2529,430.0501 Q202.6138,430.1996 201.9082,430.1996 Q199.4014,430.1996 198.0815,428.5477 Q196.7617,426.8958 196.7617,423.7747 Q196.7617,420.6454 198.0815,418.9935 Q199.4014,417.3416 201.9082,417.3416 Q202.6138,417.3416 203.2612,417.4911 Q203.9087,417.6405 204.4731,417.9393 L204.4731,420.662 Q203.8423,420.0809 203.2488,419.8111 Q202.6553,419.5413 202.0244,419.5413 Q200.6797,419.5413 199.9949,420.608 Q199.3101,421.6746 199.3101,423.7747 Q199.3101,425.8665 199.9949,426.9332 Q200.6797,427.9998 202.0244,427.9998 Q202.6553,427.9998 203.2488,427.7301 Q203.8423,427.4603 204.4731,426.8792 Z " fill="#000000"/><text fill="#000000" font-family="sans-serif" font-size="12" font-style="italic" lengthAdjust="spacing" textLength="117.0059" x="214" y="419.7498">&#171;ConcreteObserver&#187;</text><text fill="#000000" font-family="sans-serif" font-size="14" lengthAdjust="spacing" textLength="41.7813" x="251.6123" y="435.8162">Ticker</text></g><!--class PriceAlert--><g class="entity" data-qualified-name="PriceAlert" data-source-line="20" id="ent0006"><rect fill="#F1F1F1" height="40.6211" rx="2.5" ry="2.5" style="stroke:#181818;stroke-width:0.5;" width="145.0059" x="367" y="403.1483"/><ellipse cx="382" cy="423.4588" fill="#ADD1B2" rx="11" ry="11" style="stroke:#181818;stroke-width:1;"/><path d="M384.4731,429.6019 Q383.8921,429.9007 383.2529,430.0501 Q382.6138,430.1996 381.9082,430.1996 Q379.4014,430.1996 378.0815,428.5477 Q376.7617,426.8958 376.7617,423.7747 Q376.7617,420.6454 378.0815,418.9935 Q379.4014,417.3416 381.9082,417.3416 Q382.6138,417.3416 383.2612,417.4911 Q383.9087,417.6405 384.4731,417.9393 L384.4731,420.662 Q383.8423,420.0809 383.2488,419.8111 Q382.6553,419.5413 382.0244,419.5413 Q380.6797,419.5413 379.9949,420.608 Q379.3101,421.6746 379.3101,423.7747 Q379.3101,425.8665 379.9949,426.9332 Q380.6797,427.9998 382.0244,427.9998 Q382.6553,427.9998 383.2488,427.7301 Q383.8423,427.4603 384.4731,426.8792 Z " fill="#000000"/><text fill="#000000" font-family="sans-serif" font-size="12" font-style="italic" lengthAdjust="spacing" textLength="117.0059" x="394" y="419.7498">&#171;ConcreteObserver&#187;</text><text fill="#000000" font-family="sans-serif" font-size="14" lengthAdjust="spacing" textLength="64.9551" x="420.0254" y="435.8162">PriceAlert</text></g><g class="entity" data-qualified-name="GMN12" data-source-line="27" id="ent0013"><path d="M504.84,77.8083 L504.84,101.7783 L470.76,105.7783 L504.84,109.7783 L504.84,133.7399 A0,0 0 0 0 504.84,133.7399 L766.1559,133.7399 A0,0 0 0 0 766.1559,133.7399 L766.1559,87.8083 L756.1559,77.8083 L504.84,77.8083 A0,0 0 0 0 504.84,77.8083" fill="#FEFFDD" style="stroke:#181818;stroke-width:0.5;"/><path d="M756.1559,77.8083 L756.1559,87.8083 L766.1559,87.8083 L756.1559,77.8083" fill="#FEFFDD" style="stroke:#181818;stroke-width:0.5;"/><text fill="#000000" font-family="sans-serif" font-size="13" font-weight="700" lengthAdjust="spacing" textLength="171.7993" x="510.84" y="95.3766">Knows only PriceListener.</text><text fill="#000000" font-family="sans-serif" font-size="13" lengthAdjust="spacing" textLength="240.3159" x="510.84" y="110.6872">Notifies at the moment of the change,</text><text fill="#000000" font-family="sans-serif" font-size="13" lengthAdjust="spacing" textLength="151.5122" x="510.84" y="125.9977">so no change is missed.</text></g><!--link PriceFeed to PriceListener--><g class="link" data-entity-1="ent0001" data-entity-2="ent0002" data-link-type="aggregation" data-source-line="21" id="lnk7"><path codeLine="21" d="M320.4339,178.0417 C303.9039,208.9717 292.5059,230.3281 278.9159,255.7681" fill="none" id="PriceFeed-PriceListener" style="stroke:#181818;stroke-width:1;"/><polygon fill="none" points="326.09,167.4583,319.7341,170.8646,320.4339,178.0417,326.7897,174.6354,326.09,167.4583" style="stroke:#181818;stroke-width:1;stroke-linejoin:miter;stroke-miterlimit:10;"/><polygon fill="#181818" points="276.56,260.1783,284.3288,254.1247,278.9159,255.7681,277.2725,250.3552,276.56,260.1783" style="stroke:#181818;stroke-width:1;stroke-linejoin:miter;stroke-miterlimit:10;"/><text fill="#000000" font-family="sans-serif" font-size="13" lengthAdjust="spacing" textLength="6.2651" x="273.3545" y="249.8186">*</text></g><!--reverse link PriceListener to Chart--><g class="link" data-entity-1="ent0002" data-entity-2="ent0004" data-link-type="extension" data-source-line="22" id="lnk8"><path codeLine="22" d="M200.356,336.2811 C166.626,360.3411 135.97,382.1883 107.25,402.6683" fill="none" id="PriceListener-backto-Chart" style="stroke:#181818;stroke-width:1;stroke-dasharray:7,7;"/><polygon fill="none" points="215.01,325.8283,196.8718,331.3965,203.8403,341.1658,215.01,325.8283" style="stroke:#181818;stroke-width:1;stroke-linejoin:miter;stroke-miterlimit:10;"/></g><!--reverse link PriceListener to Ticker--><g class="link" data-entity-1="ent0002" data-entity-2="ent0005" data-link-type="extension" data-source-line="23" id="lnk9"><path codeLine="23" d="M259.5,343.8283 C259.5,367.8883 259.5,382.1883 259.5,402.6683" fill="none" id="PriceListener-backto-Ticker" style="stroke:#181818;stroke-width:1;stroke-dasharray:7,7;"/><polygon fill="none" points="259.5,325.8283,253.5,343.8283,265.5,343.8283,259.5,325.8283" style="stroke:#181818;stroke-width:1;stroke-linejoin:miter;stroke-miterlimit:10;"/></g><!--reverse link PriceListener to PriceAlert--><g class="link" data-entity-1="ent0002" data-entity-2="ent0006" data-link-type="extension" data-source-line="24" id="lnk10"><path codeLine="24" d="M318.654,336.2811 C352.384,360.3411 383.03,382.1883 411.75,402.6683" fill="none" id="PriceListener-backto-PriceAlert" style="stroke:#181818;stroke-width:1;stroke-dasharray:7,7;"/><polygon fill="none" points="304,325.8283,315.1697,341.1658,322.1382,331.3965,304,325.8283" style="stroke:#181818;stroke-width:1;stroke-linejoin:miter;stroke-miterlimit:10;"/></g><!--link PriceFeed to PriceChange--><g class="link" data-entity-1="ent0001" data-entity-2="ent0003" data-link-type="dependency" data-source-line="25" id="lnk11"><path codeLine="25" d="M390.92,167.4583 C404.11,192.1583 416.8051,215.9076 429.2451,239.2076" fill="none" id="PriceFeed-to-PriceChange" style="stroke:#181818;stroke-width:1;stroke-dasharray:7,7;"/><polygon fill="#181818" points="431.6,243.6183,430.8897,233.7951,429.2451,239.2076,423.8326,237.5629,431.6,243.6183" style="stroke:#181818;stroke-width:1;stroke-linejoin:miter;stroke-miterlimit:10;"/><text fill="#000000" font-family="sans-serif" font-size="13" lengthAdjust="spacing" textLength="36.7466" x="414.93" y="210.6266">sends</text></g><?plantuml-src VPBTJiCm38Nl-nGMLnjZXUkfgZHDGa9CW3HUe4szDInDfjXb6Z_lZfCETKKRLqsEJu-_EA6jjhl25mqeKn3DcRqkMyO7vUnAVo3S9RMk4B3PyG4QR4hqbB1cWp27DM85N1SCZCOGQ2OmcXXjSCL4UF5QuNqmPjcgBTzGSPx3Pm8mxRqmWwMiisXU7jLSF1EWjYGbK3WQ5CUnsDf_ouGSrP6sF4w-4_cWNnSAOM0MikUIqBzBpmvj0hjWMDI5tM3LHNUR47Doi4wK08_A-UhuEnsQqXavr4h6QJUYE5D5lsW28OB5_Qdm6ofvdYLkuQpooDXp7GslMcqZyKL7Z9qRl9JJNuYRJdEukhuQJYFvCvklDEsmpXKwd7EL7kEaOvhcWxdDv8fiHObrZE3rfcPmw_x9o9ooCd-qRa_Wh3aCGTFijWnlvCcnNcia2E-mHcXSWpO6XPsAdMx2hJYmxhW7JT1e8gpIH0WW0Fm0?></g></svg>