<svg xmlns="http://www.w3.org/2000/svg" xmlns:xlink="http://www.w3.org/1999/xlink" contentStyleType="text/css" data-diagram-type="CLASS" height="307px" preserveAspectRatio="none" style="width:1326px;height:307px;background:#FFFFFF;" version="1.1" viewBox="0 0 1326 307" width="1326px" zoomAndPan="magnify"><?plantuml 1.2026.5?><defs/><g><g class="title" data-source-line="3"><text fill="#000000" font-family="sans-serif" font-size="14" font-weight="700" lengthAdjust="spacing" textLength="306.1201" x="506.4399" y="23.5352">Three readers of one price: three attempts</text></g><!--cluster stage one--><g class="cluster" data-qualified-name="stage one" data-source-line="4" id="ent0001"><path d="M8.5,55.7383 L79.7119,55.7383 A3.75,3.75 0 0 1 82.2119,58.2383 L89.2119,78.2266 L241.5,78.2266 A2.5,2.5 0 0 1 244,80.7266 L244,289.7683 A2.5,2.5 0 0 1 241.5,292.2683 L8.5,292.2683 A2.5,2.5 0 0 1 6,289.7683 L6,58.2383 A2.5,2.5 0 0 1 8.5,55.7383" fill="none" style="stroke:#000000;stroke-width:1.5;"/><line style="stroke:#000000;stroke-width:1.5;" x1="6" x2="89.2119" y1="78.2266" y2="78.2266"/><text fill="#000000" font-family="sans-serif" font-size="14" font-weight="700" lengthAdjust="spacing" textLength="70.2119" x="10" y="71.2734">stage one</text></g><!--cluster stage two--><g class="cluster" data-qualified-name="stage two" data-source-line="13" id="ent0006"><path d="M592.5,55.7383 L664.0674,55.7383 A3.75,3.75 0 0 1 666.5674,58.2383 L673.5674,78.2266 L859.5,78.2266 A2.5,2.5 0 0 1 862,80.7266 L862,289.7683 A2.5,2.5 0 0 1 859.5,292.2683 L592.5,292.2683 A2.5,2.5 0 0 1 590,289.7683 L590,58.2383 A2.5,2.5 0 0 1 592.5,55.7383" fill="none" style="stroke:#000000;stroke-width:1.5;"/><line style="stroke:#000000;stroke-width:1.5;" x1="590" x2="673.5674" y1="78.2266" y2="78.2266"/><text fill="#000000" font-family="sans-serif" font-size="14" font-weight="700" lengthAdjust="spacing" textLength="70.5674" x="594" y="71.2734">stage two</text></g><!--cluster stage three--><g class="cluster" data-qualified-name="stage three" data-source-line="22" id="ent0011"><path d="M1005.5,43.4883 L1088.0117,43.4883 A3.75,3.75 0 0 1 1090.5117,45.9883 L1097.5117,65.9766 L1308.5,65.9766 A2.5,2.5 0 0 1 1311,68.4766 L1311,289.7683 A2.5,2.5 0 0 1 1308.5,292.2683 L1005.5,292.2683 A2.5,2.5 0 0 1 1003,289.7683 L1003,45.9883 A2.5,2.5 0 0 1 1005.5,43.4883" fill="none" style="stroke:#000000;stroke-width:1.5;"/><line style="stroke:#000000;stroke-width:1.5;" x1="1003" x2="1097.5117" y1="65.9766" y2="65.9766"/><text fill="#000000" font-family="sans-serif" font-size="14" font-weight="700" lengthAdjust="spacing" textLength="81.5117" x="1007" y="59.0234">stage three</text></g><!--class DirectPriceFeed--><g class="entity" data-qualified-name="stage one.DirectPriceFeed" data-source-line="5" id="ent0002"><rect fill="#F1F1F1" height="56.4883" rx="2.5" ry="2.5" style="stroke:#181818;stroke-width:0.5;" width="136.8701" x="91.56" y="90.7383"/><ellipse cx="106.56" cy="106.7383" fill="#ADD1B2" rx="11" ry="11" style="stroke:#181818;stroke-width:1;"/><path d="M109.0331,112.8813 Q108.4521,113.1802 107.8129,113.3296 Q107.1738,113.479 106.4682,113.479 Q103.9614,113.479 102.6415,111.8271 Q101.3217,110.1753 101.3217,107.0542 Q101.3217,103.9248 102.6415,102.2729 Q103.9614,100.6211 106.4682,100.6211 Q107.1738,100.6211 107.8212,100.7705 Q108.4687,100.9199 109.0331,101.2187 L109.0331,103.9414 Q108.4023,103.3604 107.8088,103.0906 Q107.2153,102.8208 106.5844,102.8208 Q105.2397,102.8208 104.5549,103.8875 Q103.8701,104.9541 103.8701,107.0542 Q103.8701,109.146 104.5549,110.2126 Q105.2397,111.2793 106.5844,111.2793 Q107.2153,111.2793 107.8088,111.0095 Q108.4023,110.7397 109.0331,110.1587 Z " fill="#000000"/><text fill="#000000" font-family="sans-serif" font-size="14" lengthAdjust="spacing" textLength="104.8701" x="120.56" y="112.0293">DirectPriceFeed</text><line style="stroke:#181818;stroke-width:0.5;" x1="92.56" x2="227.4301" y1="122.7383" y2="122.7383"/><text fill="#000000" font-family="sans-serif" font-size="14" lengthAdjust="spacing" textLength="90.8633" x="97.56" y="140.2734">+setPrice(int)</text></g><g class="entity" data-qualified-name="stage one.GMN3" data-source-line="9" id="ent0004"><path d="M22.09,235.6483 L22.09,276.2694 A0,0 0 0 0 22.09,276.2694 L227.9147,276.2694 A0,0 0 0 0 227.9147,276.2694 L227.9147,245.6483 L217.9147,235.6483 L134.12,235.6483 L152.83,147.6183 L126.12,235.6483 L22.09,235.6483 A0,0 0 0 0 22.09,235.6483" fill="#FEFFDD" style="stroke:#181818;stroke-width:0.5;"/><path d="M217.9147,235.6483 L217.9147,245.6483 L227.9147,245.6483 L217.9147,235.6483" fill="#FEFFDD" style="stroke:#181818;stroke-width:0.5;"/><text fill="#000000" font-family="sans-serif" font-size="13" font-weight="700" lengthAdjust="spacing" textLength="184.8247" x="28.09" y="253.2166">The feed calls every reader.</text><text fill="#000000" font-family="sans-serif" font-size="13" lengthAdjust="spacing" textLength="171.8501" x="28.09" y="268.5272">It knows each one by class.</text></g><!--class PollingReaders--><g class="entity" data-qualified-name="stage two.PollingReaders" data-source-line="14" id="ent0007"><rect fill="#F1F1F1" height="56.4883" rx="2.5" ry="2.5" style="stroke:#181818;stroke-width:0.5;" width="131.7568" x="687.12" y="90.7383"/><ellipse cx="702.12" cy="106.7383" fill="#ADD1B2" rx="11" ry="11" style="stroke:#181818;stroke-width:1;"/><path d="M704.5931,112.8813 Q704.0121,113.1802 703.3729,113.3296 Q702.7338,113.479 702.0282,113.479 Q699.5214,113.479 698.2015,111.8271 Q696.8817,110.1753 696.8817,107.0542 Q696.8817,103.9248 698.2015,102.2729 Q699.5214,100.6211 702.0282,100.6211 Q702.7338,100.6211 703.3812,100.7705 Q704.0287,100.9199 704.5931,101.2187 L704.5931,103.9414 Q703.9623,103.3604 703.3688,103.0906 Q702.7753,102.8208 702.1444,102.8208 Q700.7997,102.8208 700.1149,103.8875 Q699.4301,104.9541 699.4301,107.0542 Q699.4301,109.146 700.1149,110.2126 Q700.7997,111.2793 702.1444,111.2793 Q702.7753,111.2793 703.3688,111.0095 Q703.9623,110.7397 704.5931,110.1587 Z " fill="#000000"/><text fill="#000000" font-family="sans-serif" font-size="14" lengthAdjust="spacing" textLength="99.7568" x="716.12" y="112.0293">PollingReaders</text><line style="stroke:#181818;stroke-width:0.5;" x1="688.12" x2="817.8768" y1="122.7383" y2="122.7383"/><text fill="#000000" font-family="sans-serif" font-size="14" lengthAdjust="spacing" textLength="45.7393" x="693.12" y="140.2734">+poll()</text></g><g class="entity" data-qualified-name="stage two.GMN8" data-source-line="18" id="ent0009"><path d="M606.35,235.6483 L606.35,276.2694 A0,0 0 0 0 606.35,276.2694 L845.6522,276.2694 A0,0 0 0 0 845.6522,276.2694 L845.6522,245.6483 L835.6522,235.6483 L733.95,235.6483 L747.47,147.6183 L725.95,235.6483 L606.35,235.6483 A0,0 0 0 0 606.35,235.6483" fill="#FEFFDD" style="stroke:#181818;stroke-width:0.5;"/><path d="M835.6522,235.6483 L835.6522,245.6483 L845.6522,245.6483 L835.6522,235.6483" fill="#FEFFDD" style="stroke:#181818;stroke-width:0.5;"/><text fill="#000000" font-family="sans-serif" font-size="13" font-weight="700" lengthAdjust="spacing" textLength="205.2832" x="612.35" y="253.2166">The readers poll every second.</text><text fill="#000000" font-family="sans-serif" font-size="13" lengthAdjust="spacing" textLength="218.3022" x="612.35" y="268.5272">Late, and most reads find nothing.</text></g><!--class ChangeOnlyReaders--><g class="entity" data-qualified-name="stage three.ChangeOnlyReaders" data-source-line="23" id="ent0012"><rect fill="#F1F1F1" height="80.9766" rx="2.5" ry="2.5" style="stroke:#181818;stroke-width:0.5;" width="168.1104" x="1018.94" y="78.4883"/><ellipse cx="1033.94" cy="94.4883" fill="#ADD1B2" rx="11" ry="11" style="stroke:#181818;stroke-width:1;"/><path d="M1036.4131,100.6313 Q1035.8321,100.9302 1035.1929,101.0796 Q1034.5538,101.229 1033.8482,101.229 Q1031.3414,101.229 1030.0215,99.5771 Q1028.7017,97.9253 1028.7017,94.8042 Q1028.7017,91.6748 1030.0215,90.0229 Q1031.3414,88.3711 1033.8482,88.3711 Q1034.5538,88.3711 1035.2012,88.5205 Q1035.8487,88.6699 1036.4131,88.9687 L1036.4131,91.6914 Q1035.7823,91.1104 1035.1888,90.8406 Q1034.5953,90.5708 1033.9644,90.5708 Q1032.6197,90.5708 1031.9349,91.6375 Q1031.2501,92.7041 1031.2501,94.8042 Q1031.2501,96.896 1031.9349,97.9626 Q1032.6197,99.0293 1033.9644,99.0293 Q1034.5953,99.0293 1035.1888,98.7595 Q1035.7823,98.4897 1036.4131,97.9087 Z " fill="#000000"/><text fill="#000000" font-family="sans-serif" font-size="14" lengthAdjust="spacing" textLength="136.1104" x="1047.94" y="99.7793">ChangeOnlyReaders</text><line style="stroke:#181818;stroke-width:0.5;" x1="1019.94" x2="1186.0504" y1="110.4883" y2="110.4883"/><text fill="#000000" font-family="sans-serif" font-size="14" lengthAdjust="spacing" textLength="95.3408" x="1024.94" y="128.0234">-lastSeen : int</text><line style="stroke:#181818;stroke-width:0.5;" x1="1019.94" x2="1186.0504" y1="134.9766" y2="134.9766"/><text fill="#000000" font-family="sans-serif" font-size="14" lengthAdjust="spacing" textLength="45.7393" x="1024.94" y="152.5117">+poll()</text></g><g class="entity" data-qualified-name="stage three.GMN13" data-source-line="28" id="ent0014"><path d="M1018.76,235.6483 L1018.76,276.2694 A0,0 0 0 0 1018.76,276.2694 L1295.2405,276.2694 A0,0 0 0 0 1295.2405,276.2694 L1295.2405,245.6483 L1285.2405,235.6483 L1153.15,235.6483 L1118.91,159.7483 L1145.15,235.6483 L1018.76,235.6483 A0,0 0 0 0 1018.76,235.6483" fill="#FEFFDD" style="stroke:#181818;stroke-width:0.5;"/><path d="M1285.2405,235.6483 L1285.2405,245.6483 L1295.2405,245.6483 L1285.2405,235.6483" fill="#FEFFDD" style="stroke:#181818;stroke-width:0.5;"/><text fill="#000000" font-family="sans-serif" font-size="13" font-weight="700" lengthAdjust="spacing" textLength="212.7671" x="1024.76" y="253.2166">Poll often, act only on a change.</text><text fill="#000000" font-family="sans-serif" font-size="13" lengthAdjust="spacing" textLength="255.4805" x="1024.76" y="268.5272">A spike between two polls is never seen.</text></g><!--class PriceFeed--><g class="entity" data-qualified-name="PriceFeed" data-source-line="32" id="ent0016"><rect fill="#F1F1F1" height="72.9766" rx="2.5" ry="2.5" style="stroke:#181818;stroke-width:0.5;" width="102.8633" x="880.57" y="219.4683"/><ellipse cx="898.4779" cy="235.4683" fill="#ADD1B2" rx="11" ry="11" style="stroke:#181818;stroke-width:1;"/><path d="M900.951,241.6113 Q900.37,241.9102 899.7308,242.0596 Q899.0916,242.209 898.3861,242.209 Q895.8792,242.209 894.5594,240.5571 Q893.2396,238.9053 893.2396,235.7842 Q893.2396,232.6548 894.5594,231.0029 Q895.8792,229.3511 898.3861,229.3511 Q899.0916,229.3511 899.7391,229.5005 Q900.3866,229.6499 900.951,229.9487 L900.951,232.6714 Q900.3201,232.0904 899.7266,231.8206 Q899.1331,231.5508 898.5023,231.5508 Q897.1575,231.5508 896.4727,232.6175 Q895.7879,233.6841 895.7879,235.7842 Q895.7879,237.876 896.4727,238.9426 Q897.1575,240.0093 898.5023,240.0093 Q899.1331,240.0093 899.7266,239.7395 Q900.3201,239.4697 900.951,238.8887 Z " fill="#000000"/><text fill="#000000" font-family="sans-serif" font-size="14" lengthAdjust="spacing" textLength="64.4014" x="913.1241" y="240.7593">PriceFeed</text><line style="stroke:#181818;stroke-width:0.5;" x1="881.57" x2="982.4333" y1="251.4683" y2="251.4683"/><text fill="#000000" font-family="sans-serif" font-size="14" lengthAdjust="spacing" textLength="90.8633" x="886.57" y="269.0034">+setPrice(int)</text><text fill="#000000" font-family="sans-serif" font-size="14" lengthAdjust="spacing" textLength="85.0527" x="886.57" y="285.4917">+price() : int</text></g><!--class Chart--><g class="entity" data-qualified-name="Chart" data-source-line="36" id="ent0017"><rect fill="#F1F1F1" height="32" rx="2.5" ry="2.5" style="stroke:#181818;stroke-width:0.5;" width="69.0713" x="262.46" y="239.9583"/><ellipse cx="277.46" cy="255.9583" fill="#ADD1B2" rx="11" ry="11" style="stroke:#181818;stroke-width:1;"/><path d="M279.9331,262.1013 Q279.3521,262.4002 278.7129,262.5496 Q278.0738,262.699 277.3682,262.699 Q274.8614,262.699 273.5415,261.0471 Q272.2217,259.3953 272.2217,256.2742 Q272.2217,253.1448 273.5415,251.4929 Q274.8614,249.8411 277.3682,249.8411 Q278.0738,249.8411 278.7212,249.9905 Q279.3687,250.1399 279.9331,250.4387 L279.9331,253.1614 Q279.3023,252.5804 278.7088,252.3106 Q278.1153,252.0408 277.4844,252.0408 Q276.1397,252.0408 275.4549,253.1075 Q274.7701,254.1741 274.7701,256.2742 Q274.7701,258.366 275.4549,259.4326 Q276.1397,260.4993 277.4844,260.4993 Q278.1153,260.4993 278.7088,260.2295 Q279.3023,259.9597 279.9331,259.3787 Z " fill="#000000"/><text fill="#000000" font-family="sans-serif" font-size="14" lengthAdjust="spacing" textLength="37.0713" x="291.46" y="261.2493">Chart</text></g><!--class Ticker--><g class="entity" data-qualified-name="Ticker" data-source-line="37" id="ent0018"><rect fill="#F1F1F1" height="32" rx="2.5" ry="2.5" style="stroke:#181818;stroke-width:0.5;" width="73.7813" x="366.11" y="239.9583"/><ellipse cx="381.11" cy="255.9583" fill="#ADD1B2" rx="11" ry="11" style="stroke:#181818;stroke-width:1;"/><path d="M383.5831,262.1013 Q383.0021,262.4002 382.3629,262.5496 Q381.7238,262.699 381.0182,262.699 Q378.5114,262.699 377.1915,261.0471 Q375.8717,259.3953 375.8717,256.2742 Q375.8717,253.1448 377.1915,251.4929 Q378.5114,249.8411 381.0182,249.8411 Q381.7238,249.8411 382.3712,249.9905 Q383.0187,250.1399 383.5831,250.4387 L383.5831,253.1614 Q382.9523,252.5804 382.3588,252.3106 Q381.7653,252.0408 381.1344,252.0408 Q379.7897,252.0408 379.1049,253.1075 Q378.4201,254.1741 378.4201,256.2742 Q378.4201,258.366 379.1049,259.4326 Q379.7897,260.4993 381.1344,260.4993 Q381.7653,260.4993 382.3588,260.2295 Q382.9523,259.9597 383.5831,259.3787 Z " fill="#000000"/><text fill="#000000" font-family="sans-serif" font-size="14" lengthAdjust="spacing" textLength="41.7813" x="395.11" y="261.2493">Ticker</text></g><!--class PriceAlert--><g class="entity" data-qualified-name="PriceAlert" data-source-line="38" id="ent0019"><rect fill="#F1F1F1" height="32" rx="2.5" ry="2.5" style="stroke:#181818;stroke-width:0.5;" width="96.9551" x="474.52" y="239.9583"/><ellipse cx="489.52" cy="255.9583" fill="#ADD1B2" rx="11" ry="11" style="stroke:#181818;stroke-width:1;"/><path d="M491.9931,262.1013 Q491.4121,262.4002 490.7729,262.5496 Q490.1338,262.699 489.4282,262.699 Q486.9214,262.699 485.6015,261.0471 Q484.2817,259.3953 484.2817,256.2742 Q484.2817,253.1448 485.6015,251.4929 Q486.9214,249.8411 489.4282,249.8411 Q490.1338,249.8411 490.7812,249.9905 Q491.4287,250.1399 491.9931,250.4387 L491.9931,253.1614 Q491.3623,252.5804 490.7688,252.3106 Q490.1753,252.0408 489.5444,252.0408 Q488.1997,252.0408 487.5149,253.1075 Q486.8301,254.1741 486.8301,256.2742 Q486.8301,258.366 487.5149,259.4326 Q488.1997,260.4993 489.5444,260.4993 Q490.1753,260.4993 490.7688,260.2295 Q491.3623,259.9597 491.9931,259.3787 Z " fill="#000000"/><text fill="#000000" font-family="sans-serif" font-size="14" lengthAdjust="spacing" textLength="64.9551" x="503.52" y="261.2493">PriceAlert</text></g><!--link DirectPriceFeed to Chart--><g class="link" data-entity-1="ent0002" data-entity-2="ent0017" data-link-type="dependency" data-source-line="39" id="lnk20"><path codeLine="39" d="M188.05,147.6183 C216.24,175.3883 255.0887,213.6587 277.7887,236.0287" fill="none" id="DirectPriceFeed-to-Chart" style="stroke:#181818;stroke-width:1;"/><polygon fill="#181818" points="281.35,239.5383,277.7473,230.372,277.7887,236.0287,272.132,236.0701,281.35,239.5383" style="stroke:#181818;stroke-width:1;stroke-linejoin:miter;stroke-miterlimit:10;"/></g><!--link DirectPriceFeed to Ticker--><g class="link" data-entity-1="ent0002" data-entity-2="ent0018" data-link-type="dependency" data-source-line="40" id="lnk21"><path codeLine="40" d="M215.77,147.5483 C253.82,166.7883 305.09,193.5683 349,219.4683 C359.63,225.7383 366.9351,230.3968 376.5551,236.8368" fill="none" id="DirectPriceFeed-to-Ticker" style="stroke:#181818;stroke-width:1;"/><polygon fill="#181818" points="380.71,239.6183,375.4563,231.2877,376.5551,236.8368,371.006,237.9356,380.71,239.6183" style="stroke:#181818;stroke-width:1;stroke-linejoin:miter;stroke-miterlimit:10;"/></g><!--link DirectPriceFeed to PriceAlert--><g class="link" data-entity-1="ent0002" data-entity-2="ent0019" data-link-type="dependency" data-source-line="41" id="lnk22"><path codeLine="41" d="M228.76,139.3883 C289.77,157.4483 380.76,186.4883 457,219.4683 C470.49,225.3083 480.5642,230.4711 492.4942,237.1311" fill="none" id="DirectPriceFeed-to-PriceAlert" style="stroke:#181818;stroke-width:1;"/><polygon fill="#181818" points="496.86,239.5683,490.9514,231.6887,492.4942,237.1311,487.0518,238.6739,496.86,239.5683" style="stroke:#181818;stroke-width:1;stroke-linejoin:miter;stroke-miterlimit:10;"/></g><!--link PollingReaders to PriceFeed--><g class="link" data-entity-1="ent0007" data-entity-2="ent0016" data-link-type="dependency" data-source-line="42" id="lnk23"><path codeLine="42" d="M789.66,147.6183 C817.07,168.2883 850.7884,193.7171 880.5084,216.1371" fill="none" id="PollingReaders-to-PriceFeed" style="stroke:#181818;stroke-width:1;"/><polygon fill="#181818" points="884.5,219.1483,879.724,210.5349,880.5084,216.1371,874.9062,216.9215,884.5,219.1483" style="stroke:#181818;stroke-width:1;stroke-linejoin:miter;stroke-miterlimit:10;"/></g><!--link ChangeOnlyReaders to PriceFeed--><g class="link" data-entity-1="ent0012" data-entity-2="ent0016" data-link-type="dependency" data-source-line="43" id="lnk24"><path codeLine="43" d="M1052.62,159.7483 C1028.78,178.5683 1004.4554,197.7713 981.2854,216.0513" fill="none" id="ChangeOnlyReaders-to-PriceFeed" style="stroke:#181818;stroke-width:1;"/><polygon fill="#181818" points="977.36,219.1483,986.9033,216.7141,981.2854,216.0513,981.9482,210.4334,977.36,219.1483" style="stroke:#181818;stroke-width:1;stroke-linejoin:miter;stroke-miterlimit:10;"/></g><!--link DirectPriceFeed to PollingReaders--><!--link PollingReaders to ChangeOnlyReaders--><?plantuml-src ZLDDQzj04BthLmmvEQHESWx1O5eAWK93urlfORLwjXQjTiNkf4Of-U-TNScDBAMq1rbcthmtRpuK6-Cw5LHBsgeOjyp1bC-C1-tTata1tHQrgK1eE-wfHLiYn88DMz2k3W05g4fYvFVa7QWBHkEEE6EAEH5ZqIdTg0Fe8d9wIU85_IfeA4gVJ83cnyJy35GP8RgYY26uCeul9VOgZ_CCAZspRrF96JKJxylDhWRjavHMraR2JuH-T7fzVrDkSju3K-FyKM2bwso-x0T7ruB3LRbOyJftpqS_TV_ehJNky6sSmyby9-7LNroVKwQcJzDCxD5sXEoYUhFzHJ4-a19xhO-S6P7sPh1RY-m_tAVDJFr_h9KxuAkp_NaBQnAOdm17ToGR-8--5bAdrbB3ai1mubop3DlsyaEATAQyTRUbs9b6HC77L5g6dKj6Cf5SceWC16xMuxY9imjQti_LS9shox6X4qzi1nx_xunk4AQ2Mmj1vpUwNcz6tdl8gF8UDD6SNSuVD5_oSYtd-4Bxktoe5ToFO0urh-StDgyrorvK-mq0?></g></svg>