<svg xmlns="http://www.w3.org/2000/svg" xmlns:xlink="http://www.w3.org/1999/xlink" contentStyleType="text/css" data-diagram-type="CLASS" height="315px" preserveAspectRatio="none" style="width:800px;height:315px;background:#FFFFFF;" version="1.1" viewBox="0 0 800 315" width="800px" zoomAndPan="magnify"><?plantuml 1.2026.5?><defs/><g><g class="title" data-source-line="3"><text fill="#000000" font-family="sans-serif" font-size="14" font-weight="700" lengthAdjust="spacing" textLength="251.5557" x="270.9812" y="23.5352">The export algorithm, written once</text></g><!--class ReportExporter--><g class="entity" data-qualified-name="ReportExporter" data-source-line="5" id="ent0001"><rect fill="#F1F1F1" height="131.0625" rx="2.5" ry="2.5" style="stroke:#181818;stroke-width:0.5;" width="262.2842" x="184.48" y="44.4883"/><ellipse cx="259.8189" cy="64.7988" fill="#A9DCDF" rx="11" ry="11" style="stroke:#181818;stroke-width:1;"/><path d="M259.6821,60.147 L258.5283,65.2188 L260.8443,65.2188 Z M258.188,57.9058 L261.1846,57.9058 L264.5298,70.2988 L262.0811,70.2988 L261.3174,67.2358 L258.0386,67.2358 L257.2915,70.2988 L254.8428,70.2988 Z " fill="#000000"/><text fill="#000000" font-family="sans-serif" font-size="12" font-style="italic" lengthAdjust="spacing" textLength="91.8164" x="285.9639" y="61.0898">&#171;AbstractClass&#187;</text><text fill="#000000" font-family="sans-serif" font-size="14" font-style="italic" lengthAdjust="spacing" textLength="103.1064" x="280.3189" y="77.1563">ReportExporter</text><line style="stroke:#181818;stroke-width:0.5;" x1="185.48" x2="445.7642" y1="85.1094" y2="85.1094"/><text fill="#000000" font-family="sans-serif" font-size="14" lengthAdjust="spacing" textLength="250.2842" x="190.48" y="102.6445">+{final} export(User, Report) : Export</text><text fill="#000000" font-family="sans-serif" font-size="14" font-style="italic" lengthAdjust="spacing" textLength="117.7764" x="190.48" y="119.1328">#header() : String</text><text fill="#000000" font-family="sans-serif" font-size="14" font-style="italic" lengthAdjust="spacing" textLength="123.4502" x="190.48" y="135.6211">#row(Sale) : String</text><text fill="#000000" font-family="sans-serif" font-size="14" font-style="italic" lengthAdjust="spacing" textLength="137.7988" x="190.48" y="152.1094">#extension() : String</text><text fill="#000000" font-family="sans-serif" font-size="14" lengthAdjust="spacing" textLength="112.3281" x="190.48" y="168.5977">#footer() : String</text></g><!--class CsvExporter--><g class="entity" data-qualified-name="CsvExporter" data-source-line="12" id="ent0002"><rect fill="#F1F1F1" height="40.6211" rx="2.5" ry="2.5" style="stroke:#181818;stroke-width:0.5;" width="123.2441" x="7" y="247.7883"/><ellipse cx="22" cy="268.0988" fill="#ADD1B2" rx="11" ry="11" style="stroke:#181818;stroke-width:1;"/><path d="M24.4731,274.2419 Q23.8921,274.5407 23.2529,274.6901 Q22.6138,274.8396 21.9082,274.8396 Q19.4014,274.8396 18.0815,273.1877 Q16.7617,271.5358 16.7617,268.4147 Q16.7617,265.2854 18.0815,263.6335 Q19.4014,261.9816 21.9082,261.9816 Q22.6138,261.9816 23.2612,262.1311 Q23.9087,262.2805 24.4731,262.5793 L24.4731,265.302 Q23.8423,264.7209 23.2488,264.4511 Q22.6553,264.1813 22.0244,264.1813 Q20.6797,264.1813 19.9949,265.248 Q19.3101,266.3146 19.3101,268.4147 Q19.3101,270.5065 19.9949,271.5732 Q20.6797,272.6398 22.0244,272.6398 Q22.6553,272.6398 23.2488,272.3701 Q23.8423,272.1003 24.4731,271.5192 Z " fill="#000000"/><text fill="#000000" font-family="sans-serif" font-size="12" font-style="italic" lengthAdjust="spacing" textLength="95.2441" x="34" y="264.3898">&#171;ConcreteClass&#187;</text><text fill="#000000" font-family="sans-serif" font-size="14" lengthAdjust="spacing" textLength="82.1475" x="40.5483" y="280.4563">CsvExporter</text></g><!--class HtmlExporter--><g class="entity" data-qualified-name="HtmlExporter" data-source-line="13" id="ent0003"><rect fill="#F1F1F1" height="65.1094" rx="2.5" ry="2.5" style="stroke:#181818;stroke-width:0.5;" width="124.3281" x="165.46" y="235.5483"/><ellipse cx="180.9478" cy="255.8588" fill="#ADD1B2" rx="11" ry="11" style="stroke:#181818;stroke-width:1;"/><path d="M183.4209,262.0019 Q182.8399,262.3007 182.2007,262.4501 Q181.5616,262.5996 180.856,262.5996 Q178.3492,262.5996 177.0293,260.9477 Q175.7095,259.2958 175.7095,256.1747 Q175.7095,253.0454 177.0293,251.3935 Q178.3492,249.7416 180.856,249.7416 Q181.5616,249.7416 182.209,249.8911 Q182.8565,250.0405 183.4209,250.3393 L183.4209,253.062 Q182.7901,252.4809 182.1966,252.2111 Q181.6031,251.9413 180.9722,251.9413 Q179.6275,251.9413 178.9427,253.008 Q178.2579,254.0746 178.2579,256.1747 Q178.2579,258.2665 178.9427,259.3332 Q179.6275,260.3998 180.9722,260.3998 Q181.6031,260.3998 182.1966,260.1301 Q182.7901,259.8603 183.4209,259.2792 Z " fill="#000000"/><text fill="#000000" font-family="sans-serif" font-size="12" font-style="italic" lengthAdjust="spacing" textLength="95.2441" x="193.0562" y="252.1498">&#171;ConcreteClass&#187;</text><text fill="#000000" font-family="sans-serif" font-size="14" lengthAdjust="spacing" textLength="90.7197" x="195.3184" y="268.2163">HtmlExporter</text><line style="stroke:#181818;stroke-width:0.5;" x1="166.46" x2="288.7881" y1="276.1694" y2="276.1694"/><text fill="#000000" font-family="sans-serif" font-size="14" lengthAdjust="spacing" textLength="112.3281" x="171.46" y="293.7045">#footer() : String</text></g><!--class MarkdownExporter--><g class="entity" data-qualified-name="MarkdownExporter" data-source-line="16" id="ent0004"><rect fill="#F1F1F1" height="40.6211" rx="2.5" ry="2.5" style="stroke:#181818;stroke-width:0.5;" width="160.666" x="324.29" y="247.7883"/><ellipse cx="339.29" cy="268.0988" fill="#ADD1B2" rx="11" ry="11" style="stroke:#181818;stroke-width:1;"/><path d="M341.7631,274.2419 Q341.1821,274.5407 340.5429,274.6901 Q339.9038,274.8396 339.1982,274.8396 Q336.6914,274.8396 335.3715,273.1877 Q334.0517,271.5358 334.0517,268.4147 Q334.0517,265.2854 335.3715,263.6335 Q336.6914,261.9816 339.1982,261.9816 Q339.9038,261.9816 340.5512,262.1311 Q341.1987,262.2805 341.7631,262.5793 L341.7631,265.302 Q341.1323,264.7209 340.5388,264.4511 Q339.9453,264.1813 339.3144,264.1813 Q337.9697,264.1813 337.2849,265.248 Q336.6001,266.3146 336.6001,268.4147 Q336.6001,270.5065 337.2849,271.5732 Q337.9697,272.6398 339.3144,272.6398 Q339.9453,272.6398 340.5388,272.3701 Q341.1323,272.1003 341.7631,271.5192 Z " fill="#000000"/><text fill="#000000" font-family="sans-serif" font-size="12" font-style="italic" lengthAdjust="spacing" textLength="95.2441" x="370.0009" y="264.3898">&#171;ConcreteClass&#187;</text><text fill="#000000" font-family="sans-serif" font-size="14" lengthAdjust="spacing" textLength="128.666" x="353.29" y="280.4563">MarkdownExporter</text></g><!--class AuditLog--><g class="entity" data-qualified-name="AuditLog" data-source-line="17" id="ent0005"><rect fill="#F1F1F1" height="32" rx="2.5" ry="2.5" style="stroke:#181818;stroke-width:0.5;" width="93.2363" x="520" y="252.1083"/><ellipse cx="535" cy="268.1083" fill="#ADD1B2" rx="11" ry="11" style="stroke:#181818;stroke-width:1;"/><path d="M537.4731,274.2513 Q536.8921,274.5502 536.2529,274.6996 Q535.6138,274.849 534.9082,274.849 Q532.4014,274.849 531.0815,273.1971 Q529.7617,271.5453 529.7617,268.4242 Q529.7617,265.2948 531.0815,263.6429 Q532.4014,261.9911 534.9082,261.9911 Q535.6138,261.9911 536.2612,262.1405 Q536.9087,262.2899 537.4731,262.5888 L537.4731,265.3114 Q536.8423,264.7304 536.2488,264.4606 Q535.6553,264.1908 535.0244,264.1908 Q533.6797,264.1908 532.9949,265.2575 Q532.3101,266.3241 532.3101,268.4242 Q532.3101,270.516 532.9949,271.5826 Q533.6797,272.6493 535.0244,272.6493 Q535.6553,272.6493 536.2488,272.3795 Q536.8423,272.1097 537.4731,271.5287 Z " fill="#000000"/><text fill="#000000" font-family="sans-serif" font-size="14" lengthAdjust="spacing" textLength="61.2363" x="549" y="273.3993">AuditLog</text></g><g class="entity" data-qualified-name="GMN10" data-source-line="25" id="ent0011"><path d="M481.73,74.3983 L481.73,106.0183 L446.98,110.0183 L481.73,114.0183 L481.73,145.6405 A0,0 0 0 0 481.73,145.6405 L785.5181,145.6405 A0,0 0 0 0 785.5181,145.6405 L785.5181,84.3983 L775.5181,74.3983 L481.73,74.3983 A0,0 0 0 0 481.73,74.3983" fill="#FEFFDD" style="stroke:#181818;stroke-width:0.5;"/><path d="M775.5181,74.3983 L775.5181,84.3983 L785.5181,84.3983 L775.5181,74.3983" fill="#FEFFDD" style="stroke:#181818;stroke-width:0.5;"/><text fill="#000000" font-family="sans-serif" font-size="13" font-weight="700" lengthAdjust="spacing" textLength="282.7881" x="487.73" y="91.9666">export() is the template method, and final.</text><text fill="#000000" font-family="sans-serif" font-size="13" lengthAdjust="spacing" textLength="252.5288" x="487.73" y="107.2772">Check permission, header, rows, footer,</text><text fill="#000000" font-family="sans-serif" font-size="13" lengthAdjust="spacing" textLength="246.9746" x="487.73" y="122.5877">file name, audit &#8212; always in this order.</text><text fill="#000000" font-family="sans-serif" font-size="13" lengthAdjust="spacing" textLength="226.9985" x="487.73" y="137.8983">footer() is a hook: empty by default.</text></g><!--reverse link ReportExporter to CsvExporter--><g class="link" data-entity-1="ent0001" data-entity-2="ent0002" data-link-type="extension" data-source-line="19" id="lnk6"><path codeLine="19" d="M197.8031,185.4731 C157.1131,211.1831 128.52,229.2583 99.96,247.2983" fill="none" id="ReportExporter-backto-CsvExporter" style="stroke:#181818;stroke-width:1;"/><polygon fill="none" points="213.02,175.8583,194.5981,180.4008,201.008,190.5454,213.02,175.8583" style="stroke:#181818;stroke-width:1;stroke-linejoin:miter;stroke-miterlimit:10;"/></g><!--reverse link ReportExporter to HtmlExporter--><g class="link" data-entity-1="ent0001" data-entity-2="ent0003" data-link-type="extension" data-source-line="20" id="lnk7"><path codeLine="20" d="M270.2231,191.5341 C258.6931,211.9641 255.32,217.9783 245.68,235.0683" fill="none" id="ReportExporter-backto-HtmlExporter" style="stroke:#181818;stroke-width:1;"/><polygon fill="none" points="279.07,175.8583,264.9978,188.5852,275.4484,194.4831,279.07,175.8583" style="stroke:#181818;stroke-width:1;stroke-linejoin:miter;stroke-miterlimit:10;"/></g><!--reverse link ReportExporter to MarkdownExporter--><g class="link" data-entity-1="ent0001" data-entity-2="ent0004" data-link-type="extension" data-source-line="21" id="lnk8"><path codeLine="21" d="M361.5055,191.4952 C376.2155,217.2952 383.14,229.4383 393.43,247.4783" fill="none" id="ReportExporter-backto-MarkdownExporter" style="stroke:#181818;stroke-width:1;"/><polygon fill="none" points="352.59,175.8583,356.2932,194.4671,366.7178,188.5234,352.59,175.8583" style="stroke:#181818;stroke-width:1;stroke-linejoin:miter;stroke-miterlimit:10;"/></g><!--link ReportExporter to AuditLog--><g class="link" data-entity-1="ent0001" data-entity-2="ent0005" data-link-type="dependency" data-source-line="22" id="lnk9"><path codeLine="22" d="M419.89,175.8583 C464.74,203.7483 509.074,231.3179 537.554,249.0279" fill="none" id="ReportExporter-to-AuditLog" style="stroke:#181818;stroke-width:1;"/><polygon fill="#181818" points="541.8,251.6683,536.2695,243.5189,537.554,249.0279,532.0449,250.3125,541.8,251.6683" style="stroke:#181818;stroke-width:1;stroke-linejoin:miter;stroke-miterlimit:10;"/></g><?plantuml-src XL91JiCm4Bpx5IjnQKLIE5THf2f20Wak51xW99l6QcnNzfQsb4eyWXVo4jQjAvMeXPCbxypkpExukJ8BwQI6gfFUJuYSAfU43vKrK_MES2jQLIEWNj06DEeIdHUag4DuQVb_lR2EG7OpwnIrEe4LluG6hAbG25bwShAYGtjunW2_svFGGPPDOhq8vJo7hG2uXcsZZEnsiVlWrQDB8dS8OpZm6Na5s-E07RGeQtI309Yo2pFh0vnT3QQomyi8NBDohwpfTscifT-zT-BWgF1l9tOATksGCDg9c7lItMNGtlDV8vwaczTsPVwTCrdMYXxjJ8Z-dZ_Iz5JfsVgfohE0leu-A4tp4mc6xO1JivR0Dht3i-6ipEDrXw0y46U9E6ITP9P6QcsTW3Grx9CmocxAd4b5YzKS5kYqyk5CIJnw4cxhaxZ3X96Due0QgP6x14dm_Vd5ALt9ZGTbU1pFj8wfem0-hfu_9RJMpiSnyEK6QcpaigEHG5OJJFq0?></g></svg>