<svg xmlns="http://www.w3.org/2000/svg" xmlns:xlink="http://www.w3.org/1999/xlink" contentStyleType="text/css" data-diagram-type="CLASS" height="307px" preserveAspectRatio="none" style="width:891px;height:307px;background:#FFFFFF;" version="1.1" viewBox="0 0 891 307" width="891px" zoomAndPan="magnify"><?plantuml 1.2026.5?><defs/><g><g class="title" data-source-line="3"><text fill="#000000" font-family="sans-serif" font-size="14" font-weight="700" lengthAdjust="spacing" textLength="339.0898" x="272.4551" y="23.5352">Saving a player at a checkpoint: three attempts</text></g><!--cluster stage one--><g class="cluster" data-qualified-name="stage one" data-source-line="4" id="ent0001"><path d="M8.5,47.4883 L79.7119,47.4883 A3.75,3.75 0 0 1 82.2119,49.9883 L89.2119,69.9766 L251.5,69.9766 A2.5,2.5 0 0 1 254,72.4766 L254,290.0783 A2.5,2.5 0 0 1 251.5,292.5783 L8.5,292.5783 A2.5,2.5 0 0 1 6,290.0783 L6,49.9883 A2.5,2.5 0 0 1 8.5,47.4883" fill="none" style="stroke:#000000;stroke-width:1.5;"/><line style="stroke:#000000;stroke-width:1.5;" x1="6" x2="89.2119" y1="69.9766" y2="69.9766"/><text fill="#000000" font-family="sans-serif" font-size="14" font-weight="700" lengthAdjust="spacing" textLength="70.2119" x="10" y="63.0234">stage one</text></g><!--cluster stage two--><g class="cluster" data-qualified-name="stage two" data-source-line="15" id="ent0006"><path d="M280.5,43.4883 L352.0674,43.4883 A3.75,3.75 0 0 1 354.5674,45.9883 L361.5674,65.9766 L541.5,65.9766 A2.5,2.5 0 0 1 544,68.4766 L544,282.4183 A2.5,2.5 0 0 1 541.5,284.9183 L280.5,284.9183 A2.5,2.5 0 0 1 278,282.4183 L278,45.9883 A2.5,2.5 0 0 1 280.5,43.4883" fill="none" style="stroke:#000000;stroke-width:1.5;"/><line style="stroke:#000000;stroke-width:1.5;" x1="278" x2="361.5674" y1="65.9766" y2="65.9766"/><text fill="#000000" font-family="sans-serif" font-size="14" font-weight="700" lengthAdjust="spacing" textLength="70.5674" x="282" y="59.0234">stage two</text></g><!--cluster stage three--><g class="cluster" data-qualified-name="stage three" data-source-line="25" id="ent0011"><path d="M570.5,55.7383 L653.0117,55.7383 A3.75,3.75 0 0 1 655.5117,58.2383 L662.5117,78.2266 L873.5,78.2266 A2.5,2.5 0 0 1 876,80.7266 L876,290.0783 A2.5,2.5 0 0 1 873.5,292.5783 L570.5,292.5783 A2.5,2.5 0 0 1 568,290.0783 L568,58.2383 A2.5,2.5 0 0 1 570.5,55.7383" fill="none" style="stroke:#000000;stroke-width:1.5;"/><line style="stroke:#000000;stroke-width:1.5;" x1="568" x2="662.5117" y1="78.2266" y2="78.2266"/><text fill="#000000" font-family="sans-serif" font-size="14" font-weight="700" lengthAdjust="spacing" textLength="81.5117" x="572" y="71.2734">stage three</text></g><!--class P1--><g class="entity" data-qualified-name="stage one.P1" data-source-line="5" id="ent0002"><rect fill="#F1F1F1" height="89.4648" rx="2.5" ry="2.5" style="stroke:#181818;stroke-width:0.5;" width="146.4697" x="73.77" y="82.4883"/><ellipse cx="99.3929" cy="98.4883" fill="#ADD1B2" rx="11" ry="11" style="stroke:#181818;stroke-width:1;"/><path d="M101.866,104.6313 Q101.285,104.9302 100.6458,105.0796 Q100.0067,105.229 99.3011,105.229 Q96.7943,105.229 95.4744,103.5771 Q94.1546,101.9253 94.1546,98.8042 Q94.1546,95.6748 95.4744,94.0229 Q96.7943,92.3711 99.3011,92.3711 Q100.0067,92.3711 100.6541,92.5205 Q101.3016,92.6699 101.866,92.9687 L101.866,95.6914 Q101.2352,95.1104 100.6417,94.8406 Q100.0482,94.5708 99.4173,94.5708 Q98.0726,94.5708 97.3878,95.6375 Q96.703,96.7041 96.703,98.8042 Q96.703,100.896 97.3878,101.9626 Q98.0726,103.0293 99.4173,103.0293 Q100.0482,103.0293 100.6417,102.7595 Q101.2352,102.4897 101.866,101.9087 Z " fill="#000000"/><text fill="#000000" font-family="sans-serif" font-size="14" lengthAdjust="spacing" textLength="90.8633" x="115.7535" y="103.7793">setters.Player</text><line style="stroke:#181818;stroke-width:0.5;" x1="74.77" x2="219.2397" y1="114.4883" y2="114.4883"/><text fill="#000000" font-family="sans-serif" font-size="14" lengthAdjust="spacing" textLength="102.1699" x="79.77" y="132.0234">+setHealth(int)</text><text fill="#000000" font-family="sans-serif" font-size="14" lengthAdjust="spacing" textLength="134.4697" x="79.77" y="148.5117">+setPosition(String)</text><text fill="#000000" font-family="sans-serif" font-size="14" lengthAdjust="spacing" textLength="127.627" x="79.77" y="165">+setInventory(List)</text></g><g class="entity" data-qualified-name="stage one.GMN3" data-source-line="11" id="ent0004"><path d="M22.43,235.9583 L22.43,276.5794 A0,0 0 0 0 22.43,276.5794 L237.5604,276.5794 A0,0 0 0 0 237.5604,276.5794 L237.5604,245.9583 L227.5604,235.9583 L136.61,235.9583 L141.1,172.2983 L128.61,235.9583 L22.43,235.9583 A0,0 0 0 0 22.43,235.9583" fill="#FEFFDD" style="stroke:#181818;stroke-width:0.5;"/><path d="M227.5604,235.9583 L227.5604,245.9583 L237.5604,245.9583 L227.5604,235.9583" fill="#FEFFDD" style="stroke:#181818;stroke-width:0.5;"/><text fill="#000000" font-family="sans-serif" font-size="13" font-weight="700" lengthAdjust="spacing" textLength="194.1304" x="28.43" y="253.5266">Public setters for everything.</text><text fill="#000000" font-family="sans-serif" font-size="13" lengthAdjust="spacing" textLength="193.3306" x="28.43" y="268.8372">Anyone may set health to 999.</text></g><!--class P2--><g class="entity" data-qualified-name="stage two.P2" data-source-line="16" id="ent0007"><rect fill="#F1F1F1" height="97.4648" rx="2.5" ry="2.5" style="stroke:#181818;stroke-width:0.5;" width="158.5078" x="331.75" y="78.4883"/><ellipse cx="362.4855" cy="94.4883" fill="#ADD1B2" rx="11" ry="11" style="stroke:#181818;stroke-width:1;"/><path d="M364.9586,100.6313 Q364.3776,100.9302 363.7384,101.0796 Q363.0993,101.229 362.3937,101.229 Q359.8869,101.229 358.567,99.5771 Q357.2472,97.9253 357.2472,94.8042 Q357.2472,91.6748 358.567,90.0229 Q359.8869,88.3711 362.3937,88.3711 Q363.0993,88.3711 363.7467,88.5205 Q364.3942,88.6699 364.9586,88.9687 L364.9586,91.6914 Q364.3278,91.1104 363.7343,90.8406 Q363.1408,90.5708 362.5099,90.5708 Q361.1652,90.5708 360.4804,91.6375 Q359.7956,92.7041 359.7956,94.8042 Q359.7956,96.896 360.4804,97.9626 Q361.1652,99.0293 362.5099,99.0293 Q363.1408,99.0293 363.7343,98.7595 Q364.3278,98.4897 364.9586,97.9087 Z " fill="#000000"/><text fill="#000000" font-family="sans-serif" font-size="14" lengthAdjust="spacing" textLength="91.54" x="379.9823" y="99.7793">history.Player</text><line style="stroke:#181818;stroke-width:0.5;" x1="332.75" x2="489.2578" y1="110.4883" y2="110.4883"/><text fill="#000000" font-family="sans-serif" font-size="14" lengthAdjust="spacing" textLength="146.5078" x="337.75" y="128.0234">-checkpoints : Deque</text><line style="stroke:#181818;stroke-width:0.5;" x1="332.75" x2="489.2578" y1="134.9766" y2="134.9766"/><text fill="#000000" font-family="sans-serif" font-size="14" lengthAdjust="spacing" textLength="127.0596" x="337.75" y="152.5117">+saveCheckpoint()</text><text fill="#000000" font-family="sans-serif" font-size="14" lengthAdjust="spacing" textLength="126.335" x="337.75" y="169">+loadCheckpoint()</text></g><g class="entity" data-qualified-name="stage two.GMN8" data-source-line="22" id="ent0009"><path d="M293.82,243.6083 L293.82,268.9188 A0,0 0 0 0 293.82,268.9188 L528.1711,268.9188 A0,0 0 0 0 528.1711,268.9188 L528.1711,253.6083 L518.1711,243.6083 L415,243.6083 L411,176.2583 L407,243.6083 L293.82,243.6083 A0,0 0 0 0 293.82,243.6083" fill="#FEFFDD" style="stroke:#181818;stroke-width:0.5;"/><path d="M518.1711,243.6083 L518.1711,253.6083 L528.1711,253.6083 L518.1711,243.6083" fill="#FEFFDD" style="stroke:#181818;stroke-width:0.5;"/><text fill="#000000" font-family="sans-serif" font-size="13" font-weight="700" lengthAdjust="spacing" textLength="213.3511" x="299.82" y="261.1766">The player keeps its own saves.</text></g><!--class P3--><g class="entity" data-qualified-name="stage three.P3" data-source-line="26" id="ent0012"><rect fill="#F1F1F1" height="72.9766" rx="2.5" ry="2.5" style="stroke:#181818;stroke-width:0.5;" width="155.5273" x="614.24" y="90.7383"/><ellipse cx="650.3188" cy="106.7383" fill="#ADD1B2" rx="11" ry="11" style="stroke:#181818;stroke-width:1;"/><path d="M652.792,112.8813 Q652.2109,113.1802 651.5717,113.3296 Q650.9326,113.479 650.227,113.479 Q647.7202,113.479 646.4004,111.8271 Q645.0805,110.1753 645.0805,107.0542 Q645.0805,103.9248 646.4004,102.2729 Q647.7202,100.6211 650.227,100.6211 Q650.9326,100.6211 651.58,100.7705 Q652.2275,100.9199 652.792,101.2187 L652.792,103.9414 Q652.1611,103.3604 651.5676,103.0906 Q650.9741,102.8208 650.3432,102.8208 Q648.9985,102.8208 648.3137,103.8875 Q647.6289,104.9541 647.6289,107.0542 Q647.6289,109.146 648.3137,110.2126 Q648.9985,111.2793 650.3432,111.2793 Q650.9741,111.2793 651.5676,111.0095 Q652.1611,110.7397 652.792,110.1587 Z " fill="#000000"/><text fill="#000000" font-family="sans-serif" font-size="14" lengthAdjust="spacing" textLength="76.6855" x="669.003" y="112.0293">copy.Player</text><line style="stroke:#181818;stroke-width:0.5;" x1="615.24" x2="768.7673" y1="122.7383" y2="122.7383"/><text fill="#000000" font-family="sans-serif" font-size="14" lengthAdjust="spacing" textLength="141.4355" x="620.24" y="140.2734">+Player(Player other)</text><text fill="#000000" font-family="sans-serif" font-size="14" lengthAdjust="spacing" textLength="143.5273" x="620.24" y="156.7617">+restoreFrom(Player)</text></g><g class="entity" data-qualified-name="stage three.GMN13" data-source-line="31" id="ent0014"><path d="M584.2,235.9583 L584.2,276.5794 A0,0 0 0 0 584.2,276.5794 L859.7918,276.5794 A0,0 0 0 0 859.7918,276.5794 L859.7918,245.9583 L849.7918,235.9583 L721.35,235.9583 L700.44,163.9483 L713.35,235.9583 L584.2,235.9583 A0,0 0 0 0 584.2,235.9583" fill="#FEFFDD" style="stroke:#181818;stroke-width:0.5;"/><path d="M849.7918,235.9583 L849.7918,245.9583 L859.7918,245.9583 L849.7918,235.9583" fill="#FEFFDD" style="stroke:#181818;stroke-width:0.5;"/><text fill="#000000" font-family="sans-serif" font-size="13" font-weight="700" lengthAdjust="spacing" textLength="231.772" x="590.2" y="253.5266">The copy shares the inventory list.</text><text fill="#000000" font-family="sans-serif" font-size="13" lengthAdjust="spacing" textLength="254.5918" x="590.2" y="268.8372">The checkpoint changes with the player.</text></g><!--link P1 to P2--><!--link P2 to P3--><?plantuml-src VL9DQzj04BthLpnyKYbsq_Za40AXfJJGWy6vXHnMyaIxMDfHTiSsQiX_xsXjERQRvB3iykRhlNaRLywt9fW6PMrYl1K9hbWBtPNi5-uluIApRacWffKE3JK5XPY9avgmC1ldAnYqjUaem8Y-IqlbgcNdvGfY0v72qbV7h3NbobI4KPJ-OayZl6JOJLQKD374oJnr6y54pB-d1E0hDFgRJ2qsrzPVti0vHoUEVRvGvhuwYjpv3NdXqEL_N4mbhtey2w5W4Mx0JpeX5LmND_DrKRiIUnPuuW3QKEZ4Qjl9zRVY9cNU-aw9ep5TdmgRE44OizbieXdabsb6zdgkLxPyejSgAsLtelTohtTyjCU8A_oavpKDqio6VXoY-Q2uPhCyWz_JUpdelRSq6BSYQYESJkAjJ_tZ8FWJERsv9u9ARa_LJ0_kxT1yTu75KXXu1-hNGBy2D_luHzIdnzJxOOZMQBbI8RZ1RTIwrpU_KkvXBVeqljAIhUjTEwpWp3dzT-C7_VTBye_1LLR6_UBKdV_GwJy0?></g></svg>