<svg xmlns="http://www.w3.org/2000/svg" xmlns:xlink="http://www.w3.org/1999/xlink" contentStyleType="text/css" data-diagram-type="CLASS" height="441px" preserveAspectRatio="none" style="width:638px;height:441px;background:#FFFFFF;" version="1.1" viewBox="0 0 638 441" width="638px" zoomAndPan="magnify"><?plantuml 1.2026.5?><defs/><g><g class="title" data-source-line="3"><text fill="#000000" font-family="sans-serif" font-size="14" font-weight="700" lengthAdjust="spacing" textLength="351.3535" x="140.3207" y="23.5352">GoF's Application and Document, in a short form</text></g><!--class Application--><g class="entity" data-qualified-name="Application" data-source-line="5" id="ent0001"><rect fill="#F1F1F1" height="105.9531" rx="2.5" ry="2.5" style="stroke:#181818;stroke-width:0.5;" width="287.0166" x="7" y="44.4883"/><ellipse cx="107.8335" cy="60.4883" fill="#A9DCDF" rx="11" ry="11" style="stroke:#181818;stroke-width:1;"/><path d="M107.6968,55.8364 L106.543,60.9082 L108.8589,60.9082 Z M106.2026,53.5952 L109.1992,53.5952 L112.5444,65.9883 L110.0957,65.9883 L109.332,62.9253 L106.0532,62.9253 L105.3062,65.9883 L102.8574,65.9883 Z " fill="#000000"/><text fill="#000000" font-family="sans-serif" font-size="14" font-style="italic" lengthAdjust="spacing" textLength="76.8496" x="128.3335" y="65.7793">Application</text><line style="stroke:#181818;stroke-width:0.5;" x1="8" x2="293.0166" y1="76.4883" y2="76.4883"/><text fill="#000000" font-family="sans-serif" font-size="14" lengthAdjust="spacing" textLength="181.583" x="13" y="94.0234">~openDocument(fileName)</text><text fill="#000000" font-family="sans-serif" font-size="14" font-style="italic" lengthAdjust="spacing" textLength="275.0166" x="13" y="110.5117">~canOpenDocument(fileName) : boolean</text><text fill="#000000" font-family="sans-serif" font-size="14" font-style="italic" lengthAdjust="spacing" textLength="272.1797" x="13" y="127">~createDocument(fileName) : Document</text><text fill="#000000" font-family="sans-serif" font-size="14" lengthAdjust="spacing" textLength="182.793" x="13" y="143.4883">~addDocument(Document)</text></g><!--class Document--><g class="entity" data-qualified-name="Document" data-source-line="11" id="ent0002"><rect fill="#F1F1F1" height="105.9531" rx="2.5" ry="2.5" style="stroke:#181818;stroke-width:0.5;" width="101.7402" x="25.64" y="211.4483"/><ellipse cx="40.64" cy="227.4483" fill="#A9DCDF" rx="11" ry="11" style="stroke:#181818;stroke-width:1;"/><path d="M40.5033,222.7964 L39.3495,227.8682 L41.6654,227.8682 Z M39.0091,220.5552 L42.0057,220.5552 L45.3509,232.9483 L42.9022,232.9483 L42.1385,229.8853 L38.8597,229.8853 L38.1127,232.9483 L35.6639,232.9483 Z " fill="#000000"/><text fill="#000000" font-family="sans-serif" font-size="14" font-style="italic" lengthAdjust="spacing" textLength="69.7402" x="54.64" y="232.7393">Document</text><line style="stroke:#181818;stroke-width:0.5;" x1="26.64" x2="126.3802" y1="243.4483" y2="243.4483"/><text fill="#000000" font-family="sans-serif" font-size="14" font-style="italic" lengthAdjust="spacing" textLength="51.8574" x="31.64" y="260.9834">~open()</text><text fill="#000000" font-family="sans-serif" font-size="14" font-style="italic" lengthAdjust="spacing" textLength="48.0293" x="31.64" y="277.4717">~read()</text><text fill="#000000" font-family="sans-serif" font-size="14" font-style="italic" lengthAdjust="spacing" textLength="47.8721" x="31.64" y="293.96">~save()</text><text fill="#000000" font-family="sans-serif" font-size="14" font-style="italic" lengthAdjust="spacing" textLength="52.7119" x="31.64" y="310.4483">~close()</text></g><!--class MyApplication--><g class="entity" data-qualified-name="MyApplication" data-source-line="17" id="ent0003"><rect fill="#F1F1F1" height="32" rx="2.5" ry="2.5" style="stroke:#181818;stroke-width:0.5;" width="128.2227" x="162.4" y="248.4183"/><ellipse cx="177.4" cy="264.4183" fill="#ADD1B2" rx="11" ry="11" style="stroke:#181818;stroke-width:1;"/><path d="M179.8731,270.5613 Q179.2921,270.8602 178.6529,271.0096 Q178.0138,271.159 177.3082,271.159 Q174.8014,271.159 173.4815,269.5071 Q172.1617,267.8553 172.1617,264.7342 Q172.1617,261.6048 173.4815,259.9529 Q174.8014,258.3011 177.3082,258.3011 Q178.0138,258.3011 178.6612,258.4505 Q179.3087,258.5999 179.8731,258.8988 L179.8731,261.6214 Q179.2423,261.0404 178.6488,260.7706 Q178.0553,260.5008 177.4244,260.5008 Q176.0797,260.5008 175.3949,261.5675 Q174.7101,262.6341 174.7101,264.7342 Q174.7101,266.826 175.3949,267.8926 Q176.0797,268.9593 177.4244,268.9593 Q178.0553,268.9593 178.6488,268.6895 Q179.2423,268.4197 179.8731,267.8387 Z " fill="#000000"/><text fill="#000000" font-family="sans-serif" font-size="14" lengthAdjust="spacing" textLength="96.2227" x="191.4" y="269.7093">MyApplication</text></g><!--class MyDocument--><g class="entity" data-qualified-name="MyDocument" data-source-line="18" id="ent0004"><rect fill="#F1F1F1" height="32" rx="2.5" ry="2.5" style="stroke:#181818;stroke-width:0.5;" width="121.1133" x="90.95" y="394.3983"/><ellipse cx="105.95" cy="410.3983" fill="#ADD1B2" rx="11" ry="11" style="stroke:#181818;stroke-width:1;"/><path d="M108.4231,416.5413 Q107.8421,416.8402 107.2029,416.9896 Q106.5638,417.139 105.8582,417.139 Q103.3514,417.139 102.0315,415.4871 Q100.7117,413.8353 100.7117,410.7142 Q100.7117,407.5848 102.0315,405.9329 Q103.3514,404.2811 105.8582,404.2811 Q106.5638,404.2811 107.2112,404.4305 Q107.8587,404.5799 108.4231,404.8788 L108.4231,407.6014 Q107.7923,407.0204 107.1988,406.7506 Q106.6053,406.4808 105.9744,406.4808 Q104.6297,406.4808 103.9449,407.5475 Q103.2601,408.6141 103.2601,410.7142 Q103.2601,412.806 103.9449,413.8726 Q104.6297,414.9393 105.9744,414.9393 Q106.6053,414.9393 107.1988,414.6695 Q107.7923,414.3997 108.4231,413.8187 Z " fill="#000000"/><text fill="#000000" font-family="sans-serif" font-size="14" lengthAdjust="spacing" textLength="89.1133" x="119.95" y="415.6893">MyDocument</text></g><g class="entity" data-qualified-name="GMN9" data-source-line="26" id="ent0010"><path d="M329.03,69.4983 L329.03,93.4683 L294.41,97.4683 L329.03,101.4683 L329.03,125.4299 A0,0 0 0 0 329.03,125.4299 L623.9948,125.4299 A0,0 0 0 0 623.9948,125.4299 L623.9948,79.4983 L613.9948,69.4983 L329.03,69.4983 A0,0 0 0 0 329.03,69.4983" fill="#FEFFDD" style="stroke:#181818;stroke-width:0.5;"/><path d="M613.9948,69.4983 L613.9948,79.4983 L623.9948,79.4983 L613.9948,69.4983" fill="#FEFFDD" style="stroke:#181818;stroke-width:0.5;"/><text fill="#000000" font-family="sans-serif" font-size="13" font-weight="700" lengthAdjust="spacing" textLength="273.9648" x="335.03" y="87.0666">openDocument() is the template method.</text><text fill="#000000" font-family="sans-serif" font-size="13" lengthAdjust="spacing" textLength="244.645" x="335.03" y="102.3772">The full version, with the hook and the</text><text fill="#000000" font-family="sans-serif" font-size="13" lengthAdjust="spacing" textLength="228.9854" x="335.03" y="117.6877">final keyword, is in the gof package.</text></g><!--reverse link Application to MyApplication--><g class="link" data-entity-1="ent0001" data-entity-2="ent0003" data-link-type="extension" data-source-line="20" id="lnk5"><path codeLine="20" d="M182.0889,167.0081 C197.6489,200.7981 209.32,226.1183 219.46,248.1283" fill="none" id="Application-backto-MyApplication" style="stroke:#181818;stroke-width:1;"/><polygon fill="none" points="174.56,150.6583,176.639,169.5177,187.5389,164.4984,174.56,150.6583" style="stroke:#181818;stroke-width:1;stroke-linejoin:miter;stroke-miterlimit:10;"/></g><!--reverse link Document to MyDocument--><g class="link" data-entity-1="ent0002" data-entity-2="ent0004" data-link-type="extension" data-source-line="21" id="lnk6"><path codeLine="21" d="M112.1135,333.7734 C126.1835,360.7934 134.02,375.8283 143.46,393.9483" fill="none" id="Document-backto-MyDocument" style="stroke:#181818;stroke-width:1;"/><polygon fill="none" points="103.8,317.8083,106.7917,336.5446,117.4352,331.0023,103.8,317.8083" style="stroke:#181818;stroke-width:1;stroke-linejoin:miter;stroke-miterlimit:10;"/></g><!--link Application to Document--><g class="link" data-entity-1="ent0001" data-entity-2="ent0002" data-link-type="aggregation" data-source-line="22" id="lnk7"><path codeLine="22" d="M122.1831,161.6092 C113.5531,180.8692 110.7176,187.1668 102.0676,206.4368" fill="none" id="Application-Document" style="stroke:#181818;stroke-width:1;"/><polygon fill="none" points="127.09,150.6583,120.9863,154.4981,122.1831,161.6092,128.2869,157.7694,127.09,150.6583" style="stroke:#181818;stroke-width:1;stroke-linejoin:miter;stroke-miterlimit:10;"/><polygon fill="#181818" points="100.02,210.9983,107.3549,204.4256,102.0676,206.4368,100.0565,201.1495,100.02,210.9983" style="stroke:#181818;stroke-width:1;stroke-linejoin:miter;stroke-miterlimit:10;"/><text fill="#000000" font-family="sans-serif" font-size="13" lengthAdjust="spacing" textLength="6.2651" x="96.6648" y="200.7803">*</text></g><!--link MyApplication to MyDocument--><g class="link" data-entity-1="ent0003" data-entity-2="ent0004" data-link-type="dependency" data-source-line="23" id="lnk8"><path codeLine="23" d="M218.48,280.8283 C204.05,308.5383 176.1796,362.0337 161.7896,389.6637" fill="none" id="MyApplication-to-MyDocument" style="stroke:#181818;stroke-width:1;stroke-dasharray:7,7;"/><polygon fill="#181818" points="159.48,394.0983,167.185,387.9637,161.7896,389.6637,160.0896,384.2683,159.48,394.0983" style="stroke:#181818;stroke-width:1;stroke-linejoin:miter;stroke-miterlimit:10;"/><text fill="#000000" font-family="sans-serif" font-size="13" lengthAdjust="spacing" textLength="45.1318" x="183.29" y="360.9666">creates</text></g><?plantuml-src RPB1JiCm38RlUGgB2njQ2sSqJPg4G1o00xn0shfhr3Ik4c_J6EFPSRkrTEjkxU__Y_yu3gLnjVQwWjJg49RCtYHhnjUKtAVvHdXGXSaGiAfv1nLM2VgWsB15UA7dsm3BkhOcrMp8WNOPF56whj3n38m840ho33dvIYcT1FOwvMElCtAl07w1QdGTFycDnNTTuRGjxJlu0Abs7rUDy0W9aKNjHeX7pNYLwCGMqLdMcxgFgJfS9kzAfzY3HiqD9gF4qZqRgq5lSAocba8Z7zInrzjkCATUwrEhuHJdFr5q0VHHJxKU778KHGkukRlv7yRP8H37Ym4gGplECoZbY16yMHKCb0zVLAurJnPd3pe54u0B19PjiiBBFd51MJo_JnRY_v9IlhOMDh9ZSiGCjeQBbYY8odQxv4USkN7QGecxBVbirXmhkzRuLXAYrccfLnWh57-Jxmy0?></g></svg>