<svg xmlns="http://www.w3.org/2000/svg" xmlns:xlink="http://www.w3.org/1999/xlink" contentStyleType="text/css" data-diagram-type="CLASS" height="592px" preserveAspectRatio="none" style="width:1324px;height:592px;background:#FFFFFF;" version="1.1" viewBox="0 0 1324 592" width="1324px" zoomAndPan="magnify"><?plantuml 1.2026.5?><defs/><g><g class="title" data-source-line="3"><text fill="#000000" font-family="sans-serif" font-size="14" font-weight="700" lengthAdjust="spacing" textLength="416.5752" x="450.4896" y="23.5352">Bridge &#8212; homework 1, three documents over three media</text></g><!--class Document--><g class="entity" data-qualified-name="Document" data-source-line="6" id="ent0001"><rect fill="#F1F1F1" height="106.0859" rx="2.5" ry="2.5" style="stroke:#181818;stroke-width:0.5;" width="144.1045" x="832.49" y="44.4883"/><ellipse cx="863.9752" cy="64.7988" fill="#A9DCDF" rx="11" ry="11" style="stroke:#181818;stroke-width:1;"/><path d="M863.8385,60.147 L862.6847,65.2188 L865.0006,65.2188 Z M862.3443,57.9058 L865.3409,57.9058 L868.6861,70.2988 L866.2374,70.2988 L865.4737,67.2358 L862.1949,67.2358 L861.4479,70.2988 L858.9991,70.2988 Z " fill="#000000"/><text fill="#000000" font-family="sans-serif" font-size="12" font-style="italic" lengthAdjust="spacing" textLength="79.4707" x="879.6386" y="61.0898">&#171;Abstraction&#187;</text><text fill="#000000" font-family="sans-serif" font-size="14" font-style="italic" lengthAdjust="spacing" textLength="69.7402" x="884.5038" y="77.1563">Document</text><line style="stroke:#181818;stroke-width:0.5;" x1="833.49" x2="975.5945" y1="85.1094" y2="85.1094"/><text fill="#000000" font-family="sans-serif" font-size="14" lengthAdjust="spacing" textLength="132.1045" x="838.49" y="102.6445">#medium : Medium</text><line style="stroke:#181818;stroke-width:0.5;" x1="833.49" x2="975.5945" y1="109.5977" y2="109.5977"/><text fill="#000000" font-family="sans-serif" font-size="14" lengthAdjust="spacing" textLength="118.0498" x="838.49" y="127.1328">+render() : String</text><text fill="#000000" font-family="sans-serif" font-size="14" font-style="italic" lengthAdjust="spacing" textLength="93.4883" x="838.49" y="143.6211">#body() : void</text></g><!--class Invoice--><g class="entity" data-qualified-name="Invoice" data-source-line="12" id="ent0002"><rect fill="#F1F1F1" height="40.6211" rx="2.5" ry="2.5" style="stroke:#181818;stroke-width:0.5;" width="151.3105" x="734.89" y="272.7983"/><ellipse cx="749.89" cy="293.1088" fill="#ADD1B2" rx="11" ry="11" style="stroke:#181818;stroke-width:1;"/><path d="M752.3631,299.2519 Q751.7821,299.5507 751.1429,299.7001 Q750.5038,299.8496 749.7982,299.8496 Q747.2914,299.8496 745.9715,298.1977 Q744.6517,296.5458 744.6517,293.4247 Q744.6517,290.2954 745.9715,288.6435 Q747.2914,286.9916 749.7982,286.9916 Q750.5038,286.9916 751.1512,287.1411 Q751.7987,287.2905 752.3631,287.5893 L752.3631,290.312 Q751.7323,289.7309 751.1388,289.4611 Q750.5453,289.1913 749.9144,289.1913 Q748.5697,289.1913 747.8849,290.258 Q747.2001,291.3246 747.2001,293.4247 Q747.2001,295.5165 747.8849,296.5832 Q748.5697,297.6498 749.9144,297.6498 Q750.5453,297.6498 751.1388,297.3801 Q751.7323,297.1103 752.3631,296.5292 Z " fill="#000000"/><text fill="#000000" font-family="sans-serif" font-size="12" font-style="italic" lengthAdjust="spacing" textLength="123.3105" x="761.89" y="289.3998">&#171;RefinedAbstraction&#187;</text><text fill="#000000" font-family="sans-serif" font-size="14" lengthAdjust="spacing" textLength="47.585" x="799.7528" y="305.4663">Invoice</text></g><!--class AccountStatement--><g class="entity" data-qualified-name="AccountStatement" data-source-line="13" id="ent0003"><rect fill="#F1F1F1" height="40.6211" rx="2.5" ry="2.5" style="stroke:#181818;stroke-width:0.5;" width="155.5527" x="920.77" y="272.7983"/><ellipse cx="935.77" cy="293.1088" fill="#ADD1B2" rx="11" ry="11" style="stroke:#181818;stroke-width:1;"/><path d="M938.2431,299.2519 Q937.6621,299.5507 937.0229,299.7001 Q936.3838,299.8496 935.6782,299.8496 Q933.1714,299.8496 931.8515,298.1977 Q930.5317,296.5458 930.5317,293.4247 Q930.5317,290.2954 931.8515,288.6435 Q933.1714,286.9916 935.6782,286.9916 Q936.3838,286.9916 937.0312,287.1411 Q937.6787,287.2905 938.2431,287.5893 L938.2431,290.312 Q937.6123,289.7309 937.0188,289.4611 Q936.4253,289.1913 935.7944,289.1913 Q934.4497,289.1913 933.7649,290.258 Q933.0801,291.3246 933.0801,293.4247 Q933.0801,295.5165 933.7649,296.5832 Q934.4497,297.6498 935.7944,297.6498 Q936.4253,297.6498 937.0188,297.3801 Q937.6123,297.1103 938.2431,296.5292 Z " fill="#000000"/><text fill="#000000" font-family="sans-serif" font-size="12" font-style="italic" lengthAdjust="spacing" textLength="123.3105" x="949.8911" y="289.3998">&#171;RefinedAbstraction&#187;</text><text fill="#000000" font-family="sans-serif" font-size="14" lengthAdjust="spacing" textLength="123.5527" x="949.77" y="305.4663">AccountStatement</text></g><!--class DunningLetter--><g class="entity" data-qualified-name="DunningLetter" data-source-line="14" id="ent0004"><rect fill="#F1F1F1" height="40.6211" rx="2.5" ry="2.5" style="stroke:#181818;stroke-width:0.5;" width="151.3105" x="1110.89" y="272.7983"/><ellipse cx="1125.89" cy="293.1088" fill="#ADD1B2" rx="11" ry="11" style="stroke:#181818;stroke-width:1;"/><path d="M1128.3631,299.2519 Q1127.7821,299.5507 1127.1429,299.7001 Q1126.5038,299.8496 1125.7982,299.8496 Q1123.2914,299.8496 1121.9715,298.1977 Q1120.6517,296.5458 1120.6517,293.4247 Q1120.6517,290.2954 1121.9715,288.6435 Q1123.2914,286.9916 1125.7982,286.9916 Q1126.5038,286.9916 1127.1512,287.1411 Q1127.7987,287.2905 1128.3631,287.5893 L1128.3631,290.312 Q1127.7323,289.7309 1127.1388,289.4611 Q1126.5453,289.1913 1125.9144,289.1913 Q1124.5697,289.1913 1123.8849,290.258 Q1123.2001,291.3246 1123.2001,293.4247 Q1123.2001,295.5165 1123.8849,296.5832 Q1124.5697,297.6498 1125.9144,297.6498 Q1126.5453,297.6498 1127.1388,297.3801 Q1127.7323,297.1103 1128.3631,296.5292 Z " fill="#000000"/><text fill="#000000" font-family="sans-serif" font-size="12" font-style="italic" lengthAdjust="spacing" textLength="123.3105" x="1137.89" y="289.3998">&#171;RefinedAbstraction&#187;</text><text fill="#000000" font-family="sans-serif" font-size="14" lengthAdjust="spacing" textLength="97.2822" x="1150.9042" y="305.4663">DunningLetter</text></g><!--class Medium--><g class="entity" data-qualified-name="Medium" data-source-line="16" id="ent0005"><rect fill="#F1F1F1" height="131.0625" rx="2.5" ry="2.5" style="stroke:#181818;stroke-width:0.5;" width="198.3887" x="193.35" y="227.5683"/><ellipse cx="246.7709" cy="247.8788" fill="#B4A7E5" rx="11" ry="11" style="stroke:#181818;stroke-width:1;"/><path d="M243.1986,244.144 L243.1986,241.9858 L250.578,241.9858 L250.578,244.144 L248.1127,244.144 L248.1127,252.2206 L250.578,252.2206 L250.578,254.3788 L243.1986,254.3788 L243.1986,252.2206 L245.664,252.2206 L245.664,244.144 Z " fill="#000000"/><text fill="#000000" font-family="sans-serif" font-size="12" font-style="italic" lengthAdjust="spacing" textLength="87.0469" x="265.2709" y="244.1698">&#171;Implementor&#187;</text><text fill="#000000" font-family="sans-serif" font-size="14" font-style="italic" lengthAdjust="spacing" textLength="54.4756" x="281.5565" y="260.2363">Medium</text><line style="stroke:#181818;stroke-width:0.5;" x1="194.35" x2="390.7387" y1="268.1894" y2="268.1894"/><text fill="#000000" font-family="sans-serif" font-size="14" lengthAdjust="spacing" textLength="183.3809" x="199.35" y="285.7245">+heading(level, text) : void</text><text fill="#000000" font-family="sans-serif" font-size="14" lengthAdjust="spacing" textLength="168.8887" x="199.35" y="302.2128">+field(label, value) : void</text><text fill="#000000" font-family="sans-serif" font-size="14" lengthAdjust="spacing" textLength="130.833" x="199.35" y="318.7011">+row(cells...) : void</text><text fill="#000000" font-family="sans-serif" font-size="14" lengthAdjust="spacing" textLength="186.3887" x="199.35" y="335.1894">+total(label, amount) : void</text><text fill="#000000" font-family="sans-serif" font-size="14" lengthAdjust="spacing" textLength="118.7539" x="199.35" y="351.6777">+output() : String</text></g><!--class HtmlMedium--><g class="entity" data-qualified-name="HtmlMedium" data-source-line="24" id="ent0006"><rect fill="#F1F1F1" height="40.6211" rx="2.5" ry="2.5" style="stroke:#181818;stroke-width:0.5;" width="167.084" x="7" y="419.6383"/><ellipse cx="22" cy="439.9488" fill="#ADD1B2" rx="11" ry="11" style="stroke:#181818;stroke-width:1;"/><path d="M24.4731,446.0919 Q23.8921,446.3907 23.2529,446.5401 Q22.6138,446.6896 21.9082,446.6896 Q19.4014,446.6896 18.0815,445.0377 Q16.7617,443.3858 16.7617,440.2647 Q16.7617,437.1354 18.0815,435.4835 Q19.4014,433.8316 21.9082,433.8316 Q22.6138,433.8316 23.2612,433.9811 Q23.9087,434.1305 24.4731,434.4293 L24.4731,437.152 Q23.8423,436.5709 23.2488,436.3011 Q22.6553,436.0313 22.0244,436.0313 Q20.6797,436.0313 19.9949,437.098 Q19.3101,438.1646 19.3101,440.2647 Q19.3101,442.3565 19.9949,443.4232 Q20.6797,444.4898 22.0244,444.4898 Q22.6553,444.4898 23.2488,444.2201 Q23.8423,443.9503 24.4731,443.3692 Z " fill="#000000"/><text fill="#000000" font-family="sans-serif" font-size="12" font-style="italic" lengthAdjust="spacing" textLength="139.084" x="34" y="436.2398">&#171;ConcreteImplementor&#187;</text><text fill="#000000" font-family="sans-serif" font-size="14" lengthAdjust="spacing" textLength="87.1172" x="59.9834" y="452.3063">HtmlMedium</text></g><!--class PlainTextMedium--><g class="entity" data-qualified-name="PlainTextMedium" data-source-line="25" id="ent0007"><rect fill="#F1F1F1" height="40.6211" rx="2.5" ry="2.5" style="stroke:#181818;stroke-width:0.5;" width="167.084" x="209" y="419.6383"/><ellipse cx="224" cy="439.9488" fill="#ADD1B2" rx="11" ry="11" style="stroke:#181818;stroke-width:1;"/><path d="M226.4731,446.0919 Q225.8921,446.3907 225.2529,446.5401 Q224.6138,446.6896 223.9082,446.6896 Q221.4014,446.6896 220.0815,445.0377 Q218.7617,443.3858 218.7617,440.2647 Q218.7617,437.1354 220.0815,435.4835 Q221.4014,433.8316 223.9082,433.8316 Q224.6138,433.8316 225.2612,433.9811 Q225.9087,434.1305 226.4731,434.4293 L226.4731,437.152 Q225.8423,436.5709 225.2488,436.3011 Q224.6553,436.0313 224.0244,436.0313 Q222.6797,436.0313 221.9949,437.098 Q221.3101,438.1646 221.3101,440.2647 Q221.3101,442.3565 221.9949,443.4232 Q222.6797,444.4898 224.0244,444.4898 Q224.6553,444.4898 225.2488,444.2201 Q225.8423,443.9503 226.4731,443.3692 Z " fill="#000000"/><text fill="#000000" font-family="sans-serif" font-size="12" font-style="italic" lengthAdjust="spacing" textLength="139.084" x="236" y="436.2398">&#171;ConcreteImplementor&#187;</text><text fill="#000000" font-family="sans-serif" font-size="14" lengthAdjust="spacing" textLength="117.2021" x="246.9409" y="452.3063">PlainTextMedium</text></g><!--class SpokenMedium--><g class="entity" data-qualified-name="SpokenMedium" data-source-line="26" id="ent0008"><rect fill="#F1F1F1" height="40.6211" rx="2.5" ry="2.5" style="stroke:#181818;stroke-width:0.5;" width="167.084" x="411" y="419.6383"/><ellipse cx="426" cy="439.9488" fill="#ADD1B2" rx="11" ry="11" style="stroke:#181818;stroke-width:1;"/><path d="M428.4731,446.0919 Q427.8921,446.3907 427.2529,446.5401 Q426.6138,446.6896 425.9082,446.6896 Q423.4014,446.6896 422.0815,445.0377 Q420.7617,443.3858 420.7617,440.2647 Q420.7617,437.1354 422.0815,435.4835 Q423.4014,433.8316 425.9082,433.8316 Q426.6138,433.8316 427.2612,433.9811 Q427.9087,434.1305 428.4731,434.4293 L428.4731,437.152 Q427.8423,436.5709 427.2488,436.3011 Q426.6553,436.0313 426.0244,436.0313 Q424.6797,436.0313 423.9949,437.098 Q423.3101,438.1646 423.3101,440.2647 Q423.3101,442.3565 423.9949,443.4232 Q424.6797,444.4898 426.0244,444.4898 Q426.6553,444.4898 427.2488,444.2201 Q427.8423,443.9503 428.4731,443.3692 Z " fill="#000000"/><text fill="#000000" font-family="sans-serif" font-size="12" font-style="italic" lengthAdjust="spacing" textLength="139.084" x="438" y="436.2398">&#171;ConcreteImplementor&#187;</text><text fill="#000000" font-family="sans-serif" font-size="14" lengthAdjust="spacing" textLength="104.0977" x="455.4932" y="452.3063">SpokenMedium</text></g><g class="entity" data-qualified-name="GMN16" data-source-line="37" id="ent0017"><path d="M426.81,257.4783 L426.81,289.1083 L392.05,293.1083 L426.81,297.1083 L426.81,328.7205 A0,0 0 0 0 426.81,328.7205 L700.2753,328.7205 A0,0 0 0 0 700.2753,328.7205 L700.2753,267.4783 L690.2753,257.4783 L426.81,257.4783 A0,0 0 0 0 426.81,257.4783" fill="#FEFFDD" style="stroke:#181818;stroke-width:0.5;"/><path d="M690.2753,257.4783 L690.2753,267.4783 L700.2753,267.4783 L690.2753,257.4783" fill="#FEFFDD" style="stroke:#181818;stroke-width:0.5;"/><text fill="#000000" font-family="sans-serif" font-size="13" lengthAdjust="spacing" textLength="156.9395" x="432.81" y="275.0466">Every primitive describes</text><text fill="#000000" font-family="sans-serif" font-size="13" font-weight="700" lengthAdjust="spacing" textLength="57.7446" x="593.8627" y="275.0466">meaning</text><text fill="#000000" font-family="sans-serif" font-size="13" lengthAdjust="spacing" textLength="4.1133" x="651.6074" y="275.0466">,</text><text fill="#000000" font-family="sans-serif" font-size="13" lengthAdjust="spacing" textLength="252.4653" x="432.81" y="290.3572">not ink. drawBox, setFont, newPage and</text><text fill="#000000" font-family="sans-serif" font-size="13" lengthAdjust="spacing" textLength="193.1528" x="432.81" y="305.6677">margin are all questions about</text><text fill="#000000" font-family="sans-serif" font-size="13" font-weight="700" lengthAdjust="spacing" textLength="38.397" x="630.0761" y="305.6677">paper</text><text fill="#000000" font-family="sans-serif" font-size="13" lengthAdjust="spacing" textLength="4.1133" x="668.4731" y="305.6677">,</text><text fill="#000000" font-family="sans-serif" font-size="13" lengthAdjust="spacing" textLength="238.6846" x="432.81" y="320.9783">and a voice can answer none of them.</text></g><g class="entity" data-qualified-name="GMN19" data-source-line="44" id="ent0020"><path d="M359.32,521.2583 L359.32,577.1899 A0,0 0 0 0 359.32,577.1899 L629.7575,577.1899 A0,0 0 0 0 629.7575,577.1899 L629.7575,531.2583 L619.7575,521.2583 L498.54,521.2583 L494.54,460.6183 L490.54,521.2583 L359.32,521.2583 A0,0 0 0 0 359.32,521.2583" fill="#FEFFDD" style="stroke:#181818;stroke-width:0.5;"/><path d="M619.7575,521.2583 L619.7575,531.2583 L629.7575,531.2583 L619.7575,521.2583" fill="#FEFFDD" style="stroke:#181818;stroke-width:0.5;"/><text fill="#000000" font-family="sans-serif" font-size="13" lengthAdjust="spacing" textLength="249.4375" x="365.32" y="538.8266">The medium that decided the interface.</text><text fill="#000000" font-family="sans-serif" font-size="13" lengthAdjust="spacing" textLength="228.2617" x="365.32" y="554.1372">A test asserts its output contains no</text><text fill="#000000" font-family="sans-serif" font-size="13" lengthAdjust="spacing" textLength="168.7271" x="365.32" y="569.4477">&amp;lt; , no = and no newline.</text></g><g class="entity" data-qualified-name="N1" data-source-line="50" id="ent0022"><path d="M1011.53,84.8783 L1011.53,110.1888 L1309.5544,110.1888 L1309.5544,94.8783 L1299.5544,84.8783 L1011.53,84.8783" fill="#FEFFDD" style="stroke:#181818;stroke-width:0.5;"/><path d="M1299.5544,84.8783 L1299.5544,94.8783 L1309.5544,94.8783 L1299.5544,84.8783" fill="#FEFFDD" style="stroke:#181818;stroke-width:1;"/><text fill="#000000" font-family="sans-serif" font-size="13" lengthAdjust="spacing" textLength="166.0039" x="1017.53" y="102.4466">3 documents + 3 media =</text><text fill="#000000" font-family="sans-serif" font-size="13" font-weight="700" lengthAdjust="spacing" textLength="61.3184" x="1187.6472" y="102.4466">6 classes</text><text fill="#000000" font-family="sans-serif" font-size="13" lengthAdjust="spacing" textLength="45.5889" x="1248.9655" y="102.4466">, not 9.</text></g><!--reverse link Document to Invoice--><g class="link" data-entity-1="ent0001" data-entity-2="ent0002" data-link-type="extension" data-source-line="28" id="lnk9"><path codeLine="28" d="M871.2382,167.1106 C851.7782,207.1906 833.87,244.0583 820.14,272.3483" fill="none" id="Document-backto-Invoice" style="stroke:#181818;stroke-width:1;"/><polygon fill="none" points="879.1,150.9183,865.8407,164.49,876.6356,169.7312,879.1,150.9183" style="stroke:#181818;stroke-width:1;stroke-linejoin:miter;stroke-miterlimit:10;"/></g><!--reverse link Document to AccountStatement--><g class="link" data-entity-1="ent0001" data-entity-2="ent0003" data-link-type="extension" data-source-line="29" id="lnk10"><path codeLine="29" d="M937.8418,167.1106 C957.3018,207.1906 975.21,244.0583 988.95,272.3483" fill="none" id="Document-backto-AccountStatement" style="stroke:#181818;stroke-width:1;"/><polygon fill="none" points="929.98,150.9183,932.4444,169.7312,943.2393,164.49,929.98,150.9183" style="stroke:#181818;stroke-width:1;stroke-linejoin:miter;stroke-miterlimit:10;"/></g><!--reverse link Document to DunningLetter--><g class="link" data-entity-1="ent0001" data-entity-2="ent0004" data-link-type="extension" data-source-line="30" id="lnk11"><path codeLine="30" d="M991.7535,157.8662 C1026.9935,181.8862 1055.09,201.1083 1093.54,227.5683 C1115.4,242.6183 1140.06,259.7383 1158.5,272.5683" fill="none" id="Document-backto-DunningLetter" style="stroke:#181818;stroke-width:1;"/><polygon fill="none" points="976.88,147.7283,988.3742,162.8241,995.1328,152.9084,976.88,147.7283" style="stroke:#181818;stroke-width:1;stroke-linejoin:miter;stroke-miterlimit:10;"/></g><!--link Document to Medium--><g class="link" data-entity-1="ent0001" data-entity-2="ent0005" data-link-type="aggregation" data-source-line="31" id="lnk12"><path codeLine="31" d="M820.4868,113.7691 C722.4668,132.6591 554.72,169.6683 409.54,227.5683 C403.72,229.8983 402.3709,230.3454 396.4909,233.0554" fill="none" id="Document-Medium" style="stroke:#181818;stroke-width:1;"/><polygon fill="none" points="832.27,111.4983,825.6215,108.706,820.4868,113.7691,827.1353,116.5614,832.27,111.4983" style="stroke:#181818;stroke-width:1;stroke-linejoin:miter;stroke-miterlimit:10;"/><polygon fill="#181818" points="391.95,235.1483,401.7979,235.0139,396.4909,233.0554,398.4494,227.7484,391.95,235.1483" style="stroke:#181818;stroke-width:1;stroke-linejoin:miter;stroke-miterlimit:10;"/><text fill="#000000" font-family="sans-serif" font-size="13" lengthAdjust="spacing" textLength="51.5239" x="543.11" y="194.1366">medium</text><text fill="#000000" font-family="sans-serif" font-size="13" lengthAdjust="spacing" textLength="8.2202" x="399.8754" y="227.7174">1</text></g><!--reverse link Medium to HtmlMedium--><g class="link" data-entity-1="ent0005" data-entity-2="ent0006" data-link-type="extension" data-source-line="32" id="lnk13"><path codeLine="32" d="M187.253,369.5988 C156.843,391.4088 139.79,403.6383 118.03,419.2383" fill="none" id="Medium-backto-HtmlMedium" style="stroke:#181818;stroke-width:1;stroke-dasharray:7,7;"/><polygon fill="none" points="201.88,359.1083,183.7561,364.7231,190.7498,374.4744,201.88,359.1083" style="stroke:#181818;stroke-width:1;stroke-linejoin:miter;stroke-miterlimit:10;"/></g><!--reverse link Medium to PlainTextMedium--><g class="link" data-entity-1="ent0005" data-entity-2="ent0007" data-link-type="extension" data-source-line="33" id="lnk14"><path codeLine="33" d="M292.54,376.8983 C292.54,398.7383 292.54,403.5183 292.54,419.1683" fill="none" id="Medium-backto-PlainTextMedium" style="stroke:#181818;stroke-width:1;stroke-dasharray:7,7;"/><polygon fill="none" points="292.54,358.8983,286.54,376.8983,298.54,376.8983,292.54,358.8983" style="stroke:#181818;stroke-width:1;stroke-linejoin:miter;stroke-miterlimit:10;"/></g><!--reverse link Medium to SpokenMedium--><g class="link" data-entity-1="ent0005" data-entity-2="ent0008" data-link-type="extension" data-source-line="34" id="lnk15"><path codeLine="34" d="M397.8287,369.5965 C428.2487,391.4065 445.3,403.6383 467.05,419.2383" fill="none" id="Medium-backto-SpokenMedium" style="stroke:#181818;stroke-width:1;stroke-dasharray:7,7;"/><polygon fill="none" points="383.2,359.1083,394.3326,374.4727,401.3247,364.7203,383.2,359.1083" style="stroke:#181818;stroke-width:1;stroke-linejoin:miter;stroke-miterlimit:10;"/></g><?plantuml-src ZLJRRjD047tVhnWL2GKrCKH8I9GGAQKW8b5KaVx0s9x4g-p5x8wJbhOI7y4NyYMC7JkDWxYysNFcSixE9QwrAp6WXSnWZ3FceDEAQPvvjz3V25weGkS4P4k-1KisfH0LQpO4vq7dAuAVttz0uIrjVLZ3U0XS12B8VLPPSXp1RoYqHakvHgKKff43Phmh2XUjBqmcinRHtasdSAS0dZHHbOKpk6m-n7OAWLnEOV1Ch0kXx5QDvrsN-05IdzysyCRhN3qejIirT_AVaLJwGaljAEyLR9rcMUOhnmj6ffRNNxmlAkU4m2TY5g5_S5NQ2Rf4ARrJ8OvpMveclm-jrbCe27D9DZ2q8IDlIJUy5r7ZIqqc7nXCQtI3fg8U7Fnsa94nCKcI7i2UqNHnQ6jvFTnNN5Py-9xx9_l8rkmvl_Ck2oJpSSYzTRmogDsrCFulxqNfr-J-uQeUH-D-DEgwTsGzRjSHtElF8-P7eocSZ4-wVforSwOwIlT9Sg2zPpvIsiCETIdbF1C4lIgauF9nWD_BJjn26RJLh3UoBHGpMJoAC4cdbh0cF7cUJeVYAob0ktK2US3jkRyPGYJ-u1qFmT7s2cK5qTLTj1XMsW46CHW3NokAzVH5m5JQMsSkiQJGvPKWGDYjGuOIv-9M1jXvHpLNBiWcIjQi9a2jajGpUrl3FPa0rmLrUye5iWZAv6paTHROZtuYZZEPwSWW4q11ZeEk3qGpUo0NX-LPezGJlwU6tu0ezF2sOIeVejR8Plr62YDy7al8ouEZSof_pRMHS17-QdTfA3RYcoTzVP3d5m00?></g></svg>